<svg xmlns="http://www.w3.org/2000/svg" xmlns:p="http://www.evolus.vn/Namespace/Pencil" xmlns:pencil="http://www.evolus.vn/Namespace/Pencil" xmlns:html="http://www.w3.org/1999/xhtml" xmlns:xhtml="http://www.w3.org/1999/xhtml" xmlns:office="urn:oasis:names:tc:opendocument:xmlns:office:1.0" xmlns:style="urn:oasis:names:tc:opendocument:xmlns:style:1.0" xmlns:text="urn:oasis:names:tc:opendocument:xmlns:text:1.0" xmlns:table="urn:oasis:names:tc:opendocument:xmlns:table:1.0" xmlns:draw="urn:oasis:names:tc:opendocument:xmlns:drawing:1.0" xmlns:fo="urn:oasis:names:tc:opendocument:xmlns:xsl-fo-compatible:1.0" xmlns:xlink="http://www.w3.org/1999/xlink" xmlns:dc="http://purl.org/dc/elements/1.1/" xmlns:meta="urn:oasis:names:tc:opendocument:xmlns:meta:1.0" xmlns:number="urn:oasis:names:tc:opendocument:xmlns:datastyle:1.0" xmlns:svg="urn:oasis:names:tc:opendocument:xmlns:svg-compatible:1.0" xmlns:chart="urn:oasis:names:tc:opendocument:xmlns:chart:1.0" xmlns:dr3d="urn:oasis:names:tc:opendocument:xmlns:dr3d:1.0" xmlns:math="http://www.w3.org/1998/Math/MathML" xmlns:form="urn:oasis:names:tc:opendocument:xmlns:form:1.0" xmlns:script="urn:oasis:names:tc:opendocument:xmlns:script:1.0" xmlns:ooo="http://openoffice.org/2004/office" xmlns:ooow="http://openoffice.org/2004/writer" xmlns:oooc="http://openoffice.org/2004/calc" xmlns:dom="http://www.w3.org/2001/xml-events" xmlns:xforms="http://www.w3.org/2002/xforms" xmlns:xsd="http://www.w3.org/2001/XMLSchema" xmlns:xsi="http://www.w3.org/2001/XMLSchema-instance" xmlns:rpt="http://openoffice.org/2005/report" xmlns:of="urn:oasis:names:tc:opendocument:xmlns:of:1.2" xmlns:rdfa="http://docs.oasis-open.org/opendocument/meta/rdfa#" xmlns:field="urn:openoffice:names:experimental:ooo-ms-interop:xmlns:field:1.0" xmlns:regexp="http://exslt.org/regular-expressions" xmlns:em="http://exslt.org/math" xmlns:sodipodi="http://sodipodi.sourceforge.net/DTD/sodipodi-0.dtd" xmlns:inkscape="http://www.inkscape.org/namespaces/inkscape" width="396" height="798" id="exportedSVG" version="1.1" pencil:version="1.2.2" sodipodi:docname="AboutUS_modified"><g inkscape:label="About Us" inkscape:groupmode="layer" id="layer_about_us"><g><rect x="0" y="0" width="396" height="798" fill="none"/><g p:type="Shape" p:def="nz.nwatson.AndroidLollipop:Phone" id="44eef4fb9ebc4f3fa512dc5da9de6f53" transform="matrix(1,0,0,1,0,0)"><p:metadata><p:property name="box">396,798</p:property><p:property name="fillColor">#000000FF</p:property></p:metadata>

			<path p:name="phone" id="512cc03e273a48d0918a4f32c661ad2a" d="M 30 12 C 16 14 0 26 0 43 L 0 755 C 0 772 16 784 30 786 C 142 801 254 801 366 786 C 380 784 396 772 396 755 L 396 43 C 396 26 380 14 366 12 C 254 -3 142 -3 30 12 z M 18 68 L 378 68 L 378 708 L 18 708 z" style="fill: rgb(0, 0, 0); fill-opacity: 1;"/>

		</g><g p:type="Shape" p:def="nz.nwatson.AndroidLollipop:SoftKeys" id="2e8ecb59cecc4aca9741426c9371b647" transform="matrix(1,0,0,1,22,710)"><p:metadata><p:property name="box">360,48</p:property><p:property name="fillColor">#000000FF</p:property></p:metadata>

			<rect p:name="bg" id="07d6517f004843d49223a70cdf9caa1e" style="fill: rgb(0, 0, 0); fill-opacity: 1;" width="360" height="48"/>
			<g style="stroke-width: 2px; stroke:#FFFFFF; stroke-opacity:0.9; fill: none;stroke-linejoin:round" p:name="icons" id="1e0e22de99bf45ad9c968f2709c6ec1e" transform="translate(72,15)">
				<path d="m202.17 2h12c.554 0 1 .446 1 1v12c0 .554-.446 1-1 1h-12c-.554 0-1-.446-1-1v-12c0-.554.446-1 1-1z"/>
				<path d="m15.168 9c0 10.196 1.286 9.454-7.544 4.356-8.83-5.098-8.83-3.613 0-8.711 8.83-5.098 7.544-5.841 7.544 4.356z"/>
				<path d="m116.17 9c0 4.418-3.582 8-8 8-4.418 0-8-3.582-8-8 0-4.418 3.582-8 8-8 4.418 0 8 3.582 8 8z"/>
			</g>
		</g><g p:type="Shape" p:def="nz.nwatson.AndroidLollipop:NotificationBar" id="06d0a85ba1b649bb928f9d5477f7ef56" transform="matrix(1,0,0,1,18,37)"><p:metadata><p:property name="box">360,24</p:property><p:property name="fillColor">#00000025</p:property></p:metadata>

			<defs>
				<linearGradient p:name="statusIconBg" id="adcc215cfa0948139badfa140d027fd9">
					<stop style="stop-color:#ffffff;stop-opacity:0.28627452;" offset="0"/>
				</linearGradient>
				<linearGradient p:name="statusIconFg" id="6c7817ebf2d44d50a2b3d9eb94bbcfa0">
					<stop style="stop-color:#ffffff;stop-opacity:0.90196079;" offset="0"/>
				</linearGradient>
			</defs>

			<rect height="24" p:lockH="true" p:name="bg" id="9a3abdb67a164d8f8d630a5e934189de" style="fill: rgb(0, 0, 0); fill-opacity: 0.145098;" width="360"/>

			<g p:name="icons" id="2783fe7891d345188dac846fd1845e97" transform="translate(240,5)">

				<g style="fill: url(#adcc215cfa0948139badfa140d027fd9)">
					<path d="m0 2.532c4.821-3.376 11.239-3.376 16.06 0l-8.03 11.468z"/>
					<path d="m28.662 14l14-14v14z"/>
					<path d="m60.662 0v1h-1c-.554 0-1 .446-1 1v11c0 .554.446 1 1 1h7c.554 0 1-.446 1-1v-11c0-.554-.446-1-1-1h-1v-1h-5"/>
				</g>

				<g style="fill: url(#6c7817ebf2d44d50a2b3d9eb94bbcfa0)">
					<path d="m2.026 5.426c3.605-2.524 8.403-2.524 12.01 0l-6 8.575z"/>
					<path d="m28.662 14l7-7v7z"/>
					<path d="m58.662 7v6c0 .554.446 1 1 1h7c.554 0 1-.446 1-1v-6z"/>

					<path d="m82.71 13h-.879v-9.609l-2.9 1.077v-.82l3.633-1.348h.146v10.701"/>
					<path d="m93.63 13h-6.68v-.674l3.494-3.962c.327-.371.603-.706.828-1 .229-.298.413-.574.549-.828.142-.259.242-.5.3-.725.063-.229.095-.457.095-.681 0-.322-.049-.615-.146-.879-.093-.269-.234-.5-.425-.696-.186-.195-.417-.347-.696-.454-.278-.107-.598-.161-.959-.161-.371 0-.706.063-1 .19-.293.122-.544.293-.754.513-.205.22-.364.481-.476.784-.112.303-.168.632-.168.989h-.872c0-.439.073-.854.22-1.245.151-.391.369-.732.652-1.025.283-.293.625-.525 1.025-.696.405-.171.864-.256 1.377-.256.479 0 .911.066 1.296.198.386.127.713.315.981.564.269.244.474.544.615.901.146.352.22.752.22 1.201 0 .322-.059.647-.176.974-.117.327-.273.652-.469.974-.195.322-.42.642-.674.959-.254.317-.515.63-.784.938l-2.974 3.362h5.603v.74"/>
					<path d="m95.2 12.473c0-.171.054-.315.161-.432.112-.122.266-.183.461-.183.195 0 .349.061.461.183.112.117.168.261.168.432 0 .171-.056.313-.168.425-.112.107-.266.161-.461.161-.195 0-.349-.054-.461-.161-.107-.112-.161-.254-.161-.425m.015-6.76c0-.171.054-.315.161-.432.112-.122.266-.183.461-.183.195 0 .349.061.461.183.112.117.168.261.168.432 0 .171-.056.313-.168.425-.112.107-.266.161-.461.161-.195 0-.349-.054-.461-.161-.107-.112-.161-.254-.161-.425"/>
					<path d="m100.38 7.192h.894c.41 0 .769-.054 1.077-.161.312-.112.574-.261.784-.447.21-.19.366-.41.469-.659.107-.254.161-.522.161-.806 0-.322-.046-.615-.139-.879-.088-.269-.225-.498-.41-.688-.181-.195-.413-.347-.696-.454-.278-.107-.61-.161-.996-.161-.337 0-.647.051-.93.154-.283.103-.53.249-.74.439-.21.19-.374.422-.491.696-.117.269-.176.571-.176.908h-.879c0-.43.081-.825.242-1.187.166-.361.391-.671.674-.93.288-.264.627-.466 1.018-.608.396-.146.823-.22 1.282-.22.469 0 .896.066 1.282.198.386.132.713.325.981.579.273.249.483.557.63.923.151.366.227.786.227 1.26 0 .239-.039.479-.117.718-.078.234-.193.457-.344.667-.151.21-.342.403-.571.579-.229.171-.493.313-.791.425.352.098.654.232.908.403.254.166.461.361.623.586.166.225.288.471.366.74.083.269.124.549.125.842 0 .483-.083.913-.249 1.289-.166.376-.396.696-.688.959-.293.259-.64.457-1.04.593-.4.132-.835.198-1.304.198-.435 0-.857-.063-1.267-.19-.405-.127-.769-.315-1.091-.564-.317-.254-.574-.571-.769-.952-.19-.381-.286-.825-.286-1.333h.879c0 .337.061.647.183.93.127.283.303.527.527.732.225.2.491.356.798.469.313.112.654.168 1.025.168.757 0 1.345-.193 1.765-.579.425-.391.637-.955.637-1.692 0-.386-.066-.718-.198-.996-.127-.278-.31-.505-.549-.681-.234-.181-.518-.312-.85-.396-.327-.083-.691-.125-1.091-.125h-.894v-.747"/>
					<path d="m113.18 8.554c0 .781-.073 1.46-.22 2.036-.146.576-.359 1.055-.637 1.436-.278.376-.62.657-1.025.842-.405.186-.867.278-1.384.278-.513 0-.972-.093-1.377-.278-.405-.186-.75-.466-1.033-.842-.283-.381-.5-.859-.652-1.436-.151-.576-.227-1.255-.227-2.036v-1.802c0-.781.073-1.458.22-2.029.151-.576.366-1.05.645-1.421.283-.376.627-.654 1.033-.835.405-.186.864-.278 1.377-.278.513 0 .972.093 1.377.278.41.181.754.459 1.033.835.283.371.498.845.645 1.421.151.571.227 1.248.227 2.029v1.802m-.879-1.912c0-1.221-.2-2.144-.601-2.769-.396-.625-.996-.937-1.802-.938-.801 0-1.401.313-1.802.938-.4.625-.601 1.548-.601 2.769v2.01c0 .601.051 1.135.154 1.604.103.464.254.857.454 1.179.205.317.459.559.762.725.303.166.652.249 1.047.249.4 0 .749-.083 1.047-.249.303-.166.552-.408.747-.725.2-.322.349-.715.447-1.179.098-.469.146-1 .146-1.604v-2.01"/>
				</g>
			</g>
		</g><g p:type="Shape" p:def="dgthanhan.AndroidNougatWireframe:card" id="9fcb0683c6d74d94b2c9dad09217c1ed" transform="matrix(1,0,0,1,18,65)"><p:metadata><p:property name="box">362,647</p:property><p:property name="fillColor">#EFEEF0FF</p:property><p:property name="shadowStyle">0|2|1|0.2</p:property></p:metadata>
      <defs>
        <filter x="-50%" width="200%" y="-50%" height="200%" p:name="rectangle0_shadowFilter" id="0a604ec7ce5e485589cfba3247a27736"><feGaussianBlur in="SourceAlpha" stdDeviation="1"/><feOffset dx="0" dy="2"/><feComponentTransfer><feFuncA type="linear" slope="0.2"/></feComponentTransfer><feMerge><feMergeNode/><feMergeNode in="SourceGraphic"/></feMerge></filter>
      </defs>
      <g p:filter="url(#0a604ec7ce5e485589cfba3247a27736)" p:name="rectangle0_globalGroup" id="dff2bd0ace114d02b2d2edb5dd067ee9" filter="url(#0a604ec7ce5e485589cfba3247a27736)">
        <rect p:filter="url(#16f769fdf557447d924ee29576d3d736)" rx="2.0846560846560847" ry="2.0846560846560847" style="fill: rgb(239, 238, 240); fill-opacity: 1; stroke: rgb(96, 96, 96); stroke-opacity: 1; stroke-width: 0;" width="362" height="647" p:name="rectangle0" id="61ac6d343671498592efcd7142c44146" x="0" y="0"/>
      </g>
    </g><g p:type="Shape" p:def="Evolus.Common:Bitmap" id="293369fc097a4a72abd98aca079a686c" transform="matrix(1,0,0,1,100,149)"><p:metadata><p:property name="box">174,175</p:property><p:property name="imageData">399,400,ref://65c793dbeb304b88aa9d9b96368b0131.jpg</p:property><p:property name="withBlur">false</p:property><p:property name="fillColor">#FFFFFF00</p:property><p:property name="strokeColor">#000000FF</p:property><p:property name="strokeStyle">0|</p:property></p:metadata>
            <defs>
                <filter height="1.2558399" y="-0.12792" width="1.06396" x="-0.03198" p:name="imageShading" id="6d491245dbe04211b662c12811d8d38e">
                    <feGaussianBlur stdDeviation="1.3325" in="SourceAlpha"/>
                </filter>
                <g p:name="container" id="bc578a2f892f4d76a63c8a021116e128">
                    <rect style="fill: rgb(255, 255, 255); stroke: rgb(0, 0, 0); stroke-opacity: 1; stroke-width: 0; fill-opacity: 0;" p:name="bgRect" id="aafafe3be86147d1b199fb5f35e4e12f" transform="translate(0,0)" width="174" height="175"/>
                    <g p:name="imageContainer" id="7178c785389b4eeb9020c9628c5bc6f8" transform="scale(0.43609022556390975,0.4375)">
                        <image x="0" y="0" p:name="image" id="db58d0e6dbc34aa784595979914a079f" xlink:href="file:///C:/Users/user/AppData/Local/Temp/tmp-11516hNgvQU6UFmqu/refs/65c793dbeb304b88aa9d9b96368b0131.jpg?token=1503732206000" width="399" height="400"/>
                    </g>
                </g>
            </defs>
            <use xlink:href="#bc578a2f892f4d76a63c8a021116e128" transform="translate(1, 1)" p:filter="url(#6d491245dbe04211b662c12811d8d38e)" style="opacity: 0.6; visibility: hidden; display: none;" p:name="bgCopy" id="963d07cebe3044fca5f2698804b0d0e6"/>
            <use xlink:href="#bc578a2f892f4d76a63c8a021116e128"/>
        </g><g p:type="Shape" p:def="dgthanhan.AndroidNougatWireframe:textview" p:sc="Body 2" id="4310013d6f4f47bc8de4dc8f4e0bccdb" transform="matrix(1,0,0,1,37,353)"><p:metadata><p:property name="box">330,100</p:property><p:property name="textAlignment">0,1</p:property><p:property name="textColor">#000000DE</p:property><p:property name="textFont">Android Roboto|500|normal|14px|none</p:property><p:property name="text0">&lt;span xmlns="http://www.w3.org/1999/xhtml" style="font-size:11.0pt;line-height:107%;&amp;#10;font-family:&amp;quot;Calibri&amp;quot;,sans-serif;mso-ascii-theme-font:minor-latin;mso-fareast-font-family:&amp;#10;Calibri;mso-fareast-theme-font:minor-latin;mso-hansi-theme-font:minor-latin;&amp;#10;mso-bidi-font-family:&amp;quot;Times New Roman&amp;quot;;mso-bidi-theme-font:minor-bidi;&amp;#10;mso-ansi-language:EN-SG;mso-fareast-language:EN-US;mso-bidi-language:AR-SA"&gt;LocAdoc aims to provide its user a way to store confidential documents in mobile devices and acces it only in the area he/she find it is safe. By including two factor protections, one being password (what the user knows) and second being the location (where the user is currently), hence providing secure vault for document storage so the it does not get into wrong hadns even if the device is compromised.&lt;/span&gt;</p:property><p:property name="shadowStyle">0|0|0|0</p:property></p:metadata>
      <path p:filter="url(#64cd8fd897dd469ea0ef8b37f3b44c46)" d="M 0 0 L 330 0 L 330 100 L 0 100 L 0 0 z" style="fill: rgb(255, 255, 255); fill-opacity: 0; stroke: rgb(0, 0, 0); stroke-opacity: 1; stroke-width: 0;" p:name="pathRect0" id="599aa74cb4734da2be3611b7cad6498d" rx="0" ry="0" transform="translate(0,0)"/>
      <defs>
        <filter x="-50%" width="200%" y="-50%" height="200%" p:name="text0_shadowFilter" id="e8d21a48afbe4b8c953185c4cdcca7b1"><feGaussianBlur in="SourceAlpha" stdDeviation="0"/><feOffset dx="0" dy="0"/><feComponentTransfer><feFuncA type="linear" slope="0"/></feComponentTransfer><feMerge><feMergeNode/><feMergeNode in="SourceGraphic"/></feMerge></filter>
      </defs>
      <g p:filter="url(#e8d21a48afbe4b8c953185c4cdcca7b1)" p:name="text0_globalGroup" id="70bc3428671942b69047d6beb47c68ae">
        <g p:filter="url(#868a972c6dae418cb9e0c13f7016efc8)" dominant-baseline="auto" p:name="text0text" id="e27331b22c234ae9869558b8b434e131" style="fill: rgb(0, 0, 0); fill-opacity: 0.870588; color: rgba(0, 0, 0, 0.870588); font-family: &quot;Android Roboto&quot;; font-size: 14px; font-weight: 500; font-style: normal; text-decoration: none;"><g transform="translate(0,-22)"><text><tspan x="0" y="14" style="font-family: Calibri, sans-serif; font-size: 14.6667px; font-weight: 500; font-style: normal; text-decoration: none; text-transform: none; fill: rgba(0, 0, 0, 0.870588); background-color: rgba(0, 0, 0, 0);">LocAdoc aims to provide its user a way to store</tspan><tspan x="0" y="32" style="font-family: Calibri, sans-serif; font-size: 14.6667px; font-weight: 500; font-style: normal; text-decoration: none; text-transform: none; fill: rgba(0, 0, 0, 0.870588); background-color: rgba(0, 0, 0, 0);">confidential documents in mobile devices and acces it</tspan><tspan x="0" y="50" style="font-family: Calibri, sans-serif; font-size: 14.6667px; font-weight: 500; font-style: normal; text-decoration: none; text-transform: none; fill: rgba(0, 0, 0, 0.870588); background-color: rgba(0, 0, 0, 0);">only in the area he/she find it is safe. By including two</tspan><tspan x="0" y="68" style="font-family: Calibri, sans-serif; font-size: 14.6667px; font-weight: 500; font-style: normal; text-decoration: none; text-transform: none; fill: rgba(0, 0, 0, 0.870588); background-color: rgba(0, 0, 0, 0);">factor protections, one being password (what the user</tspan><tspan x="0" y="86" style="font-family: Calibri, sans-serif; font-size: 14.6667px; font-weight: 500; font-style: normal; text-decoration: none; text-transform: none; fill: rgba(0, 0, 0, 0.870588); background-color: rgba(0, 0, 0, 0);">knows) and second being the location (where the user</tspan><tspan x="0" y="104" style="font-family: Calibri, sans-serif; font-size: 14.6667px; font-weight: 500; font-style: normal; text-decoration: none; text-transform: none; fill: rgba(0, 0, 0, 0.870588); background-color: rgba(0, 0, 0, 0);">is currently), hence providing secure vault for</tspan><tspan x="0" y="122" style="font-family: Calibri, sans-serif; font-size: 14.6667px; font-weight: 500; font-style: normal; text-decoration: none; text-transform: none; fill: rgba(0, 0, 0, 0.870588); background-color: rgba(0, 0, 0, 0);">document storage so the it does not get into wrong</tspan><tspan x="0" y="140" style="font-family: Calibri, sans-serif; font-size: 14.6667px; font-weight: 500; font-style: normal; text-decoration: none; text-transform: none; fill: rgba(0, 0, 0, 0.870588); background-color: rgba(0, 0, 0, 0);">hadns even if the device is compromised.</tspan></text></g></g>
      </g>
    </g><g p:type="Shape" p:def="dgthanhan.AndroidNougatWireframe:snackbar" p:sc="Snackbar - no action" id="135da5ffa90e47bcba3fc1517a513bf9" transform="matrix(1,0,0,1,18,65)"><p:metadata><p:property name="box">362,48</p:property><p:property name="fillColor">#1D8668FF</p:property><p:property name="radius">0,0</p:property><p:property name="shadowStyle">0|0|0|1</p:property><p:property name="textAlignment">0,1</p:property><p:property name="textColor">#FFFFFFFF</p:property><p:property name="textFont">Android Roboto|normal|normal|16px|none</p:property><p:property name="text0">LocADoc</p:property><p:property name="textColor2">#FFFF00DE</p:property><p:property name="textFont2">Android Roboto|500|normal|14px|none</p:property><p:property name="textAction"/></p:metadata>
      <defs>
        <filter x="-50%" width="200%" y="-50%" height="200%" p:name="rectangle0_shadowFilter" id="5b84d706cfc64489b66671cfa3804f1e"><feGaussianBlur in="SourceAlpha" stdDeviation="0"/><feOffset dx="0" dy="0"/><feComponentTransfer><feFuncA type="linear" slope="1"/></feComponentTransfer><feMerge><feMergeNode/><feMergeNode in="SourceGraphic"/></feMerge></filter>
      </defs>
      <g p:filter="url(#5b84d706cfc64489b66671cfa3804f1e)" p:name="rectangle0_globalGroup" id="58d0258f6a12445c9c4815b758c189a0" filter="url(#5b84d706cfc64489b66671cfa3804f1e)">
        <rect p:filter="url(#043614bf39134a0c9a693839a266d5fd)" rx="0" ry="0" style="fill: rgb(29, 134, 104); fill-opacity: 1; stroke: rgb(0, 0, 0); stroke-opacity: 1; stroke-width: 0;" width="362" height="48" p:name="rectangle0" id="f2b5deb361754df6983e04c5bf837846" x="0" y="0"/>
      </g>
      <g p:filter="url(#e22d30b7a4054f35be5d5d70112a8835)" dominant-baseline="auto" p:name="text0text" id="84b24b728b91494693b544da2041a454" style="fill: rgb(255, 255, 255); fill-opacity: 1; color: rgb(255, 255, 255); font-family: &quot;Android Roboto&quot;; font-size: 16px; font-weight: normal; font-style: normal; text-decoration: none;"><g transform="translate(0,1)"><text><tspan x="24" y="29" style="font-family: &quot;Android Roboto&quot;; font-size: 16px; font-weight: normal; font-style: normal; text-decoration: none; text-transform: none; fill: rgb(255, 255, 255); background-color: rgba(0, 0, 0, 0);">LocADoc</tspan></text></g></g>
      <g p:filter="url(#c4b1e4a3bb7c410480808f4a5bec5fac)" dominant-baseline="auto" p:name="textActiontext" id="eb54cf01a6944e2d8c7b20ad4059b0c7" style="fill: rgb(255, 255, 0); fill-opacity: 0.870588; color: rgba(255, 255, 0, 0.870588); font-family: &quot;Android Roboto&quot;; font-size: 14px; font-weight: 500; font-style: normal; text-decoration: none;"/>
    </g><g p:type="Shape" p:def="dgthanhan.AndroidNougatWireframe:textview" p:sc="Body 2" id="c5e37a1ea99e4bfc9cf95ce1cb26fdbb" transform="matrix(1,0,0,1,37,506)"><p:metadata><p:property name="box">77,19</p:property><p:property name="textAlignment">0,1</p:property><p:property name="textColor">#000000DE</p:property><p:property name="textFont">Android Roboto|500|normal|14px|none</p:property><p:property name="text0">&lt;span xmlns="http://www.w3.org/1999/xhtml" style="font-family: Calibri, sans-serif; font-size: 14.6667px;"&gt;Version 1.0&lt;/span&gt;</p:property><p:property name="shadowStyle">0|0|0|0</p:property></p:metadata>
      <path p:filter="url(#64cd8fd897dd469ea0ef8b37f3b44c46)" d="M 0 0 L 77 0 L 77 19 L 0 19 L 0 0 z" style="fill: rgb(255, 255, 255); fill-opacity: 0; stroke: rgb(0, 0, 0); stroke-opacity: 1; stroke-width: 0;" p:name="pathRect0" id="c86e45e71f854b6aade47b0829aa6020" rx="0" ry="0" transform="translate(0,0)"/>
      <defs>
        <filter x="-50%" width="200%" y="-50%" height="200%" p:name="text0_shadowFilter" id="3123ce8594f7413c9efa994a45ccf0d9"><feGaussianBlur in="SourceAlpha" stdDeviation="0"/><feOffset dx="0" dy="0"/><feComponentTransfer><feFuncA type="linear" slope="0"/></feComponentTransfer><feMerge><feMergeNode/><feMergeNode in="SourceGraphic"/></feMerge></filter>
      </defs>
      <g p:filter="url(#3123ce8594f7413c9efa994a45ccf0d9)" p:name="text0_globalGroup" id="920c3be2c0594c29ac8c9f54371eabe0">
        <g p:filter="url(#868a972c6dae418cb9e0c13f7016efc8)" dominant-baseline="auto" p:name="text0text" id="54a823e51fd84454923bdef280f7d0e7" style="fill: rgb(0, 0, 0); fill-opacity: 0.870588; color: rgba(0, 0, 0, 0.870588); font-family: &quot;Android Roboto&quot;; font-size: 14px; font-weight: 500; font-style: normal; text-decoration: none;"><g transform="translate(0,1)"><text><tspan x="0" y="14" style="font-family: Calibri, sans-serif; font-size: 14.6667px; font-weight: 500; font-style: normal; text-decoration: none; text-transform: none; fill: rgba(0, 0, 0, 0.870588); background-color: rgba(0, 0, 0, 0);">Version 1.0</tspan></text></g></g>
      </g>
    </g><g p:type="Shape" p:def="dgthanhan.AndroidNougatWireframe:textview" p:sc="Body 2" id="51343f73f27a472bb70ed9e9df6b2af3" transform="matrix(1,0,0,1,37,524)"><p:metadata><p:property name="box">110,19</p:property><p:property name="textAlignment">0,1</p:property><p:property name="textColor">#3366FFDE</p:property><p:property name="textFont">Android Roboto|bold|normal|14px|none</p:property><p:property name="text0">&lt;span xmlns="http://www.w3.org/1999/xhtml" style="font-family: Calibri, sans-serif; font-size: 14.6667px;"&gt;Visit out website&lt;/span&gt;</p:property><p:property name="shadowStyle">0|0|0|0</p:property></p:metadata>
      <path p:filter="url(#64cd8fd897dd469ea0ef8b37f3b44c46)" d="M 0 0 L 110 0 L 110 19 L 0 19 L 0 0 z" style="fill: rgb(255, 255, 255); fill-opacity: 0; stroke: rgb(0, 0, 0); stroke-opacity: 1; stroke-width: 0;" p:name="pathRect0" id="da946df133b146c9b7a8ff39e996b6ab" rx="0" ry="0" transform="translate(0,0)"/>
      <defs>
        <filter x="-50%" width="200%" y="-50%" height="200%" p:name="text0_shadowFilter" id="498337c79cdf4921908c7677e1b91db1"><feGaussianBlur in="SourceAlpha" stdDeviation="0"/><feOffset dx="0" dy="0"/><feComponentTransfer><feFuncA type="linear" slope="0"/></feComponentTransfer><feMerge><feMergeNode/><feMergeNode in="SourceGraphic"/></feMerge></filter>
      </defs>
      <g p:filter="url(#498337c79cdf4921908c7677e1b91db1)" p:name="text0_globalGroup" id="476d1ea0ab6a489697cde02b9a856051">
        <g p:filter="url(#868a972c6dae418cb9e0c13f7016efc8)" dominant-baseline="auto" p:name="text0text" id="eb86aac7a6e840d8b11ebb27792fd5ab" style="fill: rgb(51, 102, 255); fill-opacity: 0.870588; color: rgba(51, 102, 255, 0.870588); font-family: &quot;Android Roboto&quot;; font-size: 14px; font-weight: bold; font-style: normal; text-decoration: none;"><g transform="translate(0,1)"><text><tspan x="0" y="14" style="font-family: Calibri, sans-serif; font-size: 14.6667px; font-weight: bold; font-style: normal; text-decoration: none; text-transform: none; fill: rgba(51, 102, 255, 0.870588); background-color: rgba(0, 0, 0, 0);">Visit out website</tspan></text></g></g>
      </g>
    </g></g></g></svg>