<svg xmlns="http://www.w3.org/2000/svg" xmlns:p="http://www.evolus.vn/Namespace/Pencil" xmlns:pencil="http://www.evolus.vn/Namespace/Pencil" xmlns:html="http://www.w3.org/1999/xhtml" xmlns:xhtml="http://www.w3.org/1999/xhtml" xmlns:office="urn:oasis:names:tc:opendocument:xmlns:office:1.0" xmlns:style="urn:oasis:names:tc:opendocument:xmlns:style:1.0" xmlns:text="urn:oasis:names:tc:opendocument:xmlns:text:1.0" xmlns:table="urn:oasis:names:tc:opendocument:xmlns:table:1.0" xmlns:draw="urn:oasis:names:tc:opendocument:xmlns:drawing:1.0" xmlns:fo="urn:oasis:names:tc:opendocument:xmlns:xsl-fo-compatible:1.0" xmlns:xlink="http://www.w3.org/1999/xlink" xmlns:dc="http://purl.org/dc/elements/1.1/" xmlns:meta="urn:oasis:names:tc:opendocument:xmlns:meta:1.0" xmlns:number="urn:oasis:names:tc:opendocument:xmlns:datastyle:1.0" xmlns:svg="urn:oasis:names:tc:opendocument:xmlns:svg-compatible:1.0" xmlns:chart="urn:oasis:names:tc:opendocument:xmlns:chart:1.0" xmlns:dr3d="urn:oasis:names:tc:opendocument:xmlns:dr3d:1.0" xmlns:math="http://www.w3.org/1998/Math/MathML" xmlns:form="urn:oasis:names:tc:opendocument:xmlns:form:1.0" xmlns:script="urn:oasis:names:tc:opendocument:xmlns:script:1.0" xmlns:ooo="http://openoffice.org/2004/office" xmlns:ooow="http://openoffice.org/2004/writer" xmlns:oooc="http://openoffice.org/2004/calc" xmlns:dom="http://www.w3.org/2001/xml-events" xmlns:xforms="http://www.w3.org/2002/xforms" xmlns:xsd="http://www.w3.org/2001/XMLSchema" xmlns:xsi="http://www.w3.org/2001/XMLSchema-instance" xmlns:rpt="http://openoffice.org/2005/report" xmlns:of="urn:oasis:names:tc:opendocument:xmlns:of:1.2" xmlns:rdfa="http://docs.oasis-open.org/opendocument/meta/rdfa#" xmlns:field="urn:openoffice:names:experimental:ooo-ms-interop:xmlns:field:1.0" xmlns:regexp="http://exslt.org/regular-expressions" xmlns:em="http://exslt.org/math" xmlns:sodipodi="http://sodipodi.sourceforge.net/DTD/sodipodi-0.dtd" xmlns:inkscape="http://www.inkscape.org/namespaces/inkscape" width="396" height="798" id="exportedSVG" version="1.1" pencil:version="1.2.2" sodipodi:docname="ForgotPassword_modified"><g inkscape:label="ForgotPassword_modified" inkscape:groupmode="layer" id="layer_forgotpasswordmodified"><g><rect x="0" y="0" width="396" height="798" fill="none"/><g p:type="Shape" p:def="dgthanhan.AndroidNougatWireframe:card" id="f87670e765bf4ae98e0e7b38b11861d2" transform="matrix(1,0,0,1,18,65)"><p:metadata><p:property name="box">363,643</p:property><p:property name="fillColor">#EFEEF0FF</p:property><p:property name="shadowStyle">0|2|1|0.2</p:property></p:metadata>
      <defs>
        <filter x="-50%" width="200%" y="-50%" height="200%" p:name="rectangle0_shadowFilter" id="9eb407f22a404162b8a0edc10d1e5c7e"><feGaussianBlur in="SourceAlpha" stdDeviation="1"/><feOffset dx="0" dy="2"/><feComponentTransfer><feFuncA type="linear" slope="0.2"/></feComponentTransfer><feMerge><feMergeNode/><feMergeNode in="SourceGraphic"/></feMerge></filter>
      </defs>
      <g p:filter="url(#9eb407f22a404162b8a0edc10d1e5c7e)" p:name="rectangle0_globalGroup" id="feb44f3c2e614ed195686e2859835700" filter="url(#9eb407f22a404162b8a0edc10d1e5c7e)">
        <rect p:filter="url(#16f769fdf557447d924ee29576d3d736)" rx="2.0846560846560847" ry="2.0846560846560847" style="fill: rgb(239, 238, 240); fill-opacity: 1; stroke: rgb(96, 96, 96); stroke-opacity: 1; stroke-width: 0;" width="363" height="643" p:name="rectangle0" id="2cea03d32aab48ad8cf2a4761a044200" x="0" y="0"/>
      </g>
    </g><g p:type="Shape" p:def="nz.nwatson.AndroidLollipop:Phone" id="3ca3f76ced88445e902e15cda8be9a6b" transform="matrix(1,0,0,1,0,0)"><p:metadata><p:property name="box">396,798</p:property><p:property name="fillColor">#000000FF</p:property></p:metadata>

			<path p:name="phone" id="e8fb9349f0c24a12a7ef52e8e7bbb662" d="M 30 12 C 16 14 0 26 0 43 L 0 755 C 0 772 16 784 30 786 C 142 801 254 801 366 786 C 380 784 396 772 396 755 L 396 43 C 396 26 380 14 366 12 C 254 -3 142 -3 30 12 z M 18 68 L 378 68 L 378 708 L 18 708 z" style="fill: rgb(0, 0, 0); fill-opacity: 1;"/>

		</g><g p:type="Shape" p:def="nz.nwatson.AndroidLollipop:NotificationBar" id="bf61d3120de149e687e87d7adc9f7af2" transform="matrix(1,0,0,1,21,39)"><p:metadata><p:property name="box">360,24</p:property><p:property name="fillColor">#00000025</p:property></p:metadata>

			<defs>
				<linearGradient p:name="statusIconBg" id="a4e9a243e3ef449594631d907e5d452e">
					<stop style="stop-color:#ffffff;stop-opacity:0.28627452;" offset="0"/>
				</linearGradient>
				<linearGradient p:name="statusIconFg" id="5320f8769d374d368608f9220cfa270b">
					<stop style="stop-color:#ffffff;stop-opacity:0.90196079;" offset="0"/>
				</linearGradient>
			</defs>

			<rect height="24" p:lockH="true" p:name="bg" id="b0fd75ea4fdc429ea4a83d510464ed7f" style="fill: rgb(0, 0, 0); fill-opacity: 0.145098;" width="360"/>

			<g p:name="icons" id="245ee0775b264846afe85274b0a562aa" transform="translate(240,5)">

				<g style="fill: url(#a4e9a243e3ef449594631d907e5d452e)">
					<path d="m0 2.532c4.821-3.376 11.239-3.376 16.06 0l-8.03 11.468z"/>
					<path d="m28.662 14l14-14v14z"/>
					<path d="m60.662 0v1h-1c-.554 0-1 .446-1 1v11c0 .554.446 1 1 1h7c.554 0 1-.446 1-1v-11c0-.554-.446-1-1-1h-1v-1h-5"/>
				</g>

				<g style="fill: url(#5320f8769d374d368608f9220cfa270b)">
					<path d="m2.026 5.426c3.605-2.524 8.403-2.524 12.01 0l-6 8.575z"/>
					<path d="m28.662 14l7-7v7z"/>
					<path d="m58.662 7v6c0 .554.446 1 1 1h7c.554 0 1-.446 1-1v-6z"/>

					<path d="m82.71 13h-.879v-9.609l-2.9 1.077v-.82l3.633-1.348h.146v10.701"/>
					<path d="m93.63 13h-6.68v-.674l3.494-3.962c.327-.371.603-.706.828-1 .229-.298.413-.574.549-.828.142-.259.242-.5.3-.725.063-.229.095-.457.095-.681 0-.322-.049-.615-.146-.879-.093-.269-.234-.5-.425-.696-.186-.195-.417-.347-.696-.454-.278-.107-.598-.161-.959-.161-.371 0-.706.063-1 .19-.293.122-.544.293-.754.513-.205.22-.364.481-.476.784-.112.303-.168.632-.168.989h-.872c0-.439.073-.854.22-1.245.151-.391.369-.732.652-1.025.283-.293.625-.525 1.025-.696.405-.171.864-.256 1.377-.256.479 0 .911.066 1.296.198.386.127.713.315.981.564.269.244.474.544.615.901.146.352.22.752.22 1.201 0 .322-.059.647-.176.974-.117.327-.273.652-.469.974-.195.322-.42.642-.674.959-.254.317-.515.63-.784.938l-2.974 3.362h5.603v.74"/>
					<path d="m95.2 12.473c0-.171.054-.315.161-.432.112-.122.266-.183.461-.183.195 0 .349.061.461.183.112.117.168.261.168.432 0 .171-.056.313-.168.425-.112.107-.266.161-.461.161-.195 0-.349-.054-.461-.161-.107-.112-.161-.254-.161-.425m.015-6.76c0-.171.054-.315.161-.432.112-.122.266-.183.461-.183.195 0 .349.061.461.183.112.117.168.261.168.432 0 .171-.056.313-.168.425-.112.107-.266.161-.461.161-.195 0-.349-.054-.461-.161-.107-.112-.161-.254-.161-.425"/>
					<path d="m100.38 7.192h.894c.41 0 .769-.054 1.077-.161.312-.112.574-.261.784-.447.21-.19.366-.41.469-.659.107-.254.161-.522.161-.806 0-.322-.046-.615-.139-.879-.088-.269-.225-.498-.41-.688-.181-.195-.413-.347-.696-.454-.278-.107-.61-.161-.996-.161-.337 0-.647.051-.93.154-.283.103-.53.249-.74.439-.21.19-.374.422-.491.696-.117.269-.176.571-.176.908h-.879c0-.43.081-.825.242-1.187.166-.361.391-.671.674-.93.288-.264.627-.466 1.018-.608.396-.146.823-.22 1.282-.22.469 0 .896.066 1.282.198.386.132.713.325.981.579.273.249.483.557.63.923.151.366.227.786.227 1.26 0 .239-.039.479-.117.718-.078.234-.193.457-.344.667-.151.21-.342.403-.571.579-.229.171-.493.313-.791.425.352.098.654.232.908.403.254.166.461.361.623.586.166.225.288.471.366.74.083.269.124.549.125.842 0 .483-.083.913-.249 1.289-.166.376-.396.696-.688.959-.293.259-.64.457-1.04.593-.4.132-.835.198-1.304.198-.435 0-.857-.063-1.267-.19-.405-.127-.769-.315-1.091-.564-.317-.254-.574-.571-.769-.952-.19-.381-.286-.825-.286-1.333h.879c0 .337.061.647.183.93.127.283.303.527.527.732.225.2.491.356.798.469.313.112.654.168 1.025.168.757 0 1.345-.193 1.765-.579.425-.391.637-.955.637-1.692 0-.386-.066-.718-.198-.996-.127-.278-.31-.505-.549-.681-.234-.181-.518-.312-.85-.396-.327-.083-.691-.125-1.091-.125h-.894v-.747"/>
					<path d="m113.18 8.554c0 .781-.073 1.46-.22 2.036-.146.576-.359 1.055-.637 1.436-.278.376-.62.657-1.025.842-.405.186-.867.278-1.384.278-.513 0-.972-.093-1.377-.278-.405-.186-.75-.466-1.033-.842-.283-.381-.5-.859-.652-1.436-.151-.576-.227-1.255-.227-2.036v-1.802c0-.781.073-1.458.22-2.029.151-.576.366-1.05.645-1.421.283-.376.627-.654 1.033-.835.405-.186.864-.278 1.377-.278.513 0 .972.093 1.377.278.41.181.754.459 1.033.835.283.371.498.845.645 1.421.151.571.227 1.248.227 2.029v1.802m-.879-1.912c0-1.221-.2-2.144-.601-2.769-.396-.625-.996-.937-1.802-.938-.801 0-1.401.313-1.802.938-.4.625-.601 1.548-.601 2.769v2.01c0 .601.051 1.135.154 1.604.103.464.254.857.454 1.179.205.317.459.559.762.725.303.166.652.249 1.047.249.4 0 .749-.083 1.047-.249.303-.166.552-.408.747-.725.2-.322.349-.715.447-1.179.098-.469.146-1 .146-1.604v-2.01"/>
				</g>
			</g>
		</g><g p:type="Shape" p:def="nz.nwatson.AndroidLollipop:SoftKeys" id="24e736cd4f044c339342267bfbc29108" transform="matrix(1,0,0,1,18,709)"><p:metadata><p:property name="box">360,48</p:property><p:property name="fillColor">#000000FF</p:property></p:metadata>

			<rect p:name="bg" id="3d9b2ab2302344d3bcc14f204fe4e922" style="fill: rgb(0, 0, 0); fill-opacity: 1;" width="360" height="48"/>
			<g style="stroke-width: 2px; stroke:#FFFFFF; stroke-opacity:0.9; fill: none;stroke-linejoin:round" p:name="icons" id="d9bc2d96245543d8ad8086b8cb9ba368" transform="translate(72,15)">
				<path d="m202.17 2h12c.554 0 1 .446 1 1v12c0 .554-.446 1-1 1h-12c-.554 0-1-.446-1-1v-12c0-.554.446-1 1-1z"/>
				<path d="m15.168 9c0 10.196 1.286 9.454-7.544 4.356-8.83-5.098-8.83-3.613 0-8.711 8.83-5.098 7.544-5.841 7.544 4.356z"/>
				<path d="m116.17 9c0 4.418-3.582 8-8 8-4.418 0-8-3.582-8-8 0-4.418 3.582-8 8-8 4.418 0 8 3.582 8 8z"/>
			</g>
		</g><g p:type="Shape" p:def="dgthanhan.AndroidNougatWireframe:snackbar" p:sc="Snackbar - no action" id="fdf44e5469504d629455023b3ed31040" transform="matrix(1,0,0,1,18,68)"><p:metadata><p:property name="box">360,56</p:property><p:property name="fillColor">#1D8668FF</p:property><p:property name="radius">0,0</p:property><p:property name="shadowStyle">0|0|0|1</p:property><p:property name="textAlignment">0,1</p:property><p:property name="textColor">#FFFFFFFF</p:property><p:property name="textFont">Android Roboto|500|normal|16px|none</p:property><p:property name="text0">Forgot Your Password?</p:property><p:property name="textColor2">#FFFF00DE</p:property><p:property name="textFont2">Android Roboto|500|normal|14px|none</p:property><p:property name="textAction"/></p:metadata>
      <defs>
        <filter x="-50%" width="200%" y="-50%" height="200%" p:name="rectangle0_shadowFilter" id="71c27856e25544f98b107d9e8e8878c4"><feGaussianBlur in="SourceAlpha" stdDeviation="0"/><feOffset dx="0" dy="0"/><feComponentTransfer><feFuncA type="linear" slope="1"/></feComponentTransfer><feMerge><feMergeNode/><feMergeNode in="SourceGraphic"/></feMerge></filter>
      </defs>
      <g p:filter="url(#71c27856e25544f98b107d9e8e8878c4)" p:name="rectangle0_globalGroup" id="cd5d0f9da0d449f1be61095ec7ee0ac4" filter="url(#71c27856e25544f98b107d9e8e8878c4)">
        <rect p:filter="url(#043614bf39134a0c9a693839a266d5fd)" rx="0" ry="0" style="fill: rgb(29, 134, 104); fill-opacity: 1; stroke: rgb(0, 0, 0); stroke-opacity: 1; stroke-width: 0;" width="360" height="56" p:name="rectangle0" id="20462e31d65b445f98b96d0aa7a38cdc" x="0" y="0"/>
      </g>
      <g p:filter="url(#e22d30b7a4054f35be5d5d70112a8835)" dominant-baseline="auto" p:name="text0text" id="098a6e52735e4005a0e478722e80011e" style="fill: rgb(255, 255, 255); fill-opacity: 1; color: rgb(255, 255, 255); font-family: &quot;Android Roboto&quot;; font-size: 16px; font-weight: 500; font-style: normal; text-decoration: none;"><g transform="translate(0,5)"><text><tspan x="24" y="29" style="font-family: &quot;Android Roboto&quot;; font-size: 16px; font-weight: 500; font-style: normal; text-decoration: none; text-transform: none; fill: rgb(255, 255, 255); background-color: rgba(0, 0, 0, 0);">Forgot Your Password?</tspan></text></g></g>
      <g p:filter="url(#c4b1e4a3bb7c410480808f4a5bec5fac)" dominant-baseline="auto" p:name="textActiontext" id="eb0a3d14fa734c0985af37881b330eb9" style="fill: rgb(255, 255, 0); fill-opacity: 0.870588; color: rgba(255, 255, 0, 0.870588); font-family: &quot;Android Roboto&quot;; font-size: 14px; font-weight: 500; font-style: normal; text-decoration: none;"/>
    </g><g p:type="Shape" p:def="dgthanhan.AndroidNougatWireframe:textview" p:sc="Long body text" id="e8009411ba8d4f53b88634aafa7d0e88" transform="matrix(1,0,0,1,36,151)"><p:metadata><p:property name="box">330,25</p:property><p:property name="textAlignment">0,1</p:property><p:property name="textColor">#666666DE</p:property><p:property name="textFont">Android Roboto|normal|normal|15px|none</p:property><p:property name="text0">Please enter the code below to reset password</p:property><p:property name="shadowStyle">0|0|0|0</p:property></p:metadata>
      <path p:filter="url(#64cd8fd897dd469ea0ef8b37f3b44c46)" d="M 0 0 L 330 0 L 330 25 L 0 25 L 0 0 z" style="fill: rgb(255, 255, 255); fill-opacity: 0; stroke: rgb(0, 0, 0); stroke-opacity: 1; stroke-width: 0;" p:name="pathRect0" id="dec8034af69c43f7a1d3d2f3561dd4eb" rx="0" ry="0" transform="translate(0,0)"/>
      <defs>
        <filter x="-50%" width="200%" y="-50%" height="200%" p:name="text0_shadowFilter" id="14f5beb23cdc42d7b1d279361d842cfe"><feGaussianBlur in="SourceAlpha" stdDeviation="0"/><feOffset dx="0" dy="0"/><feComponentTransfer><feFuncA type="linear" slope="0"/></feComponentTransfer><feMerge><feMergeNode/><feMergeNode in="SourceGraphic"/></feMerge></filter>
      </defs>
      <g p:filter="url(#14f5beb23cdc42d7b1d279361d842cfe)" p:name="text0_globalGroup" id="03c371272d6c4237aae0d9035f9bcd90">
        <g p:filter="url(#868a972c6dae418cb9e0c13f7016efc8)" dominant-baseline="auto" p:name="text0text" id="9b0ecbca9ab14148a1cd4828defc5ea8" style="fill: rgb(102, 102, 102); fill-opacity: 0.870588; color: rgba(102, 102, 102, 0.870588); font-family: &quot;Android Roboto&quot;; font-size: 15px; font-weight: normal; font-style: normal; text-decoration: none;"><g transform="translate(0,4)"><text><tspan x="0" y="14" style="font-family: &quot;Android Roboto&quot;; font-size: 15px; font-weight: normal; font-style: normal; text-decoration: none; text-transform: none; fill: rgba(102, 102, 102, 0.870588); background-color: rgba(0, 0, 0, 0);">Please enter the code below to reset password</tspan></text></g></g>
      </g>
    </g><g p:type="Shape" p:def="dgthanhan.AndroidNougatWireframe:textview" p:sc="Long body text" id="80b4878f18054a2fab3f723689484cea" transform="matrix(1,0,0,1,36,187)"><p:metadata><p:property name="box">330,50</p:property><p:property name="textAlignment">0,1</p:property><p:property name="textColor">#666666DE</p:property><p:property name="textFont">Android Roboto|normal|normal|15px|none</p:property><p:property name="text0">Code to set a new password was sent to locadocapp@gmail.com</p:property><p:property name="shadowStyle">0|0|0|0</p:property></p:metadata>
      <path p:filter="url(#64cd8fd897dd469ea0ef8b37f3b44c46)" d="M 0 0 L 330 0 L 330 50 L 0 50 L 0 0 z" style="fill: rgb(255, 255, 255); fill-opacity: 0; stroke: rgb(0, 0, 0); stroke-opacity: 1; stroke-width: 0;" p:name="pathRect0" id="ddc2d04d799d4301a7b569839258babc" rx="0" ry="0" transform="translate(0,0)"/>
      <defs>
        <filter x="-50%" width="200%" y="-50%" height="200%" p:name="text0_shadowFilter" id="4fb76c6f644c4702a7afbe561576dc61"><feGaussianBlur in="SourceAlpha" stdDeviation="0"/><feOffset dx="0" dy="0"/><feComponentTransfer><feFuncA type="linear" slope="0"/></feComponentTransfer><feMerge><feMergeNode/><feMergeNode in="SourceGraphic"/></feMerge></filter>
      </defs>
      <g p:filter="url(#4fb76c6f644c4702a7afbe561576dc61)" p:name="text0_globalGroup" id="87f5eaddd4844d36b5d32679bfaf18c2">
        <g p:filter="url(#868a972c6dae418cb9e0c13f7016efc8)" dominant-baseline="auto" p:name="text0text" id="076f1825587f4437b78a17014facaa81" style="fill: rgb(102, 102, 102); fill-opacity: 0.870588; color: rgba(102, 102, 102, 0.870588); font-family: &quot;Android Roboto&quot;; font-size: 15px; font-weight: normal; font-style: normal; text-decoration: none;"><g transform="translate(0,7)"><text><tspan x="0" y="14" style="font-family: &quot;Android Roboto&quot;; font-size: 15px; font-weight: normal; font-style: normal; text-decoration: none; text-transform: none; fill: rgba(102, 102, 102, 0.870588); background-color: rgba(0, 0, 0, 0);">Code to set a new password was sent to</tspan><tspan x="0" y="32" style="font-family: &quot;Android Roboto&quot;; font-size: 15px; font-weight: normal; font-style: normal; text-decoration: none; text-transform: none; fill: rgba(102, 102, 102, 0.870588); background-color: rgba(0, 0, 0, 0);">locadocapp@gmail.com</tspan></text></g></g>
      </g>
    </g><g p:type="Shape" p:def="dgthanhan.AndroidNougatWireframe:inputtext-single" p:sc="Input (empty, idle)" id="1a9b4a879f05474ba4620dd46484f84b" transform="matrix(1,0,0,1,36,256)"><p:metadata><p:property name="box">330,48</p:property><p:property name="fillColor">#FFFFFF00</p:property><p:property name="strokeColor">#0000006B</p:property><p:property name="strokeStyle">1|</p:property><p:property name="textAlignment">0,1</p:property><p:property name="textColor">#0000008A</p:property><p:property name="textFont">Android Roboto|normal|normal|16px|none</p:property><p:property name="text1">New Password</p:property><p:property name="textFont2">Android Roboto|normal|normal|12px|none</p:property><p:property name="text0"/><p:property name="vectorImage0ImageData">0,0,data:</p:property><p:property name="iconColor">#000000DE</p:property><p:property name="handle0">0,0</p:property><p:property name="withCaret">false</p:property><p:property name="text2"/></p:metadata>
      <rect p:filter="url(#e0dccf3d615d4998851f568b6dfccdfc)" rx="0" ry="0" style="fill: rgb(255, 255, 255); fill-opacity: 0; stroke: rgb(0, 0, 0); stroke-opacity: 1; stroke-width: 0;" width="330" height="48" p:name="rectangle0" id="63392bc86aef4ee7b12344824be45779" x="0" y="0"/>
      <path p:filter="url(#86497b6d5b04484094a775fd02b75625)" d="M 0 0 M 330 0 M 330 47.5 L 0 47.5 M 0 0" style="fill: rgb(255, 255, 255); fill-opacity: 0; stroke: rgb(0, 0, 0); stroke-opacity: 0.419608; stroke-width: 1;" p:name="pathRect0" id="f9dd1247137a4ceeb58a58c16b39f290" rx="0" ry="0" transform="translate(0,0)"/>
      <g p:filter="url(#87f9b99f3f3d4d35837450fc97771f0e)" dominant-baseline="auto" p:name="text1text" id="b944d6481e0749559560ad93cf7323bd" style="fill: rgb(0, 0, 0); fill-opacity: 0.541176; color: rgba(0, 0, 0, 0.541176); font-family: &quot;Android Roboto&quot;; font-size: 16px; font-weight: normal; font-style: normal; text-decoration: none;"><g transform="translate(0,1)"><text><tspan x="0" y="35" style="font-family: &quot;Android Roboto&quot;; font-size: 16px; font-weight: normal; font-style: normal; text-decoration: none; text-transform: none; fill: rgba(0, 0, 0, 0.541176); background-color: rgba(0, 0, 0, 0);">New Password</tspan></text></g></g>
      <g p:filter="url(#f9a6ee1ae9ed40a48cc3b658399a34f6)" dominant-baseline="auto" p:name="text0text" id="f2112ab515c8490eaa26704b92265dd2" style="fill: rgb(0, 0, 0); fill-opacity: 0.419608; color: rgba(0, 0, 0, 0.419608); font-family: &quot;Android Roboto&quot;; font-size: 12px; font-weight: normal; font-style: normal; text-decoration: none;"/>
      <g p:name="vectorImage0" id="0017f40984c6403799b864da31ab1956" transform="translate(306,16) scale(24,24)">
        <g x="0" y="0" p:name="vectorImage0Image" id="c290047a913d4b4ea4c9ea5e797df428"/>
      </g>
      <rect p:filter="url(#fa3673619023477ea67d906943009364)" rx="0" ry="0" style="fill: rgb(0, 0, 0); fill-opacity: 0.419608; stroke: rgb(0, 0, 0); stroke-opacity: 1; stroke-width: 0; visibility: hidden; display: none;" width="1" height="24" p:name="rectangle1" id="add8c850213641bca4774628396d85d4" x="0" y="18"/>
      <g p:filter="url(#de6d15fb821045af82a3e79330489ca5)" dominant-baseline="auto" p:name="text2text" id="12748c0c90ac447a89bdd153923b7063" style="fill: rgb(0, 0, 0); fill-opacity: 0.419608; color: rgba(0, 0, 0, 0.419608); font-family: &quot;Android Roboto&quot;; font-size: 12px; font-weight: normal; font-style: normal; text-decoration: none;"/>
    </g><g p:type="Shape" p:def="dgthanhan.AndroidNougatWireframe:inputtext-single" p:sc="Input (empty, idle)" id="e34d318e566244c390370d4d2529b7b0" transform="matrix(1,0,0,1,36,316)"><p:metadata><p:property name="box">330,48</p:property><p:property name="fillColor">#FFFFFF00</p:property><p:property name="strokeColor">#0000006B</p:property><p:property name="strokeStyle">1|</p:property><p:property name="textAlignment">0,1</p:property><p:property name="textColor">#0000008A</p:property><p:property name="textFont">Android Roboto|normal|normal|16px|none</p:property><p:property name="text1">Reconfrim New Password</p:property><p:property name="textFont2">Android Roboto|normal|normal|12px|none</p:property><p:property name="text0"/><p:property name="vectorImage0ImageData">0,0,data:</p:property><p:property name="iconColor">#000000DE</p:property><p:property name="handle0">0,0</p:property><p:property name="withCaret">false</p:property><p:property name="text2"/></p:metadata>
      <rect p:filter="url(#e0dccf3d615d4998851f568b6dfccdfc)" rx="0" ry="0" style="fill: rgb(255, 255, 255); fill-opacity: 0; stroke: rgb(0, 0, 0); stroke-opacity: 1; stroke-width: 0;" width="330" height="48" p:name="rectangle0" id="4e4db830b553433d9d38695b3cf32e63" x="0" y="0"/>
      <path p:filter="url(#86497b6d5b04484094a775fd02b75625)" d="M 0 0 M 330 0 M 330 47.5 L 0 47.5 M 0 0" style="fill: rgb(255, 255, 255); fill-opacity: 0; stroke: rgb(0, 0, 0); stroke-opacity: 0.419608; stroke-width: 1;" p:name="pathRect0" id="fc1d0773ea314462bd71a9735950e2ff" rx="0" ry="0" transform="translate(0,0)"/>
      <g p:filter="url(#87f9b99f3f3d4d35837450fc97771f0e)" dominant-baseline="auto" p:name="text1text" id="a05c6edd90d041a19f9ef9bcba333ab3" style="fill: rgb(0, 0, 0); fill-opacity: 0.541176; color: rgba(0, 0, 0, 0.541176); font-family: &quot;Android Roboto&quot;; font-size: 16px; font-weight: normal; font-style: normal; text-decoration: none;"><g transform="translate(0,1)"><text><tspan x="0" y="35" style="font-family: &quot;Android Roboto&quot;; font-size: 16px; font-weight: normal; font-style: normal; text-decoration: none; text-transform: none; fill: rgba(0, 0, 0, 0.541176); background-color: rgba(0, 0, 0, 0);">Reconfrim New Password</tspan></text></g></g>
      <g p:filter="url(#f9a6ee1ae9ed40a48cc3b658399a34f6)" dominant-baseline="auto" p:name="text0text" id="04f3f695405745d7834784e64dfb6a8c" style="fill: rgb(0, 0, 0); fill-opacity: 0.419608; color: rgba(0, 0, 0, 0.419608); font-family: &quot;Android Roboto&quot;; font-size: 12px; font-weight: normal; font-style: normal; text-decoration: none;"/>
      <g p:name="vectorImage0" id="cf0ced09bc4e469f8e2806ca1cbeb7f3" transform="translate(306,16) scale(24,24)">
        <g x="0" y="0" p:name="vectorImage0Image" id="039bc45e70314e2eaf46d52e0f709d76"/>
      </g>
      <rect p:filter="url(#fa3673619023477ea67d906943009364)" rx="0" ry="0" style="fill: rgb(0, 0, 0); fill-opacity: 0.419608; stroke: rgb(0, 0, 0); stroke-opacity: 1; stroke-width: 0; visibility: hidden; display: none;" width="1" height="24" p:name="rectangle1" id="7cf1f91e08e94259bc09a865254ec54f" x="0" y="18"/>
      <g p:filter="url(#de6d15fb821045af82a3e79330489ca5)" dominant-baseline="auto" p:name="text2text" id="bee0c93fb10344b5b57d591d7edcd402" style="fill: rgb(0, 0, 0); fill-opacity: 0.419608; color: rgba(0, 0, 0, 0.419608); font-family: &quot;Android Roboto&quot;; font-size: 12px; font-weight: normal; font-style: normal; text-decoration: none;"/>
    </g><g p:type="Shape" p:def="dgthanhan.AndroidNougatWireframe:inputtext-single" p:sc="Input (empty, idle)" id="4ddb7b156c744232ab4552b6506910f5" transform="matrix(1,0,0,1,36,376)"><p:metadata><p:property name="box">330,48</p:property><p:property name="fillColor">#FFFFFF00</p:property><p:property name="strokeColor">#0000006B</p:property><p:property name="strokeStyle">1|</p:property><p:property name="textAlignment">0,1</p:property><p:property name="textColor">#0000008A</p:property><p:property name="textFont">Android Roboto|normal|normal|16px|none</p:property><p:property name="text1">Verification Code</p:property><p:property name="textFont2">Android Roboto|normal|normal|12px|none</p:property><p:property name="text0"/><p:property name="vectorImage0ImageData">0,0,data:</p:property><p:property name="iconColor">#000000DE</p:property><p:property name="handle0">0,0</p:property><p:property name="withCaret">false</p:property><p:property name="text2"/></p:metadata>
      <rect p:filter="url(#e0dccf3d615d4998851f568b6dfccdfc)" rx="0" ry="0" style="fill: rgb(255, 255, 255); fill-opacity: 0; stroke: rgb(0, 0, 0); stroke-opacity: 1; stroke-width: 0;" width="330" height="48" p:name="rectangle0" id="35448be4b8fc4a51a45538a438a14996" x="0" y="0"/>
      <path p:filter="url(#86497b6d5b04484094a775fd02b75625)" d="M 0 0 M 330 0 M 330 47.5 L 0 47.5 M 0 0" style="fill: rgb(255, 255, 255); fill-opacity: 0; stroke: rgb(0, 0, 0); stroke-opacity: 0.419608; stroke-width: 1;" p:name="pathRect0" id="b15d619e84ce4d44adddf80dbd08f6ef" rx="0" ry="0" transform="translate(0,0)"/>
      <g p:filter="url(#87f9b99f3f3d4d35837450fc97771f0e)" dominant-baseline="auto" p:name="text1text" id="2d17bb44ad1a426db7b61b73f479e02d" style="fill: rgb(0, 0, 0); fill-opacity: 0.541176; color: rgba(0, 0, 0, 0.541176); font-family: &quot;Android Roboto&quot;; font-size: 16px; font-weight: normal; font-style: normal; text-decoration: none;"><g transform="translate(0,1)"><text><tspan x="0" y="35" style="font-family: &quot;Android Roboto&quot;; font-size: 16px; font-weight: normal; font-style: normal; text-decoration: none; text-transform: none; fill: rgba(0, 0, 0, 0.541176); background-color: rgba(0, 0, 0, 0);">Verification Code</tspan></text></g></g>
      <g p:filter="url(#f9a6ee1ae9ed40a48cc3b658399a34f6)" dominant-baseline="auto" p:name="text0text" id="fc647c1a9de44d76b5366c8c56cb729c" style="fill: rgb(0, 0, 0); fill-opacity: 0.419608; color: rgba(0, 0, 0, 0.419608); font-family: &quot;Android Roboto&quot;; font-size: 12px; font-weight: normal; font-style: normal; text-decoration: none;"/>
      <g p:name="vectorImage0" id="3e56a68345ed48f79ea7363bc6445a41" transform="translate(306,16) scale(24,24)">
        <g x="0" y="0" p:name="vectorImage0Image" id="7058427647e044e899197992e5cd748a"/>
      </g>
      <rect p:filter="url(#fa3673619023477ea67d906943009364)" rx="0" ry="0" style="fill: rgb(0, 0, 0); fill-opacity: 0.419608; stroke: rgb(0, 0, 0); stroke-opacity: 1; stroke-width: 0; visibility: hidden; display: none;" width="1" height="24" p:name="rectangle1" id="902743dc26524875acadd7c0eea151bd" x="0" y="18"/>
      <g p:filter="url(#de6d15fb821045af82a3e79330489ca5)" dominant-baseline="auto" p:name="text2text" id="b7c3c983b05c45bd88e6035e9fc3a05b" style="fill: rgb(0, 0, 0); fill-opacity: 0.419608; color: rgba(0, 0, 0, 0.419608); font-family: &quot;Android Roboto&quot;; font-size: 12px; font-weight: normal; font-style: normal; text-decoration: none;"/>
    </g><g p:type="Shape" p:def="dgthanhan.AndroidNougatWireframe:button" p:sc="Raised Button (color)" id="04c5b7eeeb6e49cc81ebfb1531bde242" transform="matrix(1,0,0,1,36,505)"><p:metadata><p:property name="box">330,36</p:property><p:property name="fillColor">#1D8668FF</p:property><p:property name="shadowStyle">0|2|1|0.2</p:property><p:property name="textAlignment">1,1</p:property><p:property name="textColor">#FFFFFFFF</p:property><p:property name="textFont">Android Roboto|500|normal|14px|none</p:property><p:property name="text0">SUBMIT</p:property></p:metadata>
      <defs>
        <filter x="-50%" width="200%" y="-50%" height="200%" p:name="rectangle0_shadowFilter" id="7e3684fd2d5e4f19874874eee7919d16"><feGaussianBlur in="SourceAlpha" stdDeviation="1"/><feOffset dx="0" dy="2"/><feComponentTransfer><feFuncA type="linear" slope="0.2"/></feComponentTransfer><feMerge><feMergeNode/><feMergeNode in="SourceGraphic"/></feMerge></filter>
      </defs>
      <g p:filter="url(#7e3684fd2d5e4f19874874eee7919d16)" p:name="rectangle0_globalGroup" id="11e1f9be2b384c3898ac0d45d78ee973" filter="url(#7e3684fd2d5e4f19874874eee7919d16)">
        <rect p:filter="url(#693639ed38f54eabb6408ec2f6013902)" rx="2" ry="2" style="fill: rgb(29, 134, 104); fill-opacity: 1; stroke: rgb(96, 96, 96); stroke-opacity: 1; stroke-width: 0;" width="330" height="36" p:name="rectangle0" id="c647c263d70d43eaa9c0193df785c10b" x="0" y="0"/>
      </g>
      <g p:filter="url(#9b78d6452edd4ddb95a6408fc9807334)" dominant-baseline="auto" p:name="text0text" id="28d619e4253e4f949a8064d88c446b7b" style="fill: rgb(255, 255, 255); fill-opacity: 1; color: rgb(255, 255, 255); font-family: &quot;Android Roboto&quot;; font-size: 14px; font-weight: 500; font-style: normal; text-decoration: none;"><g transform="translate(0,10)"><text><tspan x="140" y="13" style="font-family: &quot;Android Roboto&quot;; font-size: 14px; font-weight: 500; font-style: normal; text-decoration: none; text-transform: none; fill: rgb(255, 255, 255); background-color: rgba(0, 0, 0, 0);">SUBMIT</tspan></text></g></g>
    </g></g></g></svg>