<svg xmlns="http://www.w3.org/2000/svg" xmlns:p="http://www.evolus.vn/Namespace/Pencil" xmlns:pencil="http://www.evolus.vn/Namespace/Pencil" xmlns:html="http://www.w3.org/1999/xhtml" xmlns:xhtml="http://www.w3.org/1999/xhtml" xmlns:office="urn:oasis:names:tc:opendocument:xmlns:office:1.0" xmlns:style="urn:oasis:names:tc:opendocument:xmlns:style:1.0" xmlns:text="urn:oasis:names:tc:opendocument:xmlns:text:1.0" xmlns:table="urn:oasis:names:tc:opendocument:xmlns:table:1.0" xmlns:draw="urn:oasis:names:tc:opendocument:xmlns:drawing:1.0" xmlns:fo="urn:oasis:names:tc:opendocument:xmlns:xsl-fo-compatible:1.0" xmlns:xlink="http://www.w3.org/1999/xlink" xmlns:dc="http://purl.org/dc/elements/1.1/" xmlns:meta="urn:oasis:names:tc:opendocument:xmlns:meta:1.0" xmlns:number="urn:oasis:names:tc:opendocument:xmlns:datastyle:1.0" xmlns:svg="urn:oasis:names:tc:opendocument:xmlns:svg-compatible:1.0" xmlns:chart="urn:oasis:names:tc:opendocument:xmlns:chart:1.0" xmlns:dr3d="urn:oasis:names:tc:opendocument:xmlns:dr3d:1.0" xmlns:math="http://www.w3.org/1998/Math/MathML" xmlns:form="urn:oasis:names:tc:opendocument:xmlns:form:1.0" xmlns:script="urn:oasis:names:tc:opendocument:xmlns:script:1.0" xmlns:ooo="http://openoffice.org/2004/office" xmlns:ooow="http://openoffice.org/2004/writer" xmlns:oooc="http://openoffice.org/2004/calc" xmlns:dom="http://www.w3.org/2001/xml-events" xmlns:xforms="http://www.w3.org/2002/xforms" xmlns:xsd="http://www.w3.org/2001/XMLSchema" xmlns:xsi="http://www.w3.org/2001/XMLSchema-instance" xmlns:rpt="http://openoffice.org/2005/report" xmlns:of="urn:oasis:names:tc:opendocument:xmlns:of:1.2" xmlns:rdfa="http://docs.oasis-open.org/opendocument/meta/rdfa#" xmlns:field="urn:openoffice:names:experimental:ooo-ms-interop:xmlns:field:1.0" xmlns:regexp="http://exslt.org/regular-expressions" xmlns:em="http://exslt.org/math" xmlns:sodipodi="http://sodipodi.sourceforge.net/DTD/sodipodi-0.dtd" xmlns:inkscape="http://www.inkscape.org/namespaces/inkscape" width="396" height="804" id="exportedSVG" version="1.1" pencil:version="1.2.2" sodipodi:docname="Homepage_fileExplorer_File"><g inkscape:label="Untitled Page" inkscape:groupmode="layer" id="layer_untitled_page"><g><rect x="0" y="0" width="396" height="804" fill="none"/><g p:type="Shape" p:def="nz.nwatson.AndroidLollipop:Card" id="a92011eb04cb44478ac0646b9148b711" transform="matrix(1,0,0,1,18,92)" p:sizing-ox="18" p:sizing-oy="92" p:sizing-ow="360" p:sizing-oh="620"><p:metadata><p:property name="box">360,620</p:property><p:property name="shadow">true</p:property><p:property name="fillColor">#EFEEF0FF</p:property></p:metadata>

			<defs>
				<filter p:name="dropShadow" id="60bfeeec43fe493587016f64fe2aed8c">
					<feFlood flood-opacity="0.35" flood-color="rgb(0,0,0)" result="flood" p:name="flood" id="0c8e5722694042089a8991bbf8caf613"/>
					<feComposite in="flood" in2="SourceGraphic" operator="in"/>
					<feGaussianBlur stdDeviation="2"/>
					<feOffset dx="0" dy="1"/>
				</filter>

				<rect rx="2px" ry="2px" p:name="card" id="36f5f0cc85d842329bebe1cd2ba1b2e2" style="fill: rgb(239, 238, 240); fill-opacity: 1;" height="620" width="360"/>
			</defs>

			<use xlink:href="#36f5f0cc85d842329bebe1cd2ba1b2e2" p:heavy="true" p:filter="url(#60bfeeec43fe493587016f64fe2aed8c)" p:name="shadow" id="c3d829bf541d4f02a580f96aa3805a03" filter="url(#60bfeeec43fe493587016f64fe2aed8c)" style="visibility: visible;"/>
			<use xlink:href="#36f5f0cc85d842329bebe1cd2ba1b2e2"/>

		</g><g p:type="Group" transform="matrix(1,0,0,1,0,0)" id="ecf6299857794f79a5b9b6e0910fcca5" p:sizing-gow="396" p:sizing-goh="804" p:sizing-ox="0" p:sizing-oy="0" p:sizing-ow="396" p:sizing-oh="804"><g p:type="Shape" p:def="nz.nwatson.AndroidLollipop:Phone" id="f6eb2672eb704e8fa711a29d7f3c3c0c" transform="matrix(1,0,0,1,0,3)" p:sizing-ox="0" p:sizing-oy="0" p:sizing-ow="396" p:sizing-oh="798"><p:metadata><p:property name="box">396,798</p:property><p:property name="fillColor">#000000FF</p:property></p:metadata>

			<path p:name="phone" id="ede4f875bc934957a24a9da2dad09b98" d="M 30 12 C 16 14 0 26 0 43 L 0 755 C 0 772 16 784 30 786 C 142 801 254 801 366 786 C 380 784 396 772 396 755 L 396 43 C 396 26 380 14 366 12 C 254 -3 142 -3 30 12 z M 18 68 L 378 68 L 378 708 L 18 708 z" style="fill: rgb(0, 0, 0); fill-opacity: 1;"/>

		</g><g p:type="Shape" p:def="nz.nwatson.AndroidLollipop:NotificationBar" id="63f4ffa68c424cf4b7f2fa36c98d3cf9" transform="matrix(1,0,0,1,18,70)" p:sizing-ox="18" p:sizing-oy="70" p:sizing-ow="360" p:sizing-oh="24"><p:metadata><p:property name="box">360,24</p:property><p:property name="fillColor">#00000025</p:property></p:metadata>

			<defs>
				<linearGradient p:name="statusIconBg" id="8ae61076d12144e28de18cab3e83ad2c">
					<stop style="stop-color:#ffffff;stop-opacity:0.28627452;" offset="0"/>
				</linearGradient>
				<linearGradient p:name="statusIconFg" id="ad82939a227149fa829c76c5f784da02">
					<stop style="stop-color:#ffffff;stop-opacity:0.90196079;" offset="0"/>
				</linearGradient>
			</defs>

			<rect height="24" p:lockH="true" p:name="bg" id="f53eaa864a6f43a48c39977b75deda63" style="fill: rgb(0, 0, 0); fill-opacity: 0.145098;" width="360"/>

			<g p:name="icons" id="c9a58cd8f1eb4ebfa248f261e7eb1fd9" transform="translate(240,5)">

				<g style="fill: url(#8ae61076d12144e28de18cab3e83ad2c)">
					<path d="m0 2.532c4.821-3.376 11.239-3.376 16.06 0l-8.03 11.468z"/>
					<path d="m28.662 14l14-14v14z"/>
					<path d="m60.662 0v1h-1c-.554 0-1 .446-1 1v11c0 .554.446 1 1 1h7c.554 0 1-.446 1-1v-11c0-.554-.446-1-1-1h-1v-1h-5"/>
				</g>

				<g style="fill: url(#ad82939a227149fa829c76c5f784da02)">
					<path d="m2.026 5.426c3.605-2.524 8.403-2.524 12.01 0l-6 8.575z"/>
					<path d="m28.662 14l7-7v7z"/>
					<path d="m58.662 7v6c0 .554.446 1 1 1h7c.554 0 1-.446 1-1v-6z"/>

					<path d="m82.71 13h-.879v-9.609l-2.9 1.077v-.82l3.633-1.348h.146v10.701"/>
					<path d="m93.63 13h-6.68v-.674l3.494-3.962c.327-.371.603-.706.828-1 .229-.298.413-.574.549-.828.142-.259.242-.5.3-.725.063-.229.095-.457.095-.681 0-.322-.049-.615-.146-.879-.093-.269-.234-.5-.425-.696-.186-.195-.417-.347-.696-.454-.278-.107-.598-.161-.959-.161-.371 0-.706.063-1 .19-.293.122-.544.293-.754.513-.205.22-.364.481-.476.784-.112.303-.168.632-.168.989h-.872c0-.439.073-.854.22-1.245.151-.391.369-.732.652-1.025.283-.293.625-.525 1.025-.696.405-.171.864-.256 1.377-.256.479 0 .911.066 1.296.198.386.127.713.315.981.564.269.244.474.544.615.901.146.352.22.752.22 1.201 0 .322-.059.647-.176.974-.117.327-.273.652-.469.974-.195.322-.42.642-.674.959-.254.317-.515.63-.784.938l-2.974 3.362h5.603v.74"/>
					<path d="m95.2 12.473c0-.171.054-.315.161-.432.112-.122.266-.183.461-.183.195 0 .349.061.461.183.112.117.168.261.168.432 0 .171-.056.313-.168.425-.112.107-.266.161-.461.161-.195 0-.349-.054-.461-.161-.107-.112-.161-.254-.161-.425m.015-6.76c0-.171.054-.315.161-.432.112-.122.266-.183.461-.183.195 0 .349.061.461.183.112.117.168.261.168.432 0 .171-.056.313-.168.425-.112.107-.266.161-.461.161-.195 0-.349-.054-.461-.161-.107-.112-.161-.254-.161-.425"/>
					<path d="m100.38 7.192h.894c.41 0 .769-.054 1.077-.161.312-.112.574-.261.784-.447.21-.19.366-.41.469-.659.107-.254.161-.522.161-.806 0-.322-.046-.615-.139-.879-.088-.269-.225-.498-.41-.688-.181-.195-.413-.347-.696-.454-.278-.107-.61-.161-.996-.161-.337 0-.647.051-.93.154-.283.103-.53.249-.74.439-.21.19-.374.422-.491.696-.117.269-.176.571-.176.908h-.879c0-.43.081-.825.242-1.187.166-.361.391-.671.674-.93.288-.264.627-.466 1.018-.608.396-.146.823-.22 1.282-.22.469 0 .896.066 1.282.198.386.132.713.325.981.579.273.249.483.557.63.923.151.366.227.786.227 1.26 0 .239-.039.479-.117.718-.078.234-.193.457-.344.667-.151.21-.342.403-.571.579-.229.171-.493.313-.791.425.352.098.654.232.908.403.254.166.461.361.623.586.166.225.288.471.366.74.083.269.124.549.125.842 0 .483-.083.913-.249 1.289-.166.376-.396.696-.688.959-.293.259-.64.457-1.04.593-.4.132-.835.198-1.304.198-.435 0-.857-.063-1.267-.19-.405-.127-.769-.315-1.091-.564-.317-.254-.574-.571-.769-.952-.19-.381-.286-.825-.286-1.333h.879c0 .337.061.647.183.93.127.283.303.527.527.732.225.2.491.356.798.469.313.112.654.168 1.025.168.757 0 1.345-.193 1.765-.579.425-.391.637-.955.637-1.692 0-.386-.066-.718-.198-.996-.127-.278-.31-.505-.549-.681-.234-.181-.518-.312-.85-.396-.327-.083-.691-.125-1.091-.125h-.894v-.747"/>
					<path d="m113.18 8.554c0 .781-.073 1.46-.22 2.036-.146.576-.359 1.055-.637 1.436-.278.376-.62.657-1.025.842-.405.186-.867.278-1.384.278-.513 0-.972-.093-1.377-.278-.405-.186-.75-.466-1.033-.842-.283-.381-.5-.859-.652-1.436-.151-.576-.227-1.255-.227-2.036v-1.802c0-.781.073-1.458.22-2.029.151-.576.366-1.05.645-1.421.283-.376.627-.654 1.033-.835.405-.186.864-.278 1.377-.278.513 0 .972.093 1.377.278.41.181.754.459 1.033.835.283.371.498.845.645 1.421.151.571.227 1.248.227 2.029v1.802m-.879-1.912c0-1.221-.2-2.144-.601-2.769-.396-.625-.996-.937-1.802-.938-.801 0-1.401.313-1.802.938-.4.625-.601 1.548-.601 2.769v2.01c0 .601.051 1.135.154 1.604.103.464.254.857.454 1.179.205.317.459.559.762.725.303.166.652.249 1.047.249.4 0 .749-.083 1.047-.249.303-.166.552-.408.747-.725.2-.322.349-.715.447-1.179.098-.469.146-1 .146-1.604v-2.01"/>
				</g>
			</g>
		</g><g p:type="Shape" p:def="nz.nwatson.AndroidLollipop:SoftKeys" id="68bf9b8b114046f29690cb54f84f79f6" transform="matrix(1,0,0,1,18,726)" p:sizing-ox="18" p:sizing-oy="726" p:sizing-ow="360" p:sizing-oh="48"><p:metadata><p:property name="box">360,48</p:property><p:property name="fillColor">#000000FF</p:property></p:metadata>

			<rect p:name="bg" id="cb0fd7be543f484997b64f74bfa994b4" style="fill: rgb(0, 0, 0); fill-opacity: 1;" height="48" width="360"/>
			<g style="stroke-width: 2px; stroke:#FFFFFF; stroke-opacity:0.9; fill: none;stroke-linejoin:round" p:name="icons" id="6eb3e557b441413fb3e37762dbd6b80d" transform="translate(72,15)">
				<path d="m202.17 2h12c.554 0 1 .446 1 1v12c0 .554-.446 1-1 1h-12c-.554 0-1-.446-1-1v-12c0-.554.446-1 1-1z"/>
				<path d="m15.168 9c0 10.196 1.286 9.454-7.544 4.356-8.83-5.098-8.83-3.613 0-8.711 8.83-5.098 7.544-5.841 7.544 4.356z"/>
				<path d="m116.17 9c0 4.418-3.582 8-8 8-4.418 0-8-3.582-8-8 0-4.418 3.582-8 8-8 4.418 0 8 3.582 8 8z"/>
			</g>
		</g><g p:type="Shape" p:def="nz.nwatson.AndroidLollipop:NotificationBar" id="50ff590d073a434ea5ac0cebf9ddaa60" transform="matrix(1,0,0,1,18,70)" p:sizing-ox="18" p:sizing-oy="70" p:sizing-ow="360" p:sizing-oh="24"><p:metadata><p:property name="box">360,24</p:property><p:property name="fillColor">#00000025</p:property></p:metadata>

			<defs>
				<linearGradient p:name="statusIconBg" id="14d1e5a0d6c84a6ab39bd9a1150c9544">
					<stop style="stop-color:#ffffff;stop-opacity:0.28627452;" offset="0"/>
				</linearGradient>
				<linearGradient p:name="statusIconFg" id="1079f971b1944ff2b154dd9ccc592e1c">
					<stop style="stop-color:#ffffff;stop-opacity:0.90196079;" offset="0"/>
				</linearGradient>
			</defs>

			<rect height="24" p:lockH="true" p:name="bg" id="d2d6fa64708a4140a816abf839f7ffb3" style="fill: rgb(0, 0, 0); fill-opacity: 0.145098;" width="360"/>

			<g p:name="icons" id="84cc1b48720041dd829dae63d65af828" transform="translate(240,5)">

				<g style="fill: url(#14d1e5a0d6c84a6ab39bd9a1150c9544)">
					<path d="m0 2.532c4.821-3.376 11.239-3.376 16.06 0l-8.03 11.468z"/>
					<path d="m28.662 14l14-14v14z"/>
					<path d="m60.662 0v1h-1c-.554 0-1 .446-1 1v11c0 .554.446 1 1 1h7c.554 0 1-.446 1-1v-11c0-.554-.446-1-1-1h-1v-1h-5"/>
				</g>

				<g style="fill: url(#1079f971b1944ff2b154dd9ccc592e1c)">
					<path d="m2.026 5.426c3.605-2.524 8.403-2.524 12.01 0l-6 8.575z"/>
					<path d="m28.662 14l7-7v7z"/>
					<path d="m58.662 7v6c0 .554.446 1 1 1h7c.554 0 1-.446 1-1v-6z"/>

					<path d="m82.71 13h-.879v-9.609l-2.9 1.077v-.82l3.633-1.348h.146v10.701"/>
					<path d="m93.63 13h-6.68v-.674l3.494-3.962c.327-.371.603-.706.828-1 .229-.298.413-.574.549-.828.142-.259.242-.5.3-.725.063-.229.095-.457.095-.681 0-.322-.049-.615-.146-.879-.093-.269-.234-.5-.425-.696-.186-.195-.417-.347-.696-.454-.278-.107-.598-.161-.959-.161-.371 0-.706.063-1 .19-.293.122-.544.293-.754.513-.205.22-.364.481-.476.784-.112.303-.168.632-.168.989h-.872c0-.439.073-.854.22-1.245.151-.391.369-.732.652-1.025.283-.293.625-.525 1.025-.696.405-.171.864-.256 1.377-.256.479 0 .911.066 1.296.198.386.127.713.315.981.564.269.244.474.544.615.901.146.352.22.752.22 1.201 0 .322-.059.647-.176.974-.117.327-.273.652-.469.974-.195.322-.42.642-.674.959-.254.317-.515.63-.784.938l-2.974 3.362h5.603v.74"/>
					<path d="m95.2 12.473c0-.171.054-.315.161-.432.112-.122.266-.183.461-.183.195 0 .349.061.461.183.112.117.168.261.168.432 0 .171-.056.313-.168.425-.112.107-.266.161-.461.161-.195 0-.349-.054-.461-.161-.107-.112-.161-.254-.161-.425m.015-6.76c0-.171.054-.315.161-.432.112-.122.266-.183.461-.183.195 0 .349.061.461.183.112.117.168.261.168.432 0 .171-.056.313-.168.425-.112.107-.266.161-.461.161-.195 0-.349-.054-.461-.161-.107-.112-.161-.254-.161-.425"/>
					<path d="m100.38 7.192h.894c.41 0 .769-.054 1.077-.161.312-.112.574-.261.784-.447.21-.19.366-.41.469-.659.107-.254.161-.522.161-.806 0-.322-.046-.615-.139-.879-.088-.269-.225-.498-.41-.688-.181-.195-.413-.347-.696-.454-.278-.107-.61-.161-.996-.161-.337 0-.647.051-.93.154-.283.103-.53.249-.74.439-.21.19-.374.422-.491.696-.117.269-.176.571-.176.908h-.879c0-.43.081-.825.242-1.187.166-.361.391-.671.674-.93.288-.264.627-.466 1.018-.608.396-.146.823-.22 1.282-.22.469 0 .896.066 1.282.198.386.132.713.325.981.579.273.249.483.557.63.923.151.366.227.786.227 1.26 0 .239-.039.479-.117.718-.078.234-.193.457-.344.667-.151.21-.342.403-.571.579-.229.171-.493.313-.791.425.352.098.654.232.908.403.254.166.461.361.623.586.166.225.288.471.366.74.083.269.124.549.125.842 0 .483-.083.913-.249 1.289-.166.376-.396.696-.688.959-.293.259-.64.457-1.04.593-.4.132-.835.198-1.304.198-.435 0-.857-.063-1.267-.19-.405-.127-.769-.315-1.091-.564-.317-.254-.574-.571-.769-.952-.19-.381-.286-.825-.286-1.333h.879c0 .337.061.647.183.93.127.283.303.527.527.732.225.2.491.356.798.469.313.112.654.168 1.025.168.757 0 1.345-.193 1.765-.579.425-.391.637-.955.637-1.692 0-.386-.066-.718-.198-.996-.127-.278-.31-.505-.549-.681-.234-.181-.518-.312-.85-.396-.327-.083-.691-.125-1.091-.125h-.894v-.747"/>
					<path d="m113.18 8.554c0 .781-.073 1.46-.22 2.036-.146.576-.359 1.055-.637 1.436-.278.376-.62.657-1.025.842-.405.186-.867.278-1.384.278-.513 0-.972-.093-1.377-.278-.405-.186-.75-.466-1.033-.842-.283-.381-.5-.859-.652-1.436-.151-.576-.227-1.255-.227-2.036v-1.802c0-.781.073-1.458.22-2.029.151-.576.366-1.05.645-1.421.283-.376.627-.654 1.033-.835.405-.186.864-.278 1.377-.278.513 0 .972.093 1.377.278.41.181.754.459 1.033.835.283.371.498.845.645 1.421.151.571.227 1.248.227 2.029v1.802m-.879-1.912c0-1.221-.2-2.144-.601-2.769-.396-.625-.996-.937-1.802-.938-.801 0-1.401.313-1.802.938-.4.625-.601 1.548-.601 2.769v2.01c0 .601.051 1.135.154 1.604.103.464.254.857.454 1.179.205.317.459.559.762.725.303.166.652.249 1.047.249.4 0 .749-.083 1.047-.249.303-.166.552-.408.747-.725.2-.322.349-.715.447-1.179.098-.469.146-1 .146-1.604v-2.01"/>
				</g>
			</g>
		</g><g p:type="Shape" p:def="nz.nwatson.AndroidLollipop:NotificationBar" id="8ff74bd9553e45949f283ca70b8684ce" transform="matrix(1,0,0,1,18,70)" p:sizing-ox="18" p:sizing-oy="70" p:sizing-ow="360" p:sizing-oh="24"><p:metadata><p:property name="box">360,24</p:property><p:property name="fillColor">#00000025</p:property></p:metadata>

			<defs>
				<linearGradient p:name="statusIconBg" id="21272f33c7ab4dcbb397b91aaada02d2">
					<stop style="stop-color:#ffffff;stop-opacity:0.28627452;" offset="0"/>
				</linearGradient>
				<linearGradient p:name="statusIconFg" id="8d070465a6434ddeb7f0331895fe615b">
					<stop style="stop-color:#ffffff;stop-opacity:0.90196079;" offset="0"/>
				</linearGradient>
			</defs>

			<rect height="24" p:lockH="true" p:name="bg" id="90fc0c17cf8b46d09d6cdf21149e5ce0" style="fill: rgb(0, 0, 0); fill-opacity: 0.145098;" width="360"/>

			<g p:name="icons" id="d2740d74d03e4a549c4cef5c2004c15f" transform="translate(240,5)">

				<g style="fill: url(#21272f33c7ab4dcbb397b91aaada02d2)">
					<path d="m0 2.532c4.821-3.376 11.239-3.376 16.06 0l-8.03 11.468z"/>
					<path d="m28.662 14l14-14v14z"/>
					<path d="m60.662 0v1h-1c-.554 0-1 .446-1 1v11c0 .554.446 1 1 1h7c.554 0 1-.446 1-1v-11c0-.554-.446-1-1-1h-1v-1h-5"/>
				</g>

				<g style="fill: url(#8d070465a6434ddeb7f0331895fe615b)">
					<path d="m2.026 5.426c3.605-2.524 8.403-2.524 12.01 0l-6 8.575z"/>
					<path d="m28.662 14l7-7v7z"/>
					<path d="m58.662 7v6c0 .554.446 1 1 1h7c.554 0 1-.446 1-1v-6z"/>

					<path d="m82.71 13h-.879v-9.609l-2.9 1.077v-.82l3.633-1.348h.146v10.701"/>
					<path d="m93.63 13h-6.68v-.674l3.494-3.962c.327-.371.603-.706.828-1 .229-.298.413-.574.549-.828.142-.259.242-.5.3-.725.063-.229.095-.457.095-.681 0-.322-.049-.615-.146-.879-.093-.269-.234-.5-.425-.696-.186-.195-.417-.347-.696-.454-.278-.107-.598-.161-.959-.161-.371 0-.706.063-1 .19-.293.122-.544.293-.754.513-.205.22-.364.481-.476.784-.112.303-.168.632-.168.989h-.872c0-.439.073-.854.22-1.245.151-.391.369-.732.652-1.025.283-.293.625-.525 1.025-.696.405-.171.864-.256 1.377-.256.479 0 .911.066 1.296.198.386.127.713.315.981.564.269.244.474.544.615.901.146.352.22.752.22 1.201 0 .322-.059.647-.176.974-.117.327-.273.652-.469.974-.195.322-.42.642-.674.959-.254.317-.515.63-.784.938l-2.974 3.362h5.603v.74"/>
					<path d="m95.2 12.473c0-.171.054-.315.161-.432.112-.122.266-.183.461-.183.195 0 .349.061.461.183.112.117.168.261.168.432 0 .171-.056.313-.168.425-.112.107-.266.161-.461.161-.195 0-.349-.054-.461-.161-.107-.112-.161-.254-.161-.425m.015-6.76c0-.171.054-.315.161-.432.112-.122.266-.183.461-.183.195 0 .349.061.461.183.112.117.168.261.168.432 0 .171-.056.313-.168.425-.112.107-.266.161-.461.161-.195 0-.349-.054-.461-.161-.107-.112-.161-.254-.161-.425"/>
					<path d="m100.38 7.192h.894c.41 0 .769-.054 1.077-.161.312-.112.574-.261.784-.447.21-.19.366-.41.469-.659.107-.254.161-.522.161-.806 0-.322-.046-.615-.139-.879-.088-.269-.225-.498-.41-.688-.181-.195-.413-.347-.696-.454-.278-.107-.61-.161-.996-.161-.337 0-.647.051-.93.154-.283.103-.53.249-.74.439-.21.19-.374.422-.491.696-.117.269-.176.571-.176.908h-.879c0-.43.081-.825.242-1.187.166-.361.391-.671.674-.93.288-.264.627-.466 1.018-.608.396-.146.823-.22 1.282-.22.469 0 .896.066 1.282.198.386.132.713.325.981.579.273.249.483.557.63.923.151.366.227.786.227 1.26 0 .239-.039.479-.117.718-.078.234-.193.457-.344.667-.151.21-.342.403-.571.579-.229.171-.493.313-.791.425.352.098.654.232.908.403.254.166.461.361.623.586.166.225.288.471.366.74.083.269.124.549.125.842 0 .483-.083.913-.249 1.289-.166.376-.396.696-.688.959-.293.259-.64.457-1.04.593-.4.132-.835.198-1.304.198-.435 0-.857-.063-1.267-.19-.405-.127-.769-.315-1.091-.564-.317-.254-.574-.571-.769-.952-.19-.381-.286-.825-.286-1.333h.879c0 .337.061.647.183.93.127.283.303.527.527.732.225.2.491.356.798.469.313.112.654.168 1.025.168.757 0 1.345-.193 1.765-.579.425-.391.637-.955.637-1.692 0-.386-.066-.718-.198-.996-.127-.278-.31-.505-.549-.681-.234-.181-.518-.312-.85-.396-.327-.083-.691-.125-1.091-.125h-.894v-.747"/>
					<path d="m113.18 8.554c0 .781-.073 1.46-.22 2.036-.146.576-.359 1.055-.637 1.436-.278.376-.62.657-1.025.842-.405.186-.867.278-1.384.278-.513 0-.972-.093-1.377-.278-.405-.186-.75-.466-1.033-.842-.283-.381-.5-.859-.652-1.436-.151-.576-.227-1.255-.227-2.036v-1.802c0-.781.073-1.458.22-2.029.151-.576.366-1.05.645-1.421.283-.376.627-.654 1.033-.835.405-.186.864-.278 1.377-.278.513 0 .972.093 1.377.278.41.181.754.459 1.033.835.283.371.498.845.645 1.421.151.571.227 1.248.227 2.029v1.802m-.879-1.912c0-1.221-.2-2.144-.601-2.769-.396-.625-.996-.937-1.802-.938-.801 0-1.401.313-1.802.938-.4.625-.601 1.548-.601 2.769v2.01c0 .601.051 1.135.154 1.604.103.464.254.857.454 1.179.205.317.459.559.762.725.303.166.652.249 1.047.249.4 0 .749-.083 1.047-.249.303-.166.552-.408.747-.725.2-.322.349-.715.447-1.179.098-.469.146-1 .146-1.604v-2.01"/>
				</g>
			</g>
		</g><g p:type="Shape" p:def="nz.nwatson.AndroidLollipop:NotificationBar" id="4964ebb7b3394626af15f92a7778ea85" transform="matrix(1,0,0,1,18,70)" p:sizing-ox="18" p:sizing-oy="70" p:sizing-ow="360" p:sizing-oh="24"><p:metadata><p:property name="box">360,24</p:property><p:property name="fillColor">#00000025</p:property></p:metadata>

			<defs>
				<linearGradient p:name="statusIconBg" id="0ca6541659a742349b73e2435ae5ce69">
					<stop style="stop-color:#ffffff;stop-opacity:0.28627452;" offset="0"/>
				</linearGradient>
				<linearGradient p:name="statusIconFg" id="d66ace11517d44418a52b043d2744e66">
					<stop style="stop-color:#ffffff;stop-opacity:0.90196079;" offset="0"/>
				</linearGradient>
			</defs>

			<rect height="24" p:lockH="true" p:name="bg" id="184199140a1f45899bf8a39394dc2ae6" style="fill: rgb(0, 0, 0); fill-opacity: 0.145098;" width="360"/>

			<g p:name="icons" id="c6cb9c0379f34680a8c3efccb23a506a" transform="translate(240,5)">

				<g style="fill: url(#0ca6541659a742349b73e2435ae5ce69)">
					<path d="m0 2.532c4.821-3.376 11.239-3.376 16.06 0l-8.03 11.468z"/>
					<path d="m28.662 14l14-14v14z"/>
					<path d="m60.662 0v1h-1c-.554 0-1 .446-1 1v11c0 .554.446 1 1 1h7c.554 0 1-.446 1-1v-11c0-.554-.446-1-1-1h-1v-1h-5"/>
				</g>

				<g style="fill: url(#d66ace11517d44418a52b043d2744e66)">
					<path d="m2.026 5.426c3.605-2.524 8.403-2.524 12.01 0l-6 8.575z"/>
					<path d="m28.662 14l7-7v7z"/>
					<path d="m58.662 7v6c0 .554.446 1 1 1h7c.554 0 1-.446 1-1v-6z"/>

					<path d="m82.71 13h-.879v-9.609l-2.9 1.077v-.82l3.633-1.348h.146v10.701"/>
					<path d="m93.63 13h-6.68v-.674l3.494-3.962c.327-.371.603-.706.828-1 .229-.298.413-.574.549-.828.142-.259.242-.5.3-.725.063-.229.095-.457.095-.681 0-.322-.049-.615-.146-.879-.093-.269-.234-.5-.425-.696-.186-.195-.417-.347-.696-.454-.278-.107-.598-.161-.959-.161-.371 0-.706.063-1 .19-.293.122-.544.293-.754.513-.205.22-.364.481-.476.784-.112.303-.168.632-.168.989h-.872c0-.439.073-.854.22-1.245.151-.391.369-.732.652-1.025.283-.293.625-.525 1.025-.696.405-.171.864-.256 1.377-.256.479 0 .911.066 1.296.198.386.127.713.315.981.564.269.244.474.544.615.901.146.352.22.752.22 1.201 0 .322-.059.647-.176.974-.117.327-.273.652-.469.974-.195.322-.42.642-.674.959-.254.317-.515.63-.784.938l-2.974 3.362h5.603v.74"/>
					<path d="m95.2 12.473c0-.171.054-.315.161-.432.112-.122.266-.183.461-.183.195 0 .349.061.461.183.112.117.168.261.168.432 0 .171-.056.313-.168.425-.112.107-.266.161-.461.161-.195 0-.349-.054-.461-.161-.107-.112-.161-.254-.161-.425m.015-6.76c0-.171.054-.315.161-.432.112-.122.266-.183.461-.183.195 0 .349.061.461.183.112.117.168.261.168.432 0 .171-.056.313-.168.425-.112.107-.266.161-.461.161-.195 0-.349-.054-.461-.161-.107-.112-.161-.254-.161-.425"/>
					<path d="m100.38 7.192h.894c.41 0 .769-.054 1.077-.161.312-.112.574-.261.784-.447.21-.19.366-.41.469-.659.107-.254.161-.522.161-.806 0-.322-.046-.615-.139-.879-.088-.269-.225-.498-.41-.688-.181-.195-.413-.347-.696-.454-.278-.107-.61-.161-.996-.161-.337 0-.647.051-.93.154-.283.103-.53.249-.74.439-.21.19-.374.422-.491.696-.117.269-.176.571-.176.908h-.879c0-.43.081-.825.242-1.187.166-.361.391-.671.674-.93.288-.264.627-.466 1.018-.608.396-.146.823-.22 1.282-.22.469 0 .896.066 1.282.198.386.132.713.325.981.579.273.249.483.557.63.923.151.366.227.786.227 1.26 0 .239-.039.479-.117.718-.078.234-.193.457-.344.667-.151.21-.342.403-.571.579-.229.171-.493.313-.791.425.352.098.654.232.908.403.254.166.461.361.623.586.166.225.288.471.366.74.083.269.124.549.125.842 0 .483-.083.913-.249 1.289-.166.376-.396.696-.688.959-.293.259-.64.457-1.04.593-.4.132-.835.198-1.304.198-.435 0-.857-.063-1.267-.19-.405-.127-.769-.315-1.091-.564-.317-.254-.574-.571-.769-.952-.19-.381-.286-.825-.286-1.333h.879c0 .337.061.647.183.93.127.283.303.527.527.732.225.2.491.356.798.469.313.112.654.168 1.025.168.757 0 1.345-.193 1.765-.579.425-.391.637-.955.637-1.692 0-.386-.066-.718-.198-.996-.127-.278-.31-.505-.549-.681-.234-.181-.518-.312-.85-.396-.327-.083-.691-.125-1.091-.125h-.894v-.747"/>
					<path d="m113.18 8.554c0 .781-.073 1.46-.22 2.036-.146.576-.359 1.055-.637 1.436-.278.376-.62.657-1.025.842-.405.186-.867.278-1.384.278-.513 0-.972-.093-1.377-.278-.405-.186-.75-.466-1.033-.842-.283-.381-.5-.859-.652-1.436-.151-.576-.227-1.255-.227-2.036v-1.802c0-.781.073-1.458.22-2.029.151-.576.366-1.05.645-1.421.283-.376.627-.654 1.033-.835.405-.186.864-.278 1.377-.278.513 0 .972.093 1.377.278.41.181.754.459 1.033.835.283.371.498.845.645 1.421.151.571.227 1.248.227 2.029v1.802m-.879-1.912c0-1.221-.2-2.144-.601-2.769-.396-.625-.996-.937-1.802-.938-.801 0-1.401.313-1.802.938-.4.625-.601 1.548-.601 2.769v2.01c0 .601.051 1.135.154 1.604.103.464.254.857.454 1.179.205.317.459.559.762.725.303.166.652.249 1.047.249.4 0 .749-.083 1.047-.249.303-.166.552-.408.747-.725.2-.322.349-.715.447-1.179.098-.469.146-1 .146-1.604v-2.01"/>
				</g>
			</g>
		</g></g><g p:type="Shape" p:def="dgthanhan.AndroidNougatWireframe:titlebar" id="c746840e349f4953a880f3d7e91d5b3f" transform="matrix(1,0,0,1,18,92)"><p:metadata><p:property name="box">360,50</p:property><p:property name="fillColor">#1D8668FF</p:property><p:property name="strokeColor">#616161FF</p:property><p:property name="strokeStyle">0|</p:property><p:property name="shadowStyle">0|0|4|0.5</p:property><p:property name="textColor">#FFFFFFFF</p:property><p:property name="vectorImage0ImageData">48,48,ref://e6046f7ee9e9b6c1d2599efabf998cca_svg</p:property><p:property name="textAlignment">0,1</p:property><p:property name="textFont">Android Roboto|500|normal|20px|none</p:property><p:property name="text0">LocAdoc</p:property><p:property name="vectorImage1ImageData">0,0,data:</p:property><p:property name="Icon2ImageData">24,24,ref://7058998f912946cc2a514d6563596e67_svg</p:property><p:property name="vectorImage3ImageData">18,18,ref://8684bd32a2376206a1b3bf9e100f76ba_svg</p:property><p:property name="navigationMode">menu</p:property><p:property name="withShadow">true</p:property></p:metadata>
      <defs>
        <clipPath p:name="sbDefaultClipPath" id="4d54cd8f734d4c6eb953b78527dcd7a5">
          <rect p:filter="url(#1d9f477a13134f5c9934d1b20111349f)" rx="0" ry="0" style="fill: rgb(0, 0, 0); fill-opacity: 0.211765; stroke: rgb(96, 96, 96); stroke-opacity: 1; stroke-width: 0;" width="360" height="71" p:name="rectangle2" id="5d0ecfd9d64847619d837d718a322931" x="0" y="0"/>
        </clipPath>
      </defs>
      <g style="clip-path: url(#4d54cd8f734d4c6eb953b78527dcd7a5);">
        <defs>
          <filter x="-50%" width="200%" y="-50%" height="200%" p:name="rectangle1_shadowFilter" id="64f86ad05ed64acb8ca24632b28caa0d"><feGaussianBlur in="SourceAlpha" stdDeviation="4"/><feOffset dx="0" dy="0"/><feComponentTransfer><feFuncA type="linear" slope="0.5"/></feComponentTransfer><feMerge><feMergeNode/><feMergeNode in="SourceGraphic"/></feMerge></filter>
        </defs>
        <g p:filter="url(#64f86ad05ed64acb8ca24632b28caa0d)" p:name="rectangle1_globalGroup" id="f5fd714d042048f28b36c0f22ab79324" filter="url(#64f86ad05ed64acb8ca24632b28caa0d)">
          <rect p:filter="url(#f04ac383c86c42c2b11d990270b16374)" rx="0" ry="0" style="fill: rgb(29, 134, 104); fill-opacity: 1; stroke: rgb(97, 97, 97); stroke-opacity: 1; stroke-width: 0; visibility: visible;" width="394" height="50" p:name="rectangle1" id="50f3c062a39e4014a3ce606dcc5a18d1" x="-15" y="0"/>
        </g>
      </g>
      <rect p:filter="url(#52300623fbae4b1c9a7e29d8d85af51f)" rx="0" ry="0" style="fill: rgb(29, 134, 104); fill-opacity: 1; stroke: rgb(97, 97, 97); stroke-opacity: 1; stroke-width: 0;" width="360" height="50" p:name="rectangle0" id="35e445ae39a34786986012b17ce51e8d" x="0" y="0"/>
      <g p:name="vectorImage0" id="876169a347264ee3a2b037d9db37cca7" transform="translate(16,13) scale(0.5,0.5)" style="visibility: visible;">
        <g x="0" y="0" p:name="vectorImage0Image" id="40cf17bb1c834ed8948a40b7b5c4bd04"><g><path d="M6 36h36v-4H6v4zm0-10h36v-4H6v4zm0-14v4h36v-4H6z" fill="rgba(255, 255, 255, 1)" style="fill: rgb(255, 255, 255);"/></g></g>
      </g>
      <g p:filter="url(#ad77eed9e50d4aaa8a51e572fabeb2f1)" dominant-baseline="auto" p:name="text0text" id="60aab503d6254156b2f40f6831fb9655" style="fill: rgb(255, 255, 255); fill-opacity: 1; color: rgb(255, 255, 255); font-family: &quot;Android Roboto&quot;; font-size: 20px; font-weight: 500; font-style: normal; text-decoration: none;"><g transform="translate(0,0)"><text><tspan x="72" y="32" style="font-family: &quot;Android Roboto&quot;; font-size: 20px; font-weight: 500; font-style: normal; text-decoration: none; text-transform: none; fill: rgb(255, 255, 255); background-color: rgba(0, 0, 0, 0);">LocAdoc</tspan></text></g></g>
      <g p:name="vectorImage1" id="50321a4f282248f3b8d3f3778292250f" transform="translate(276,13) scale(24,24)">
        <g x="0" y="0" p:name="vectorImage1Image" id="8a0654dece024e4f89cb7aeb93f0460e"/>
      </g>
      <g p:name="Icon2" id="afdf33afce5b4a0f967c81bbafb9514b" transform="translate(324,13) scale(1,1)">
        <g x="0" y="0" p:name="Icon2Image" id="4c396bca68f74454bc069ce67deeb1fc"><g><path d="M15.5 14h-.79l-.28-.27C15.41 12.59 16 11.11 16 9.5 16 5.91 13.09 3 9.5 3S3 5.91 3 9.5 5.91 16 9.5 16c1.61 0 3.09-.59 4.23-1.57l.27.28v.79l5 4.99L20.49 19l-4.99-5zm-6 0C7.01 14 5 11.99 5 9.5S7.01 5 9.5 5 14 7.01 14 9.5 11.99 14 9.5 14z" fill="rgba(255, 255, 255, 1)" style="fill: rgb(255, 255, 255);"/></g></g>
      </g>
      <g p:name="vectorImage3" id="eb80e959639b445d897527358fe64095" transform="translate(16,13) scale(1.3333333333333333,1.3333333333333333)" style="visibility: hidden; display: none;">
        <g x="0" y="0" p:name="vectorImage3Image" id="587dca6bcf174d0f9019931f10dda373"><g><path d="M15 8.25H5.87l4.19-4.19L9 3 3 9l6 6 1.06-1.06-4.19-4.19H15v-1.5z" fill="rgba(255, 255, 255, 1)" style="fill: rgb(255, 255, 255);"/></g></g>
      </g>
    </g><g p:type="Shape" p:def="dgthanhan.AndroidNougatWireframe:avatar" p:sc="Avatar - letter inverted" id="528fe392cab241a6b0ba060ed5fbfeba" transform="matrix(1,0,0,1,32,655)" p:sizing-ox="0" p:sizing-oy="0" p:sizing-ow="40" p:sizing-oh="40"><p:metadata><p:property name="box">40,40</p:property><p:property name="fillColor">#1D8668FF</p:property><p:property name="bitmap0ImageData">0,0,data:</p:property><p:property name="textColor">#FFFFFFDE</p:property><p:property name="textFont">Arial|bold|normal|14px|none</p:property><p:property name="text2"/></p:metadata>
      <defs>
        <clipPath p:name="avatarClipPath" id="ce1a48e667b542089134b04a5c9571a5">
          <rect p:filter="url(#5cb7632a055847a5969063875af1752f)" rx="20" ry="20" style="fill: rgb(0, 0, 0); fill-opacity: 0.329412; stroke: rgb(0, 0, 0); stroke-opacity: 1; stroke-width: 0;" height="40" width="40" p:name="rectangle3" id="21c07fe289e8476aa6937a63659b24f5" x="0" y="0"/>
        </clipPath>
      </defs>
      <g style="clip-path: url(#ce1a48e667b542089134b04a5c9571a5);">
        <rect p:filter="url(#8616f614321d4e35b757e6283a3f6dd1)" rx="0" ry="0" style="fill: rgb(29, 134, 104); fill-opacity: 1; stroke: rgb(0, 0, 0); stroke-opacity: 1; stroke-width: 0;" height="40" width="40" p:name="rectangle0" id="3e84d9a2d1ae4ac8827af07d9d91f8c6" x="0" y="0"/>
      </g>
      <g style="clip-path: url(#ce1a48e667b542089134b04a5c9571a5);">
        <g p:name="bitmap0" id="6ba84fe65cad406ea8532b24fa8e605e" transform="translate(0,0) scale(Infinity,Infinity)" style="visibility: visible;">
          <image x="0" y="0" p:name="bitmap0image" id="482691705c1d4ca8bcd558c54642d42a" xlink:href="" width="0" height="0"/>
        </g>
      </g>
      <g p:filter="url(#f428dbf8eab9407597e1fccd4ad24b86)" dominant-baseline="auto" p:name="text2text" id="ea5bc04c7cf44759b8c0c997291f390e" style="fill: rgb(255, 255, 255); fill-opacity: 0.870588; color: rgba(255, 255, 255, 0.870588); font-family: Arial; font-size: 14px; font-weight: bold; font-style: normal; text-decoration: none;"/>
    </g><g p:type="Shape" p:def="nz.nwatson.MaterialIcons:arrow-left" id="a8626eca4c2c4841a5e0be39ad6fa4bc" transform="matrix(1,0,0,1,40,663)"><p:metadata><p:property name="box">24,24</p:property><p:property name="fillColor">#FFFFFFFF</p:property></p:metadata>
      <rect style="fill: #000000; fill-opacity: 0; stroke: none;" x="0" y="0" p:name="bgRect" id="5d3bd42c569e4a4ab09f970a08a34175" width="24" height="24"/>
      <g p:name="icon" id="7bcb162e508c4db9835eaa2d99faf76d" transform="scale(1,1)" style="fill: rgb(255, 255, 255); fill-opacity: 1;">
        <path stroke-width="0.2" stroke-linejoin="round" d="M 20,11L 20,13L 7.98958,13L 13.4948,18.5052L 12.0806,19.9194L 4.16116,12L 12.0806,4.08058L 13.4948,5.49479L 7.98958,11L 20,11 Z "/>
      </g>
    </g><g p:type="Shape" p:def="dgthanhan.AndroidNougatWireframe:inputtext-single" p:sc="Input (empty, idle)" id="77e6eec99e484aad812b1d09b55ca584" transform="matrix(1,0,0,1,33,142)"><p:metadata><p:property name="box">330,48</p:property><p:property name="fillColor">#FFFFFF00</p:property><p:property name="strokeColor">#0000006B</p:property><p:property name="strokeStyle">1|</p:property><p:property name="textAlignment">0,1</p:property><p:property name="textColor">#666666FF</p:property><p:property name="textFont">Android Roboto|500|normal|16px|none</p:property><p:property name="text1">Lecture1_1.pdf</p:property><p:property name="textFont2">Android Roboto|normal|normal|12px|none</p:property><p:property name="text0"/><p:property name="vectorImage0ImageData">0,0,data:</p:property><p:property name="iconColor">#000000DE</p:property><p:property name="handle0">0,0</p:property><p:property name="withCaret">false</p:property><p:property name="text2"/></p:metadata>
      <rect p:filter="url(#e0dccf3d615d4998851f568b6dfccdfc)" rx="0" ry="0" style="fill: rgb(255, 255, 255); fill-opacity: 0; stroke: rgb(0, 0, 0); stroke-opacity: 1; stroke-width: 0;" width="330" height="48" p:name="rectangle0" id="1873a2f275cc4150830c8b02878f210a" x="0" y="0"/>
      <path p:filter="url(#86497b6d5b04484094a775fd02b75625)" d="M 0 0 M 330 0 M 330 47.5 L 0 47.5 M 0 0" style="fill: rgb(255, 255, 255); fill-opacity: 0; stroke: rgb(0, 0, 0); stroke-opacity: 0.419608; stroke-width: 1;" p:name="pathRect0" id="599f38ecf63043408567a90368ab1ad5" rx="0" ry="0" transform="translate(0,0)"/>
      <g p:filter="url(#87f9b99f3f3d4d35837450fc97771f0e)" dominant-baseline="auto" p:name="text1text" id="49ee4b9160bd4d039e80171adf2fb303" style="fill: rgb(102, 102, 102); fill-opacity: 1; color: rgb(102, 102, 102); font-family: &quot;Android Roboto&quot;; font-size: 16px; font-weight: 500; font-style: normal; text-decoration: none;"><g transform="translate(0,1)"><text><tspan x="0" y="35" style="font-family: &quot;Android Roboto&quot;; font-size: 16px; font-weight: 500; font-style: normal; text-decoration: none; text-transform: none; fill: rgb(102, 102, 102); background-color: rgba(0, 0, 0, 0);">Lecture1_1.pdf</tspan></text></g></g>
      <g p:filter="url(#f9a6ee1ae9ed40a48cc3b658399a34f6)" dominant-baseline="auto" p:name="text0text" id="2c9435c129b74a338fd7a3b8f2272250" style="fill: rgb(0, 0, 0); fill-opacity: 0.419608; color: rgba(0, 0, 0, 0.419608); font-family: &quot;Android Roboto&quot;; font-size: 12px; font-weight: normal; font-style: normal; text-decoration: none;"/>
      <g p:name="vectorImage0" id="074de848bb994e72939895af3f97aa3d" transform="translate(306,16) scale(24,24)">
        <g x="0" y="0" p:name="vectorImage0Image" id="0d6aaf174f2c40aa9b6b353672c36856"/>
      </g>
      <rect p:filter="url(#fa3673619023477ea67d906943009364)" rx="0" ry="0" style="fill: rgb(0, 0, 0); fill-opacity: 0.419608; stroke: rgb(0, 0, 0); stroke-opacity: 1; stroke-width: 0; visibility: hidden; display: none;" width="1" height="24" p:name="rectangle1" id="eac80859136d4ee99e73194ff75b9bf7" x="0" y="18"/>
      <g p:filter="url(#de6d15fb821045af82a3e79330489ca5)" dominant-baseline="auto" p:name="text2text" id="7a5e9137f7e74d78af528f3ef59024a4" style="fill: rgb(0, 0, 0); fill-opacity: 0.419608; color: rgba(0, 0, 0, 0.419608); font-family: &quot;Android Roboto&quot;; font-size: 12px; font-weight: normal; font-style: normal; text-decoration: none;"/>
    </g><g p:type="Shape" p:def="dgthanhan.AndroidNougatWireframe:inputtext-single" p:sc="Input (empty, idle)" id="b91e4e75a9f141a79326c54dc9cc0967" transform="matrix(1,0,0,1,33,190)"><p:metadata><p:property name="box">330,48</p:property><p:property name="fillColor">#FFFFFF00</p:property><p:property name="strokeColor">#0000006B</p:property><p:property name="strokeStyle">1|</p:property><p:property name="textAlignment">0,1</p:property><p:property name="textColor">#666666FF</p:property><p:property name="textFont">Android Roboto|500|normal|16px|none</p:property><p:property name="text1">Lecture2_1.pdf</p:property><p:property name="textFont2">Android Roboto|normal|normal|12px|none</p:property><p:property name="text0"/><p:property name="vectorImage0ImageData">0,0,data:</p:property><p:property name="iconColor">#000000DE</p:property><p:property name="handle0">0,0</p:property><p:property name="withCaret">false</p:property><p:property name="text2"/></p:metadata>
      <rect p:filter="url(#e0dccf3d615d4998851f568b6dfccdfc)" rx="0" ry="0" style="fill: rgb(255, 255, 255); fill-opacity: 0; stroke: rgb(0, 0, 0); stroke-opacity: 1; stroke-width: 0;" width="330" height="48" p:name="rectangle0" id="6762f7d8db2c47ee86dc53b749a2876c" x="0" y="0"/>
      <path p:filter="url(#86497b6d5b04484094a775fd02b75625)" d="M 0 0 M 330 0 M 330 47.5 L 0 47.5 M 0 0" style="fill: rgb(255, 255, 255); fill-opacity: 0; stroke: rgb(0, 0, 0); stroke-opacity: 0.419608; stroke-width: 1;" p:name="pathRect0" id="f1d8b4c856724cc1b47d1254c744191c" rx="0" ry="0" transform="translate(0,0)"/>
      <g p:filter="url(#87f9b99f3f3d4d35837450fc97771f0e)" dominant-baseline="auto" p:name="text1text" id="d5b2b7877aa74de09de5ad1f5037ea04" style="fill: rgb(102, 102, 102); fill-opacity: 1; color: rgb(102, 102, 102); font-family: &quot;Android Roboto&quot;; font-size: 16px; font-weight: 500; font-style: normal; text-decoration: none;"><g transform="translate(0,1)"><text><tspan x="0" y="35" style="font-family: &quot;Android Roboto&quot;; font-size: 16px; font-weight: 500; font-style: normal; text-decoration: none; text-transform: none; fill: rgb(102, 102, 102); background-color: rgba(0, 0, 0, 0);">Lecture2_1.pdf</tspan></text></g></g>
      <g p:filter="url(#f9a6ee1ae9ed40a48cc3b658399a34f6)" dominant-baseline="auto" p:name="text0text" id="b8f198ac27c94ec6a4f25f024882f827" style="fill: rgb(0, 0, 0); fill-opacity: 0.419608; color: rgba(0, 0, 0, 0.419608); font-family: &quot;Android Roboto&quot;; font-size: 12px; font-weight: normal; font-style: normal; text-decoration: none;"/>
      <g p:name="vectorImage0" id="849221632e154bb0ad22aebd92f31275" transform="translate(306,16) scale(24,24)">
        <g x="0" y="0" p:name="vectorImage0Image" id="956c2729f7b64132bdbb3775c544f99f"/>
      </g>
      <rect p:filter="url(#fa3673619023477ea67d906943009364)" rx="0" ry="0" style="fill: rgb(0, 0, 0); fill-opacity: 0.419608; stroke: rgb(0, 0, 0); stroke-opacity: 1; stroke-width: 0; visibility: hidden; display: none;" width="1" height="24" p:name="rectangle1" id="f589be0f4321407987254d9c3dd52ddc" x="0" y="18"/>
      <g p:filter="url(#de6d15fb821045af82a3e79330489ca5)" dominant-baseline="auto" p:name="text2text" id="3bc7ae6c10d94d98b6d84ad49c6dd823" style="fill: rgb(0, 0, 0); fill-opacity: 0.419608; color: rgba(0, 0, 0, 0.419608); font-family: &quot;Android Roboto&quot;; font-size: 12px; font-weight: normal; font-style: normal; text-decoration: none;"/>
    </g><g p:type="Shape" p:def="dgthanhan.AndroidNougatWireframe:inputtext-single" p:sc="Input (empty, idle)" id="2f18d9af71b949c1b8c7366a6a20b6b8" transform="matrix(1,0,0,1,33,238)"><p:metadata><p:property name="box">330,48</p:property><p:property name="fillColor">#FFFFFF00</p:property><p:property name="strokeColor">#0000006B</p:property><p:property name="strokeStyle">1|</p:property><p:property name="textAlignment">0,1</p:property><p:property name="textColor">#666666FF</p:property><p:property name="textFont">Android Roboto|500|normal|16px|none</p:property><p:property name="text1">studentCard.pdf</p:property><p:property name="textFont2">Android Roboto|normal|normal|12px|none</p:property><p:property name="text0"/><p:property name="vectorImage0ImageData">0,0,data:</p:property><p:property name="iconColor">#000000DE</p:property><p:property name="handle0">0,0</p:property><p:property name="withCaret">false</p:property><p:property name="text2"/></p:metadata>
      <rect p:filter="url(#e0dccf3d615d4998851f568b6dfccdfc)" rx="0" ry="0" style="fill: rgb(255, 255, 255); fill-opacity: 0; stroke: rgb(0, 0, 0); stroke-opacity: 1; stroke-width: 0;" width="330" height="48" p:name="rectangle0" id="bb32be005fb3437d8ba24ae57bdb2a79" x="0" y="0"/>
      <path p:filter="url(#86497b6d5b04484094a775fd02b75625)" d="M 0 0 M 330 0 M 330 47.5 L 0 47.5 M 0 0" style="fill: rgb(255, 255, 255); fill-opacity: 0; stroke: rgb(0, 0, 0); stroke-opacity: 0.419608; stroke-width: 1;" p:name="pathRect0" id="e9081eceeda74f02b9c1db777e5bb14d" rx="0" ry="0" transform="translate(0,0)"/>
      <g p:filter="url(#87f9b99f3f3d4d35837450fc97771f0e)" dominant-baseline="auto" p:name="text1text" id="8a56b5815bdf4389a4185949c632a0ce" style="fill: rgb(102, 102, 102); fill-opacity: 1; color: rgb(102, 102, 102); font-family: &quot;Android Roboto&quot;; font-size: 16px; font-weight: 500; font-style: normal; text-decoration: none;"><g transform="translate(0,1)"><text><tspan x="0" y="35" style="font-family: &quot;Android Roboto&quot;; font-size: 16px; font-weight: 500; font-style: normal; text-decoration: none; text-transform: none; fill: rgb(102, 102, 102); background-color: rgba(0, 0, 0, 0);">studentCard.pdf</tspan></text></g></g>
      <g p:filter="url(#f9a6ee1ae9ed40a48cc3b658399a34f6)" dominant-baseline="auto" p:name="text0text" id="5fb01bb6367c4d20adb43fdabdaba07c" style="fill: rgb(0, 0, 0); fill-opacity: 0.419608; color: rgba(0, 0, 0, 0.419608); font-family: &quot;Android Roboto&quot;; font-size: 12px; font-weight: normal; font-style: normal; text-decoration: none;"/>
      <g p:name="vectorImage0" id="a7676a3512254bfc9a025cdfd89bb5fe" transform="translate(306,16) scale(24,24)">
        <g x="0" y="0" p:name="vectorImage0Image" id="98f5df64d4424aa395c17e9256c61c21"/>
      </g>
      <rect p:filter="url(#fa3673619023477ea67d906943009364)" rx="0" ry="0" style="fill: rgb(0, 0, 0); fill-opacity: 0.419608; stroke: rgb(0, 0, 0); stroke-opacity: 1; stroke-width: 0; visibility: hidden; display: none;" width="1" height="24" p:name="rectangle1" id="2f4b97bbc97a458a8dc46c91e761f6b3" x="0" y="18"/>
      <g p:filter="url(#de6d15fb821045af82a3e79330489ca5)" dominant-baseline="auto" p:name="text2text" id="b782cb6be37944dd8a8fe4b599d0cd01" style="fill: rgb(0, 0, 0); fill-opacity: 0.419608; color: rgba(0, 0, 0, 0.419608); font-family: &quot;Android Roboto&quot;; font-size: 12px; font-weight: normal; font-style: normal; text-decoration: none;"/>
    </g><g p:type="Shape" p:def="nz.nwatson.MaterialIcons:menu" id="28965a1b2d5c4bd09acaeb3b257fecdf" transform="matrix(1,0,0,1,339,154)"><p:metadata><p:property name="box">24,24</p:property><p:property name="fillColor">#000000FF</p:property></p:metadata>
      <rect style="fill: #000000; fill-opacity: 0; stroke: none;" x="0" y="0" p:name="bgRect" id="43f3d61a6d7049ed8ae72e8ae56f815f" width="24" height="24"/>
      <g p:name="icon" id="81cebd4b77234c7f81c3d7f0f9d31512" transform="scale(1,1)" style="fill: rgb(0, 0, 0); fill-opacity: 1;">
        <path stroke-width="0.2" stroke-linejoin="round" d="M 3,6L 21,6L 21,8L 3,8L 3,6 Z M 3,11L 21,11L 21,13L 3,13L 3,11 Z M 3,16L 21,16L 21,18L 3,18L 3,16 Z "/>
      </g>
    </g><g p:type="Shape" p:def="nz.nwatson.MaterialIcons:menu" id="a27863eb5d9f4073bca237efff01bc71" transform="matrix(1,0,0,1,339,202)"><p:metadata><p:property name="box">24,24</p:property><p:property name="fillColor">#000000FF</p:property></p:metadata>
      <rect style="fill: #000000; fill-opacity: 0; stroke: none;" x="0" y="0" p:name="bgRect" id="14415178f681413ebf3264561931b924" width="24" height="24"/>
      <g p:name="icon" id="940b3cecf6ed4fa59f6eee0ad7d9545f" transform="scale(1,1)" style="fill: rgb(0, 0, 0); fill-opacity: 1;">
        <path stroke-width="0.2" stroke-linejoin="round" d="M 3,6L 21,6L 21,8L 3,8L 3,6 Z M 3,11L 21,11L 21,13L 3,13L 3,11 Z M 3,16L 21,16L 21,18L 3,18L 3,16 Z "/>
      </g>
    </g><g p:type="Shape" p:def="nz.nwatson.MaterialIcons:menu" id="0e5581595aa146c49b12c45e4a44b44d" transform="matrix(1,0,0,1,339,250)"><p:metadata><p:property name="box">24,24</p:property><p:property name="fillColor">#000000FF</p:property></p:metadata>
      <rect style="fill: #000000; fill-opacity: 0; stroke: none;" x="0" y="0" p:name="bgRect" id="0d52c1b66c864080b9b9131f62850e0c" width="24" height="24"/>
      <g p:name="icon" id="189512452e304822a326050b51117a0c" transform="scale(1,1)" style="fill: rgb(0, 0, 0); fill-opacity: 1;">
        <path stroke-width="0.2" stroke-linejoin="round" d="M 3,6L 21,6L 21,8L 3,8L 3,6 Z M 3,11L 21,11L 21,13L 3,13L 3,11 Z M 3,16L 21,16L 21,18L 3,18L 3,16 Z "/>
      </g>
    </g></g></g></svg>