<svg xmlns="http://www.w3.org/2000/svg" xmlns:p="http://www.evolus.vn/Namespace/Pencil" xmlns:pencil="http://www.evolus.vn/Namespace/Pencil" xmlns:html="http://www.w3.org/1999/xhtml" xmlns:xhtml="http://www.w3.org/1999/xhtml" xmlns:office="urn:oasis:names:tc:opendocument:xmlns:office:1.0" xmlns:style="urn:oasis:names:tc:opendocument:xmlns:style:1.0" xmlns:text="urn:oasis:names:tc:opendocument:xmlns:text:1.0" xmlns:table="urn:oasis:names:tc:opendocument:xmlns:table:1.0" xmlns:draw="urn:oasis:names:tc:opendocument:xmlns:drawing:1.0" xmlns:fo="urn:oasis:names:tc:opendocument:xmlns:xsl-fo-compatible:1.0" xmlns:xlink="http://www.w3.org/1999/xlink" xmlns:dc="http://purl.org/dc/elements/1.1/" xmlns:meta="urn:oasis:names:tc:opendocument:xmlns:meta:1.0" xmlns:number="urn:oasis:names:tc:opendocument:xmlns:datastyle:1.0" xmlns:svg="urn:oasis:names:tc:opendocument:xmlns:svg-compatible:1.0" xmlns:chart="urn:oasis:names:tc:opendocument:xmlns:chart:1.0" xmlns:dr3d="urn:oasis:names:tc:opendocument:xmlns:dr3d:1.0" xmlns:math="http://www.w3.org/1998/Math/MathML" xmlns:form="urn:oasis:names:tc:opendocument:xmlns:form:1.0" xmlns:script="urn:oasis:names:tc:opendocument:xmlns:script:1.0" xmlns:ooo="http://openoffice.org/2004/office" xmlns:ooow="http://openoffice.org/2004/writer" xmlns:oooc="http://openoffice.org/2004/calc" xmlns:dom="http://www.w3.org/2001/xml-events" xmlns:xforms="http://www.w3.org/2002/xforms" xmlns:xsd="http://www.w3.org/2001/XMLSchema" xmlns:xsi="http://www.w3.org/2001/XMLSchema-instance" xmlns:rpt="http://openoffice.org/2005/report" xmlns:of="urn:oasis:names:tc:opendocument:xmlns:of:1.2" xmlns:rdfa="http://docs.oasis-open.org/opendocument/meta/rdfa#" xmlns:field="urn:openoffice:names:experimental:ooo-ms-interop:xmlns:field:1.0" xmlns:regexp="http://exslt.org/regular-expressions" xmlns:em="http://exslt.org/math" xmlns:sodipodi="http://sodipodi.sourceforge.net/DTD/sodipodi-0.dtd" xmlns:inkscape="http://www.inkscape.org/namespaces/inkscape" width="396" height="798" id="exportedSVG" version="1.1" pencil:version="1.2.2" sodipodi:docname="Homepage_NaviMenu_modified"><g inkscape:label="MainMenu" inkscape:groupmode="layer" id="layer_mainmenu"><g><rect x="0" y="0" width="396" height="798" fill="none"/><g p:type="Shape" p:def="Evolus.Common:Bitmap" id="dc5512ef066c47349f59b34bffa568a2" transform="matrix(1,0,0,1,17.73291015625,91.76063537597656)"><p:metadata><p:property name="box">361.25,625</p:property><p:property name="imageData">539,929,ref://e93b6b336f9741f38875b17bc02ae213.png</p:property><p:property name="withBlur">false</p:property><p:property name="fillColor">#FFFFFF00</p:property><p:property name="strokeColor">#000000FF</p:property><p:property name="strokeStyle">0|</p:property></p:metadata>
            <defs>
                <filter height="1.2558399" y="-0.12792" width="1.06396" x="-0.03198" p:name="imageShading" id="5772e026f2bf4497ac7bbc867fbf1317">
                    <feGaussianBlur stdDeviation="1.3325" in="SourceAlpha"/>
                </filter>
                <g p:name="container" id="da7eb6b69874432898fdfbf250bd91f5">
                    <rect style="fill: rgb(255, 255, 255); stroke: rgb(0, 0, 0); stroke-opacity: 1; stroke-width: 0; fill-opacity: 0;" p:name="bgRect" id="525fadd7a64547a3867061d5bc944825" transform="translate(0,0)" width="361.25" height="625"/>
                    <g p:name="imageContainer" id="d4cbde99b2894c85a4000da3c774f6b4" transform="scale(0.6702226345083488,0.6727664155005382)">
                        <image x="0" y="0" p:name="image" id="443ad961b6de40279cbdee86098df6e4" xlink:href="file:///C:/Users/user/AppData/Local/Temp/tmp-5068GXBbECqhFxIO/refs/e93b6b336f9741f38875b17bc02ae213.png?token=1503718924000" width="539" height="929"/>
                    </g>
                </g>
            </defs>
            <use xlink:href="#da7eb6b69874432898fdfbf250bd91f5" transform="translate(1, 1)" p:filter="url(#5772e026f2bf4497ac7bbc867fbf1317)" style="opacity: 0.6; visibility: hidden; display: none;" p:name="bgCopy" id="fbe50ac8d3be427db37dcdb73f0457a4"/>
            <use xlink:href="#da7eb6b69874432898fdfbf250bd91f5"/>
        </g><g p:type="Shape" p:def="dgthanhan.AndroidNougatWireframe:titlebar" id="f6104869a5ac456989cbd0e96b9f15c7" transform="matrix(1,0,0,1,5.25,65)"><p:metadata><p:property name="box">375,56</p:property><p:property name="fillColor">#1D8668FF</p:property><p:property name="strokeColor">#616161FF</p:property><p:property name="strokeStyle">0|</p:property><p:property name="shadowStyle">0|0|4|0.5</p:property><p:property name="textColor">#FFFFFFFF</p:property><p:property name="vectorImage0ImageData">48,48,ref://e6046f7ee9e9b6c1d2599efabf998cca_svg</p:property><p:property name="textAlignment">0,1</p:property><p:property name="textFont">Android Roboto|500|normal|20px|none</p:property><p:property name="text0">Inbox</p:property><p:property name="vectorImage1ImageData">0,0,data:</p:property><p:property name="Icon2ImageData">24,24,ref://7058998f912946cc2a514d6563596e67_svg</p:property><p:property name="vectorImage3ImageData">18,18,ref://8684bd32a2376206a1b3bf9e100f76ba_svg</p:property><p:property name="navigationMode">menu</p:property><p:property name="withShadow">true</p:property></p:metadata>
      <defs>
        <clipPath p:name="sbDefaultClipPath" id="ea8ae873dd254521946e7e44c91de679">
          <rect p:filter="url(#1d9f477a13134f5c9934d1b20111349f)" rx="0" ry="0" style="fill: rgb(0, 0, 0); fill-opacity: 0.211765; stroke: rgb(96, 96, 96); stroke-opacity: 1; stroke-width: 0;" width="375" height="77" p:name="rectangle2" id="9e5ec55071a94436ad7937f9371f831d" x="0" y="0"/>
        </clipPath>
      </defs>
      <g style="clip-path: url(#ea8ae873dd254521946e7e44c91de679);">
        <defs>
          <filter x="-50%" width="200%" y="-50%" height="200%" p:name="rectangle1_shadowFilter" id="ec40dbc8cafa462ab8c1aa82837ce233"><feGaussianBlur in="SourceAlpha" stdDeviation="4"/><feOffset dx="0" dy="0"/><feComponentTransfer><feFuncA type="linear" slope="0.5"/></feComponentTransfer><feMerge><feMergeNode/><feMergeNode in="SourceGraphic"/></feMerge></filter>
        </defs>
        <g p:filter="url(#ec40dbc8cafa462ab8c1aa82837ce233)" p:name="rectangle1_globalGroup" id="ab89110b8d904c0795da295127ba8959" filter="url(#ec40dbc8cafa462ab8c1aa82837ce233)">
          <rect p:filter="url(#f04ac383c86c42c2b11d990270b16374)" rx="0" ry="0" style="fill: rgb(29, 134, 104); fill-opacity: 1; stroke: rgb(97, 97, 97); stroke-opacity: 1; stroke-width: 0; visibility: visible;" width="409" height="56" p:name="rectangle1" id="59009d96da8145ab9bbd296b668eb93f" x="-15" y="0"/>
        </g>
      </g>
      <rect p:filter="url(#52300623fbae4b1c9a7e29d8d85af51f)" rx="0" ry="0" style="fill: rgb(29, 134, 104); fill-opacity: 1; stroke: rgb(97, 97, 97); stroke-opacity: 1; stroke-width: 0;" width="375" height="56" p:name="rectangle0" id="a2174548eb2b4ba8829cde615859cd46" x="0" y="0"/>
      <g p:name="vectorImage0" id="0effa46eeb3e4b5cbcb3a28a67fc991f" transform="translate(16,16) scale(0.5,0.5)" style="visibility: visible;">
        <g x="0" y="0" p:name="vectorImage0Image" id="373362072b264ffa91be03a83ab8a952"><g><path d="M6 36h36v-4H6v4zm0-10h36v-4H6v4zm0-14v4h36v-4H6z" fill="rgba(255, 255, 255, 1)" style="fill: rgb(255, 255, 255);"/></g></g>
      </g>
      <g p:filter="url(#ad77eed9e50d4aaa8a51e572fabeb2f1)" dominant-baseline="auto" p:name="text0text" id="dffa7a5b01534ac68042ac92493c12f0" style="fill: rgb(255, 255, 255); fill-opacity: 1; color: rgb(255, 255, 255); font-family: &quot;Android Roboto&quot;; font-size: 20px; font-weight: 500; font-style: normal; text-decoration: none;"><g transform="translate(0,3)"><text><tspan x="72" y="32" style="font-family: &quot;Android Roboto&quot;; font-size: 20px; font-weight: 500; font-style: normal; text-decoration: none; text-transform: none; fill: rgb(255, 255, 255); background-color: rgba(0, 0, 0, 0);">Inbox</tspan></text></g></g>
      <g p:name="vectorImage1" id="e56b59fdfcfe4baa820f4229035a09f6" transform="translate(291,16) scale(24,24)">
        <g x="0" y="0" p:name="vectorImage1Image" id="8a0aeaaf756b4ee78ba503a8e2bed8c2"/>
      </g>
      <g p:name="Icon2" id="e4e2cacf7e584a9bab00ec80060e2bc4" transform="translate(339,16) scale(1,1)">
        <g x="0" y="0" p:name="Icon2Image" id="dad7d01b4d9a47229d3236692fc05354"><g><path d="M15.5 14h-.79l-.28-.27C15.41 12.59 16 11.11 16 9.5 16 5.91 13.09 3 9.5 3S3 5.91 3 9.5 5.91 16 9.5 16c1.61 0 3.09-.59 4.23-1.57l.27.28v.79l5 4.99L20.49 19l-4.99-5zm-6 0C7.01 14 5 11.99 5 9.5S7.01 5 9.5 5 14 7.01 14 9.5 11.99 14 9.5 14z" fill="rgba(255, 255, 255, 1)" style="fill: rgb(255, 255, 255);"/></g></g>
      </g>
      <g p:name="vectorImage3" id="6de8bb6cbf964296ad5c27e69ec2b397" transform="translate(16,16) scale(1.3333333333333333,1.3333333333333333)" style="visibility: hidden; display: none;">
        <g x="0" y="0" p:name="vectorImage3Image" id="2b8b3444b6aa4e699b8f97c6ebc9a6c5"><g><path d="M15 8.25H5.87l4.19-4.19L9 3 3 9l6 6 1.06-1.06-4.19-4.19H15v-1.5z" fill="rgba(255, 255, 255, 1)" style="fill: rgb(255, 255, 255);"/></g></g>
      </g>
    </g><g p:type="Shape" p:def="nz.nwatson.AndroidLollipop:Phone" id="01f1111eede44d2eafa26ee5dc77f4e2" transform="matrix(1,0,0,1,0,0)"><p:metadata><p:property name="box">396,798</p:property><p:property name="fillColor">#000000FF</p:property></p:metadata>

			<path p:name="phone" id="946c6499de63478292e27ea8c44637a3" d="M 30 12 C 16 14 0 26 0 43 L 0 755 C 0 772 16 784 30 786 C 142 801 254 801 366 786 C 380 784 396 772 396 755 L 396 43 C 396 26 380 14 366 12 C 254 -3 142 -3 30 12 z M 18 68 L 378 68 L 378 708 L 18 708 z" style="fill: rgb(0, 0, 0); fill-opacity: 1;"/>

		</g><g p:type="Shape" p:def="nz.nwatson.AndroidLollipop:SoftKeys" id="70c62194d67c4f07bcd3d88c0640df76" transform="matrix(1,0,0,1,18,713)"><p:metadata><p:property name="box">360,48</p:property><p:property name="fillColor">#000000FF</p:property></p:metadata>

			<rect p:name="bg" id="69c853b5f6c64ea7b0f77283d6155d38" style="fill: rgb(0, 0, 0); fill-opacity: 1;" width="360" height="48"/>
			<g style="stroke-width: 2px; stroke:#FFFFFF; stroke-opacity:0.9; fill: none;stroke-linejoin:round" p:name="icons" id="c82dec1aa9f9434f8211108ae64b33b2" transform="translate(72,15)">
				<path d="m202.17 2h12c.554 0 1 .446 1 1v12c0 .554-.446 1-1 1h-12c-.554 0-1-.446-1-1v-12c0-.554.446-1 1-1z"/>
				<path d="m15.168 9c0 10.196 1.286 9.454-7.544 4.356-8.83-5.098-8.83-3.613 0-8.711 8.83-5.098 7.544-5.841 7.544 4.356z"/>
				<path d="m116.17 9c0 4.418-3.582 8-8 8-4.418 0-8-3.582-8-8 0-4.418 3.582-8 8-8 4.418 0 8 3.582 8 8z"/>
			</g>
		</g><g p:type="Shape" p:def="nz.nwatson.AndroidLollipop:NotificationBar" id="f28d1172b64243aba6e753d2f03057bd" transform="matrix(1,0,0,1,18,40)"><p:metadata><p:property name="box">360,24</p:property><p:property name="fillColor">#00000025</p:property></p:metadata>

			<defs>
				<linearGradient p:name="statusIconBg" id="8b95e356d6c348f0b305e6d5dfdd2cc2">
					<stop style="stop-color:#ffffff;stop-opacity:0.28627452;" offset="0"/>
				</linearGradient>
				<linearGradient p:name="statusIconFg" id="7222a8e7631d46cc992a8e89ca6359fe">
					<stop style="stop-color:#ffffff;stop-opacity:0.90196079;" offset="0"/>
				</linearGradient>
			</defs>

			<rect height="24" p:lockH="true" p:name="bg" id="31ca0004979149d78ec34aa86c4e744c" style="fill: rgb(0, 0, 0); fill-opacity: 0.145098;" width="360"/>

			<g p:name="icons" id="f508ebac0a134d3298f8f9f77f4ec579" transform="translate(240,5)">

				<g style="fill: url(#8b95e356d6c348f0b305e6d5dfdd2cc2)">
					<path d="m0 2.532c4.821-3.376 11.239-3.376 16.06 0l-8.03 11.468z"/>
					<path d="m28.662 14l14-14v14z"/>
					<path d="m60.662 0v1h-1c-.554 0-1 .446-1 1v11c0 .554.446 1 1 1h7c.554 0 1-.446 1-1v-11c0-.554-.446-1-1-1h-1v-1h-5"/>
				</g>

				<g style="fill: url(#7222a8e7631d46cc992a8e89ca6359fe)">
					<path d="m2.026 5.426c3.605-2.524 8.403-2.524 12.01 0l-6 8.575z"/>
					<path d="m28.662 14l7-7v7z"/>
					<path d="m58.662 7v6c0 .554.446 1 1 1h7c.554 0 1-.446 1-1v-6z"/>

					<path d="m82.71 13h-.879v-9.609l-2.9 1.077v-.82l3.633-1.348h.146v10.701"/>
					<path d="m93.63 13h-6.68v-.674l3.494-3.962c.327-.371.603-.706.828-1 .229-.298.413-.574.549-.828.142-.259.242-.5.3-.725.063-.229.095-.457.095-.681 0-.322-.049-.615-.146-.879-.093-.269-.234-.5-.425-.696-.186-.195-.417-.347-.696-.454-.278-.107-.598-.161-.959-.161-.371 0-.706.063-1 .19-.293.122-.544.293-.754.513-.205.22-.364.481-.476.784-.112.303-.168.632-.168.989h-.872c0-.439.073-.854.22-1.245.151-.391.369-.732.652-1.025.283-.293.625-.525 1.025-.696.405-.171.864-.256 1.377-.256.479 0 .911.066 1.296.198.386.127.713.315.981.564.269.244.474.544.615.901.146.352.22.752.22 1.201 0 .322-.059.647-.176.974-.117.327-.273.652-.469.974-.195.322-.42.642-.674.959-.254.317-.515.63-.784.938l-2.974 3.362h5.603v.74"/>
					<path d="m95.2 12.473c0-.171.054-.315.161-.432.112-.122.266-.183.461-.183.195 0 .349.061.461.183.112.117.168.261.168.432 0 .171-.056.313-.168.425-.112.107-.266.161-.461.161-.195 0-.349-.054-.461-.161-.107-.112-.161-.254-.161-.425m.015-6.76c0-.171.054-.315.161-.432.112-.122.266-.183.461-.183.195 0 .349.061.461.183.112.117.168.261.168.432 0 .171-.056.313-.168.425-.112.107-.266.161-.461.161-.195 0-.349-.054-.461-.161-.107-.112-.161-.254-.161-.425"/>
					<path d="m100.38 7.192h.894c.41 0 .769-.054 1.077-.161.312-.112.574-.261.784-.447.21-.19.366-.41.469-.659.107-.254.161-.522.161-.806 0-.322-.046-.615-.139-.879-.088-.269-.225-.498-.41-.688-.181-.195-.413-.347-.696-.454-.278-.107-.61-.161-.996-.161-.337 0-.647.051-.93.154-.283.103-.53.249-.74.439-.21.19-.374.422-.491.696-.117.269-.176.571-.176.908h-.879c0-.43.081-.825.242-1.187.166-.361.391-.671.674-.93.288-.264.627-.466 1.018-.608.396-.146.823-.22 1.282-.22.469 0 .896.066 1.282.198.386.132.713.325.981.579.273.249.483.557.63.923.151.366.227.786.227 1.26 0 .239-.039.479-.117.718-.078.234-.193.457-.344.667-.151.21-.342.403-.571.579-.229.171-.493.313-.791.425.352.098.654.232.908.403.254.166.461.361.623.586.166.225.288.471.366.74.083.269.124.549.125.842 0 .483-.083.913-.249 1.289-.166.376-.396.696-.688.959-.293.259-.64.457-1.04.593-.4.132-.835.198-1.304.198-.435 0-.857-.063-1.267-.19-.405-.127-.769-.315-1.091-.564-.317-.254-.574-.571-.769-.952-.19-.381-.286-.825-.286-1.333h.879c0 .337.061.647.183.93.127.283.303.527.527.732.225.2.491.356.798.469.313.112.654.168 1.025.168.757 0 1.345-.193 1.765-.579.425-.391.637-.955.637-1.692 0-.386-.066-.718-.198-.996-.127-.278-.31-.505-.549-.681-.234-.181-.518-.312-.85-.396-.327-.083-.691-.125-1.091-.125h-.894v-.747"/>
					<path d="m113.18 8.554c0 .781-.073 1.46-.22 2.036-.146.576-.359 1.055-.637 1.436-.278.376-.62.657-1.025.842-.405.186-.867.278-1.384.278-.513 0-.972-.093-1.377-.278-.405-.186-.75-.466-1.033-.842-.283-.381-.5-.859-.652-1.436-.151-.576-.227-1.255-.227-2.036v-1.802c0-.781.073-1.458.22-2.029.151-.576.366-1.05.645-1.421.283-.376.627-.654 1.033-.835.405-.186.864-.278 1.377-.278.513 0 .972.093 1.377.278.41.181.754.459 1.033.835.283.371.498.845.645 1.421.151.571.227 1.248.227 2.029v1.802m-.879-1.912c0-1.221-.2-2.144-.601-2.769-.396-.625-.996-.937-1.802-.938-.801 0-1.401.313-1.802.938-.4.625-.601 1.548-.601 2.769v2.01c0 .601.051 1.135.154 1.604.103.464.254.857.454 1.179.205.317.459.559.762.725.303.166.652.249 1.047.249.4 0 .749-.083 1.047-.249.303-.166.552-.408.747-.725.2-.322.349-.715.447-1.179.098-.469.146-1 .146-1.604v-2.01"/>
				</g>
			</g>
		</g><g p:type="Shape" p:def="dgthanhan.AndroidNougatWireframe:rectangle" p:sc="Box - color" id="606b1adeaa284a0a86a295a571a4d7a3" transform="matrix(1,0,0,1,17,67)"><p:metadata><p:property name="box">291.54673152000004,640.98673408</p:property><p:property name="fillColor">#1D8668FF</p:property><p:property name="strokeStyle">2|</p:property><p:property name="radius">0,0</p:property><p:property name="shadowStyle">0|0|0|1</p:property><p:property name="strokeColor">#1D8668FF</p:property><p:property name="topLeftCorner">true</p:property><p:property name="topRightCorner">true</p:property><p:property name="bottomRightCorner">true</p:property><p:property name="bottomLeftCorner">true</p:property><p:property name="topBorder">true</p:property><p:property name="rightBorder">true</p:property><p:property name="bottomBorder">true</p:property><p:property name="leftBorder">true</p:property></p:metadata>
      <defs>
        <filter x="-50%" width="200%" y="-50%" height="200%" p:name="pathRect0_shadowFilter" id="46f612a3ad414281a91dc8c31e544013"><feGaussianBlur in="SourceAlpha" stdDeviation="0"/><feOffset dx="0" dy="0"/><feComponentTransfer><feFuncA type="linear" slope="1"/></feComponentTransfer><feMerge><feMergeNode/><feMergeNode in="SourceGraphic"/></feMerge></filter>
      </defs>
      <g p:filter="url(#46f612a3ad414281a91dc8c31e544013)" p:name="pathRect0_globalGroup" id="f46a684f3a7b4c59b15570ed83b61da7" filter="url(#46f612a3ad414281a91dc8c31e544013)">
        <path p:filter="url(#d1aac59d7a384c5785d72c11d30bad83)" d="M 0 0 L 290 0 L 290 639 L 0 639 L 0 0 z" style="fill: rgb(29, 134, 104); fill-opacity: 1; stroke: rgb(29, 134, 104); stroke-opacity: 1; stroke-width: 2; visibility: hidden; display: none;" p:name="pathRect0" id="dd40b02aac494b33b47a9a07e2c93a5e" rx="0" ry="0" transform="translate(1,1)"/>
      </g>
      <defs>
        <filter x="-50%" width="200%" y="-50%" height="200%" p:name="pathRect1_shadowFilter" id="4820cfe06da54338abaf851f3d43fadd"><feGaussianBlur in="SourceAlpha" stdDeviation="0"/><feOffset dx="0" dy="0"/><feComponentTransfer><feFuncA type="linear" slope="1"/></feComponentTransfer><feMerge><feMergeNode/><feMergeNode in="SourceGraphic"/></feMerge></filter>
      </defs>
      <g p:filter="url(#4820cfe06da54338abaf851f3d43fadd)" p:name="pathRect1_globalGroup" id="abd7ee0658ed4db89c8b149fe6713b73" filter="url(#4820cfe06da54338abaf851f3d43fadd)">
        <path p:filter="url(#846cc7b83a8c45fc963c9d482cf332a1)" d="M 0 0 L 290 0 L 290 639 L 0 639 L 0 0 z" style="fill: rgb(29, 134, 104); fill-opacity: 1; stroke: rgb(29, 134, 104); stroke-opacity: 1; stroke-width: 2;" p:name="pathRect1" id="ec0eaf26b11242949a7371703eaffc79" rx="0" ry="0" transform="translate(1,1)"/>
      </g>
    </g><g p:type="Shape" p:def="dgthanhan.AndroidNougatWireframe:snackbar" id="01daef185baf4f43a9e0349c15ac55d5" transform="matrix(1,0,0,1,16.80213165283203,248)"><p:metadata><p:property name="box">292.38468279499995,59.344</p:property><p:property name="fillColor">#EFEEF0FF</p:property><p:property name="radius">0,0</p:property><p:property name="shadowStyle">0|0|0|1</p:property><p:property name="textAlignment">0,1</p:property><p:property name="textColor">#000000FF</p:property><p:property name="textFont">Android Roboto|500|normal|14px|none</p:property><p:property name="text0">   Import Document</p:property><p:property name="textColor2">#FFFF00DE</p:property><p:property name="textFont2">Android Roboto|500|normal|14px|none</p:property><p:property name="textAction"/></p:metadata>
      <defs>
        <filter x="-50%" width="200%" y="-50%" height="200%" p:name="rectangle0_shadowFilter" id="9a9b89a5ba42484e95e250aa60ab7fcb"><feGaussianBlur in="SourceAlpha" stdDeviation="0"/><feOffset dx="0" dy="0"/><feComponentTransfer><feFuncA type="linear" slope="1"/></feComponentTransfer><feMerge><feMergeNode/><feMergeNode in="SourceGraphic"/></feMerge></filter>
      </defs>
      <g p:filter="url(#9a9b89a5ba42484e95e250aa60ab7fcb)" p:name="rectangle0_globalGroup" id="6e4abb014c6a476db662cfb589311adf" filter="url(#9a9b89a5ba42484e95e250aa60ab7fcb)">
        <rect p:filter="url(#043614bf39134a0c9a693839a266d5fd)" rx="0" ry="0" style="fill: rgb(239, 238, 240); fill-opacity: 1; stroke: rgb(0, 0, 0); stroke-opacity: 1; stroke-width: 0;" width="292" height="59" p:name="rectangle0" id="ab8ff354fa96404cba6fcd63461218bf" x="0" y="0"/>
      </g>
      <g p:filter="url(#e22d30b7a4054f35be5d5d70112a8835)" dominant-baseline="auto" p:name="text0text" id="e68088b0230c44988587094e77e07ef3" style="fill: rgb(0, 0, 0); fill-opacity: 1; color: rgb(0, 0, 0); font-family: &quot;Android Roboto&quot;; font-size: 14px; font-weight: 500; font-style: normal; text-decoration: none;"><g transform="translate(0,7)"><text><tspan x="24" y="27" style="font-family: &quot;Android Roboto&quot;; font-size: 14px; font-weight: 500; font-style: normal; text-decoration: none; text-transform: none; fill: rgb(0, 0, 0); background-color: rgba(0, 0, 0, 0);">   Import Document</tspan></text></g></g>
      <g p:filter="url(#c4b1e4a3bb7c410480808f4a5bec5fac)" dominant-baseline="auto" p:name="textActiontext" id="f3983cc69e374663977f970fb314563a" style="fill: rgb(255, 255, 0); fill-opacity: 0.870588; color: rgba(255, 255, 0, 0.870588); font-family: &quot;Android Roboto&quot;; font-size: 14px; font-weight: 500; font-style: normal; text-decoration: none;"/>
    </g><g p:type="Shape" p:def="Evolus.Common:Bitmap" id="d497a39ae84946b085da4998aab0abba" transform="matrix(1,0,0,1,103,97)"><p:metadata><p:property name="box">120,120</p:property><p:property name="imageData">1200,1200,ref://426d40e633b842c4b60481017bd78bf6.png</p:property><p:property name="withBlur">false</p:property><p:property name="fillColor">#FFFFFF00</p:property><p:property name="strokeColor">#000000FF</p:property><p:property name="strokeStyle">0|</p:property></p:metadata>
            <defs>
                <filter height="1.2558399" y="-0.12792" width="1.06396" x="-0.03198" p:name="imageShading" id="db4274b988f642e1813d3c00ca35bdd3">
                    <feGaussianBlur stdDeviation="1.3325" in="SourceAlpha"/>
                </filter>
                <g p:name="container" id="57b26ca2790346c8898c5b96e4cd3a2d">
                    <rect style="fill: rgb(255, 255, 255); stroke: rgb(0, 0, 0); stroke-opacity: 1; stroke-width: 0; fill-opacity: 0;" p:name="bgRect" id="457fcc2bd5b945168a41ba5f827be981" transform="translate(0,0)" width="120" height="120"/>
                    <g p:name="imageContainer" id="7c1556e5b5e64db29feef00eaf6d766f" transform="scale(0.1,0.1)">
                        <image x="0" y="0" p:name="image" id="b2e61cfd887244dc8aa8190748c78c81" xlink:href="file:///C:/Users/user/AppData/Local/Temp/tmp-5068GXBbECqhFxIO/refs/426d40e633b842c4b60481017bd78bf6.png?token=1503717792000" width="1200" height="1200"/>
                    </g>
                </g>
            </defs>
            <use xlink:href="#57b26ca2790346c8898c5b96e4cd3a2d" transform="translate(1, 1)" p:filter="url(#db4274b988f642e1813d3c00ca35bdd3)" style="opacity: 0.6; visibility: hidden; display: none;" p:name="bgCopy" id="2da1dd656e684f8dbaaac46ca7f623f0"/>
            <use xlink:href="#57b26ca2790346c8898c5b96e4cd3a2d"/>
        </g><g p:type="Shape" p:def="dgthanhan.AndroidNougatWireframe:snackbar" id="d5151d92feaf416f906fa0f027f221ad" transform="matrix(1,0,0,1,17.057170867919922,306.90399169921875)"><p:metadata><p:property name="box">291.6997413124999,47.056000000000004</p:property><p:property name="fillColor">#EFEEF0FF</p:property><p:property name="radius">0,0</p:property><p:property name="shadowStyle">0|0|0|1</p:property><p:property name="textAlignment">0,1</p:property><p:property name="textColor">#000000FF</p:property><p:property name="textFont">Android Roboto|500|normal|14px|none</p:property><p:property name="text0">   Settings</p:property><p:property name="textColor2">#FFFF00DE</p:property><p:property name="textFont2">Android Roboto|500|normal|14px|none</p:property><p:property name="textAction"/></p:metadata>
      <defs>
        <filter x="-50%" width="200%" y="-50%" height="200%" p:name="rectangle0_shadowFilter" id="46d8e59e21904a029beee6adfde127a8"><feGaussianBlur in="SourceAlpha" stdDeviation="0"/><feOffset dx="0" dy="0"/><feComponentTransfer><feFuncA type="linear" slope="1"/></feComponentTransfer><feMerge><feMergeNode/><feMergeNode in="SourceGraphic"/></feMerge></filter>
      </defs>
      <g p:filter="url(#46d8e59e21904a029beee6adfde127a8)" p:name="rectangle0_globalGroup" id="1c5823396afa4a0aaefe3d0906510ff6" filter="url(#46d8e59e21904a029beee6adfde127a8)">
        <rect p:filter="url(#043614bf39134a0c9a693839a266d5fd)" rx="0" ry="0" style="fill: rgb(239, 238, 240); fill-opacity: 1; stroke: rgb(0, 0, 0); stroke-opacity: 1; stroke-width: 0;" width="292" height="47" p:name="rectangle0" id="0176e926a47547ff9d3a4dd756831775" x="0" y="0"/>
      </g>
      <g p:filter="url(#e22d30b7a4054f35be5d5d70112a8835)" dominant-baseline="auto" p:name="text0text" id="f70fc339cb104e3db3d13fb90af5800e" style="fill: rgb(0, 0, 0); fill-opacity: 1; color: rgb(0, 0, 0); font-family: &quot;Android Roboto&quot;; font-size: 14px; font-weight: 500; font-style: normal; text-decoration: none;"><g transform="translate(0,1)"><text><tspan x="24" y="27" style="font-family: &quot;Android Roboto&quot;; font-size: 14px; font-weight: 500; font-style: normal; text-decoration: none; text-transform: none; fill: rgb(0, 0, 0); background-color: rgba(0, 0, 0, 0);">   Settings</tspan></text></g></g>
      <g p:filter="url(#c4b1e4a3bb7c410480808f4a5bec5fac)" dominant-baseline="auto" p:name="textActiontext" id="18961caa429843208754c28af2ef8ea1" style="fill: rgb(255, 255, 0); fill-opacity: 0.870588; color: rgba(255, 255, 0, 0.870588); font-family: &quot;Android Roboto&quot;; font-size: 14px; font-weight: 500; font-style: normal; text-decoration: none;"/>
    </g><g p:type="Shape" p:def="dgthanhan.AndroidNougatWireframe:snackbar" id="2ca205e2bec24a2e8b63c1ad32d8b6f3" transform="matrix(1,0,0,1,17.057170867919922,354)"><p:metadata><p:property name="box">291.73846457250005,65.32891136</p:property><p:property name="fillColor">#EFEEF0FF</p:property><p:property name="radius">0,0</p:property><p:property name="shadowStyle">0|0|0|1</p:property><p:property name="textAlignment">0,1</p:property><p:property name="textColor">#000000FF</p:property><p:property name="textFont">Android Roboto|500|normal|14px|none</p:property><p:property name="text0">   About</p:property><p:property name="textColor2">#FFFF00DE</p:property><p:property name="textFont2">Android Roboto|500|normal|14px|none</p:property><p:property name="textAction"/></p:metadata>
      <defs>
        <filter x="-50%" width="200%" y="-50%" height="200%" p:name="rectangle0_shadowFilter" id="f506c5b457d848d9a361f38912b217eb"><feGaussianBlur in="SourceAlpha" stdDeviation="0"/><feOffset dx="0" dy="0"/><feComponentTransfer><feFuncA type="linear" slope="1"/></feComponentTransfer><feMerge><feMergeNode/><feMergeNode in="SourceGraphic"/></feMerge></filter>
      </defs>
      <g p:filter="url(#f506c5b457d848d9a361f38912b217eb)" p:name="rectangle0_globalGroup" id="1a63cf3c35974f188d695e8b1b2eaeb2" filter="url(#f506c5b457d848d9a361f38912b217eb)">
        <rect p:filter="url(#043614bf39134a0c9a693839a266d5fd)" rx="0" ry="0" style="fill: rgb(239, 238, 240); fill-opacity: 1; stroke: rgb(0, 0, 0); stroke-opacity: 1; stroke-width: 0;" width="292" height="65" p:name="rectangle0" id="6db1446e906f4238a5f58d85d6f84030" x="0" y="0"/>
      </g>
      <g p:filter="url(#e22d30b7a4054f35be5d5d70112a8835)" dominant-baseline="auto" p:name="text0text" id="62cfb019b84d42f88963cd6d81eed30d" style="fill: rgb(0, 0, 0); fill-opacity: 1; color: rgb(0, 0, 0); font-family: &quot;Android Roboto&quot;; font-size: 14px; font-weight: 500; font-style: normal; text-decoration: none;"><g transform="translate(0,10)"><text><tspan x="24" y="27" style="font-family: &quot;Android Roboto&quot;; font-size: 14px; font-weight: 500; font-style: normal; text-decoration: none; text-transform: none; fill: rgb(0, 0, 0); background-color: rgba(0, 0, 0, 0);">   About</tspan></text></g></g>
      <g p:filter="url(#c4b1e4a3bb7c410480808f4a5bec5fac)" dominant-baseline="auto" p:name="textActiontext" id="00408781cf4a4f1c90448adee97cb474" style="fill: rgb(255, 255, 0); fill-opacity: 0.870588; color: rgba(255, 255, 0, 0.870588); font-family: &quot;Android Roboto&quot;; font-size: 14px; font-weight: 500; font-style: normal; text-decoration: none;"/>
    </g><g p:type="Shape" p:def="nz.nwatson.AndroidLollipop:Divider" id="bddff777784e4bd0bab6c9f35c1bab0f" transform="matrix(1,0,0,1,27.49398422241211,354.43603515625)"><p:metadata><p:property name="box">255.13600000000002,10</p:property><p:property name="strokeColor">#FFFFFF2E</p:property><p:property name="strokeStyle">2|</p:property></p:metadata>
			<rect style="fill: #000000; fill-opacity: 0; stroke: none;" x="0" y="0" p:name="bgRect" id="827d44e45f154aabbee169afbb965647" width="255.136" height="10"/>
			<path style="fill: none; stroke: rgb(255, 255, 255); stroke-opacity: 0.180392; stroke-width: 2;" d="M 0 5 L 255.13600000000002 5" p:name="line" id="ae9575c00b024f76afc6fe75b546c96b" transform="translate(0,0)"/>
		</g><g p:type="Shape" p:def="nz.nwatson.AndroidLollipop:Divider" id="6d1140009bea456386cb803f1e63a9ab" transform="matrix(1,0,0,1,23.821430206298828,409.978271484375)"><p:metadata><p:property name="box">257.59360000000004,10</p:property><p:property name="strokeColor">#FFFFFF2E</p:property><p:property name="strokeStyle">2|</p:property></p:metadata>
			<rect style="fill: #000000; fill-opacity: 0; stroke: none;" x="0" y="0" p:name="bgRect" id="f1be0a891ba2476c9b5805ebe9218c1e" width="257.594" height="10"/>
			<path style="fill: none; stroke: rgb(255, 255, 255); stroke-opacity: 0.180392; stroke-width: 2;" d="M 0 5 L 257.59360000000004 5" p:name="line" id="420a5f72491f4b4486a238d7c5a7019b" transform="translate(0,0)"/>
		</g><g p:type="Shape" p:def="nz.nwatson.AndroidLollipop:Divider" id="edd23d8ba4da49be81995ea25c9c6977" transform="matrix(1,0,0,1,28.005985260009766,297.63604736328125)"><p:metadata><p:property name="box">254.62400000000002,10</p:property><p:property name="strokeColor">#FFFFFF2E</p:property><p:property name="strokeStyle">2|</p:property></p:metadata>
			<rect style="fill: #000000; fill-opacity: 0; stroke: none;" x="0" y="0" p:name="bgRect" id="68f2e67237ba432fa9f64c16bc5d2f40" width="254.624" height="10"/>
			<path style="fill: none; stroke: rgb(255, 255, 255); stroke-opacity: 0.180392; stroke-width: 2;" d="M 0 5 L 254.62400000000002 5" p:name="line" id="da8ddd829be844dca112f96d461cb3c7" transform="translate(0,0)"/>
		</g><g p:type="Shape" p:def="dgthanhan.AndroidNougatWireframe:snackbar" p:sc="Snackbar - no action" id="c10e6eabef20489eb03577698630de73" transform="matrix(1,0,0,1,16.80213165283203,416)"><p:metadata><p:property name="box">292.07320000000004,52.9152</p:property><p:property name="fillColor">#EFEEF0FF</p:property><p:property name="radius">0,0</p:property><p:property name="shadowStyle">0|0|0|1</p:property><p:property name="textAlignment">0,1</p:property><p:property name="textColor">#000000FF</p:property><p:property name="textFont">Android Roboto|500|normal|14px|none</p:property><p:property name="text0">   LocAdoc FAQ</p:property><p:property name="textColor2">#FFFF00DE</p:property><p:property name="textFont2">Android Roboto|500|normal|14px|none</p:property><p:property name="textAction"/></p:metadata>
      <defs>
        <filter x="-50%" width="200%" y="-50%" height="200%" p:name="rectangle0_shadowFilter" id="375cedf1bb71483baaf4fd3a40212377"><feGaussianBlur in="SourceAlpha" stdDeviation="0"/><feOffset dx="0" dy="0"/><feComponentTransfer><feFuncA type="linear" slope="1"/></feComponentTransfer><feMerge><feMergeNode/><feMergeNode in="SourceGraphic"/></feMerge></filter>
      </defs>
      <g p:filter="url(#375cedf1bb71483baaf4fd3a40212377)" p:name="rectangle0_globalGroup" id="48041a890d9a4671a94c0054ec059608" filter="url(#375cedf1bb71483baaf4fd3a40212377)">
        <rect p:filter="url(#043614bf39134a0c9a693839a266d5fd)" rx="0" ry="0" style="fill: rgb(239, 238, 240); fill-opacity: 1; stroke: rgb(0, 0, 0); stroke-opacity: 1; stroke-width: 0;" width="292" height="53" p:name="rectangle0" id="5bc7b69b61c74ed2ac9deeb12a40ed25" x="0" y="0"/>
      </g>
      <g p:filter="url(#e22d30b7a4054f35be5d5d70112a8835)" dominant-baseline="auto" p:name="text0text" id="6ae19860b072495380a0702a3b9e3339" style="fill: rgb(0, 0, 0); fill-opacity: 1; color: rgb(0, 0, 0); font-family: &quot;Android Roboto&quot;; font-size: 14px; font-weight: 500; font-style: normal; text-decoration: none;"><g transform="translate(0,4)"><text><tspan x="24" y="27" style="font-family: &quot;Android Roboto&quot;; font-size: 14px; font-weight: 500; font-style: normal; text-decoration: none; text-transform: none; fill: rgb(0, 0, 0); background-color: rgba(0, 0, 0, 0);">   LocAdoc FAQ</tspan></text></g></g>
      <g p:filter="url(#c4b1e4a3bb7c410480808f4a5bec5fac)" dominant-baseline="auto" p:name="textActiontext" id="dbeef7b1ac314f23bf83b51fd36c3e30" style="fill: rgb(255, 255, 0); fill-opacity: 0.870588; color: rgba(255, 255, 0, 0.870588); font-family: &quot;Android Roboto&quot;; font-size: 14px; font-weight: 500; font-style: normal; text-decoration: none;"/>
    </g><g p:type="Shape" p:def="Evolus.Common:Bitmap" id="562a6ac8b01746bdbd103af9fc54ecfc" transform="matrix(1,0,0,1,21,263)"><p:metadata><p:property name="box">30,30</p:property><p:property name="imageData">2400,2400,ref://686159d1b15e45f1a46e03a07b7b01d9.png</p:property><p:property name="withBlur">false</p:property><p:property name="fillColor">#FFFFFF80</p:property><p:property name="strokeColor">#666666FF</p:property><p:property name="strokeStyle">0|</p:property></p:metadata>
            <defs>
                <filter height="1.2558399" y="-0.12792" width="1.06396" x="-0.03198" p:name="imageShading" id="f7bcae6154d5466a9f7e0735d0cdf9bc">
                    <feGaussianBlur stdDeviation="1.3325" in="SourceAlpha"/>
                </filter>
                <g p:name="container" id="9f21c9d503394398b0e5281ae49a41a6">
                    <rect style="fill: rgb(255, 255, 255); stroke: rgb(102, 102, 102); stroke-opacity: 1; stroke-width: 0; fill-opacity: 0.501961;" p:name="bgRect" id="35c307ba44564525bc7dec1bbe4ce245" transform="translate(0,0)" width="30" height="30"/>
                    <g p:name="imageContainer" id="ae380f3c953c4c49b790ddb2b3ceeeb7" transform="scale(0.0125,0.0125)">
                        <image x="0" y="0" p:name="image" id="76ffbc79e8ea47899cb8985195b52c20" xlink:href="file:///C:/Users/user/AppData/Local/Temp/tmp-5068GXBbECqhFxIO/refs/686159d1b15e45f1a46e03a07b7b01d9.png?token=1503720280000" width="2400" height="2400"/>
                    </g>
                </g>
            </defs>
            <use xlink:href="#9f21c9d503394398b0e5281ae49a41a6" transform="translate(1, 1)" p:filter="url(#f7bcae6154d5466a9f7e0735d0cdf9bc)" style="opacity: 0.6; visibility: hidden; display: none;" p:name="bgCopy" id="d66959618e2b49aabec44aa8d8aba17a"/>
            <use xlink:href="#9f21c9d503394398b0e5281ae49a41a6"/>
        </g><g p:type="Shape" p:def="nz.nwatson.AndroidLollipop:Divider" id="f622be0075a0488f9eedd5e3d7e291ab" transform="matrix(1,0,0,1,27.01929473876953,458.978271484375)"><p:metadata><p:property name="box">257.59360000000004,10</p:property><p:property name="strokeColor">#FFFFFF2E</p:property><p:property name="strokeStyle">2|</p:property></p:metadata>
			<rect style="fill: #000000; fill-opacity: 0; stroke: none;" x="0" y="0" p:name="bgRect" id="50b04094ee6d49608545179312062d6d" width="257.594" height="10"/>
			<path style="fill: none; stroke: rgb(255, 255, 255); stroke-opacity: 0.180392; stroke-width: 2;" d="M 0 5 L 257.59360000000004 5" p:name="line" id="d6f355aef7c64f87ba3c021b9430dca5" transform="translate(0,0)"/>
		</g><g p:type="Shape" p:def="dgthanhan.AndroidNougatWireframe:card" id="38389faa7927402fa564c8c3d6ff1197" transform="matrix(1,0,0,1,16.85013198852539,467.4720153808594)"><p:metadata><p:property name="box">291.8826923828124,240.54399999999995</p:property><p:property name="fillColor">#EFEEF0FF</p:property><p:property name="shadowStyle">0|0|0|1</p:property></p:metadata>
      <defs>
        <filter x="-50%" width="200%" y="-50%" height="200%" p:name="rectangle0_shadowFilter" id="b06d1f0c14db4385b69d033782a38c3c"><feGaussianBlur in="SourceAlpha" stdDeviation="0"/><feOffset dx="0" dy="0"/><feComponentTransfer><feFuncA type="linear" slope="1"/></feComponentTransfer><feMerge><feMergeNode/><feMergeNode in="SourceGraphic"/></feMerge></filter>
      </defs>
      <g p:filter="url(#b06d1f0c14db4385b69d033782a38c3c)" p:name="rectangle0_globalGroup" id="1b5a313cb14e478d90c1a8c8338608c9" filter="url(#b06d1f0c14db4385b69d033782a38c3c)">
        <rect p:filter="url(#16f769fdf557447d924ee29576d3d736)" rx="2.0846560846560847" ry="2.0846560846560847" style="fill: rgb(239, 238, 240); fill-opacity: 1; stroke: rgb(96, 96, 96); stroke-opacity: 1; stroke-width: 0;" width="292" height="241" p:name="rectangle0" id="40bd3befb5d74ca9a7eaa7d633a739a6" x="0" y="0"/>
      </g>
    </g><g p:type="Shape" p:def="dgthanhan.AndroidNougatWireframe:snackbar" p:sc="Snackbar - no action" id="f3e7b1d4403f4bb4a6f7542c7abdf4cd" transform="matrix(1,0,0,1,16.772823333740234,466.4720153808594)" p:sizing-ox="0" p:sizing-oy="0" p:sizing-ow="291.1505085937501" p:sizing-oh="52.9152"><p:metadata><p:property name="box">291,53</p:property><p:property name="fillColor">#EFEEF0FF</p:property><p:property name="radius">0,0</p:property><p:property name="shadowStyle">0|0|0|1</p:property><p:property name="textAlignment">0,1</p:property><p:property name="textColor">#000000FF</p:property><p:property name="textFont">Android Roboto|500|normal|14px|none</p:property><p:property name="text0">   Delete account</p:property><p:property name="textColor2">#FFFF00DE</p:property><p:property name="textFont2">Android Roboto|500|normal|14px|none</p:property><p:property name="textAction"/></p:metadata>
      <defs>
        <filter x="-50%" width="200%" y="-50%" height="200%" p:name="rectangle0_shadowFilter" id="3d482717df374ae0b97cd9862d7aa399"><feGaussianBlur in="SourceAlpha" stdDeviation="0"/><feOffset dx="0" dy="0"/><feComponentTransfer><feFuncA type="linear" slope="1"/></feComponentTransfer><feMerge><feMergeNode/><feMergeNode in="SourceGraphic"/></feMerge></filter>
      </defs>
      <g p:filter="url(#3d482717df374ae0b97cd9862d7aa399)" p:name="rectangle0_globalGroup" id="c059f86cc9464b57b7c876ee592578d4" filter="url(#3d482717df374ae0b97cd9862d7aa399)">
        <rect p:filter="url(#043614bf39134a0c9a693839a266d5fd)" rx="0" ry="0" style="fill: rgb(239, 238, 240); fill-opacity: 1; stroke: rgb(0, 0, 0); stroke-opacity: 1; stroke-width: 0;" width="291" height="53" p:name="rectangle0" id="1c4c540b80e84dbea19b2e1d0e9290b5" x="0" y="0"/>
      </g>
      <g p:filter="url(#e22d30b7a4054f35be5d5d70112a8835)" dominant-baseline="auto" p:name="text0text" id="3e8b3acf84064cd8a4425724b544c704" style="fill: rgb(0, 0, 0); fill-opacity: 1; color: rgb(0, 0, 0); font-family: &quot;Android Roboto&quot;; font-size: 14px; font-weight: 500; font-style: normal; text-decoration: none;"><g transform="translate(0,4)"><text><tspan x="24" y="27" style="font-family: &quot;Android Roboto&quot;; font-size: 14px; font-weight: 500; font-style: normal; text-decoration: none; text-transform: none; fill: rgb(0, 0, 0); background-color: rgba(0, 0, 0, 0);">   Delete account</tspan></text></g></g>
      <g p:filter="url(#c4b1e4a3bb7c410480808f4a5bec5fac)" dominant-baseline="auto" p:name="textActiontext" id="612af5197b704a5c9fe303963d201739" style="fill: rgb(255, 255, 0); fill-opacity: 0.870588; color: rgba(255, 255, 0, 0.870588); font-family: &quot;Android Roboto&quot;; font-size: 14px; font-weight: 500; font-style: normal; text-decoration: none;"/>
    </g><g p:type="Shape" p:def="nz.nwatson.MaterialIcons:delete" id="50f7b86fe95d4175981d0ae70e503a19" transform="matrix(1,0,0,1,22,482.3601379394531)"><p:metadata><p:property name="box">24,24</p:property><p:property name="fillColor">#666666FF</p:property></p:metadata>
      <rect style="fill: #000000; fill-opacity: 0; stroke: none;" x="0" y="0" p:name="bgRect" id="588f78683b9b44c1926ca0bd362a1f60" width="24" height="24"/>
      <g p:name="icon" id="df5516cba05b48e5b04a7164f73adcb9" transform="scale(1,1)" style="fill: rgb(102, 102, 102); fill-opacity: 1;">
        <path stroke-linejoin="round" d="M 19,4L 15.5,4L 14.5,3L 9.5,3L 8.5,4L 5,4L 5,6L 19,6M 6,19C 6,20.1 6.9,21 8,21L 16,21C 17.1,21 18,20.1 18,19L 18,7L 6,7L 6,19 Z "/>
      </g>
    </g><g p:type="Shape" p:def="nz.nwatson.MaterialIcons:question-mark-circle" id="dc92ec101c33428d90f75ba21aa3b62f" transform="matrix(1,0,0,1,23,430.4720153808594)"><p:metadata><p:property name="box">24,24</p:property><p:property name="fillColor">#666666FF</p:property></p:metadata>
      <rect style="fill: #000000; fill-opacity: 0; stroke: none;" x="0" y="0" p:name="bgRect" id="f6a6380f97e047ebb858733701d41195" width="24" height="24"/>
      <g p:name="icon" id="719f651eebf74a858929ec420b93d111" transform="scale(1,1)" style="fill: rgb(102, 102, 102); fill-opacity: 1;">
        <path stroke-width="1.33333" stroke-linejoin="miter" d="M 12,2C 6.47711,2 2,6.4766 2,12C 2,17.5234 6.47711,22 12,22C 17.5234,22 22,17.5234 22,12C 22,6.4766 17.5234,2 12,2 Z M 13,19L 11,19L 11,17L 13,17L 13,19 Z M 15.0667,11.2537L 14.1716,12.1716C 13.4478,12.8955 13,13.5 13,15L 11,15L 11,14.5002C 11,13.3957 11.4478,12.3957 12.1714,11.6719L 13.4143,10.4141C 13.7761,10.0521 14,9.5522 14,9C 14,7.8954 13.1045,7 12,7C 10.8955,7 10,7.8954 10,9L 8,9C 8,6.7908 9.79099,5 12,5C 14.2092,5 16,6.7908 16,9C 16,9.8801 15.6433,10.6769 15.0667,11.2537 Z "/>
      </g>
    </g><g p:type="Shape" p:def="nz.nwatson.MaterialIcons:information-outline" id="99aec2387cac434c8bc7aef1e9058d9f" transform="matrix(1,0,0,1,23,376)"><p:metadata><p:property name="box">24,24</p:property><p:property name="fillColor">#666666FF</p:property></p:metadata>
      <rect style="fill: #000000; fill-opacity: 0; stroke: none;" x="0" y="0" p:name="bgRect" id="9d8f677dd29443a280b1e43fb7d8768a" width="24" height="24"/>
      <g p:name="icon" id="174735c66a474a819f727d5556e45d27" transform="scale(1,1)" style="fill: rgb(102, 102, 102); fill-opacity: 1;">
        <path stroke-width="0.2" stroke-linejoin="round" d="M 10.9994,8.99805L 12.9994,8.99805L 12.9994,6.99805L 10.9994,6.99805M 11.9994,19.998C 7.58838,19.998 3.99939,16.4091 3.99939,11.998C 3.99939,7.58704 7.58838,3.99805 11.9994,3.99805C 16.4104,3.99805 19.9994,7.58704 19.9994,11.998C 19.9994,16.4091 16.4104,19.998 11.9994,19.998 Z M 11.9994,1.99805C 6.47638,1.99805 1.99939,6.47504 1.99939,11.998C 1.99939,17.5211 6.47638,21.998 11.9994,21.998C 17.5224,21.998 21.9994,17.5211 21.9994,11.998C 21.9994,6.47504 17.5224,1.99805 11.9994,1.99805 Z M 10.9994,16.998L 12.9994,16.998L 12.9994,10.998L 10.9994,10.998L 10.9994,16.998 Z "/>
      </g>
    </g><g p:type="Shape" p:def="dgthanhan.AndroidNougatWireframe:snackbar" p:sc="Snackbar - no action" id="22ccb50e5d0f40ceb806e894ff4657eb" transform="matrix(1,0,0,1,16.772823333740234,517.4720458984375)" p:sizing-ox="0" p:sizing-oy="0" p:sizing-ow="291.1505085937501" p:sizing-oh="52.9152"><p:metadata><p:property name="box">291.1505085937501,52.9152</p:property><p:property name="fillColor">#EFEEF0FF</p:property><p:property name="radius">0,0</p:property><p:property name="shadowStyle">0|0|0|1</p:property><p:property name="textAlignment">0,1</p:property><p:property name="textColor">#000000FF</p:property><p:property name="textFont">Android Roboto|500|normal|14px|none</p:property><p:property name="text0">   Logout</p:property><p:property name="textColor2">#FFFF00DE</p:property><p:property name="textFont2">Android Roboto|500|normal|14px|none</p:property><p:property name="textAction"/></p:metadata>
      <defs>
        <filter x="-50%" width="200%" y="-50%" height="200%" p:name="rectangle0_shadowFilter" id="29ae77d8955a494195d1a280caa2bf7f"><feGaussianBlur in="SourceAlpha" stdDeviation="0"/><feOffset dx="0" dy="0"/><feComponentTransfer><feFuncA type="linear" slope="1"/></feComponentTransfer><feMerge><feMergeNode/><feMergeNode in="SourceGraphic"/></feMerge></filter>
      </defs>
      <g p:filter="url(#29ae77d8955a494195d1a280caa2bf7f)" p:name="rectangle0_globalGroup" id="5c0a1b5dc7934106852cf7ddcf540f87" filter="url(#29ae77d8955a494195d1a280caa2bf7f)">
        <rect p:filter="url(#043614bf39134a0c9a693839a266d5fd)" rx="0" ry="0" style="fill: rgb(239, 238, 240); fill-opacity: 1; stroke: rgb(0, 0, 0); stroke-opacity: 1; stroke-width: 0;" width="291" height="53" p:name="rectangle0" id="7b1e111cab534da5833b4e33fbedc61e" x="0" y="0"/>
      </g>
      <g p:filter="url(#e22d30b7a4054f35be5d5d70112a8835)" dominant-baseline="auto" p:name="text0text" id="625270410aec438e9a403e66591a86c6" style="fill: rgb(0, 0, 0); fill-opacity: 1; color: rgb(0, 0, 0); font-family: &quot;Android Roboto&quot;; font-size: 14px; font-weight: 500; font-style: normal; text-decoration: none;"><g transform="translate(0,4)"><text><tspan x="24" y="27" style="font-family: &quot;Android Roboto&quot;; font-size: 14px; font-weight: 500; font-style: normal; text-decoration: none; text-transform: none; fill: rgb(0, 0, 0); background-color: rgba(0, 0, 0, 0);">   Logout</tspan></text></g></g>
      <g p:filter="url(#c4b1e4a3bb7c410480808f4a5bec5fac)" dominant-baseline="auto" p:name="textActiontext" id="6a3a1685847e491e93c941b544b36e81" style="fill: rgb(255, 255, 0); fill-opacity: 0.870588; color: rgba(255, 255, 0, 0.870588); font-family: &quot;Android Roboto&quot;; font-size: 14px; font-weight: 500; font-style: normal; text-decoration: none;"/>
    </g><g p:type="Shape" p:def="nz.nwatson.MaterialIcons:logout" id="e610e029f9b0403989913807accd575d" transform="matrix(1,0,0,1,25,532)"><p:metadata><p:property name="box">24,24</p:property><p:property name="fillColor">#666666FF</p:property></p:metadata>
      <rect style="fill: #000000; fill-opacity: 0; stroke: none;" x="0" y="0" p:name="bgRect" id="420d52f392954e11b6732a70baadf079" width="24" height="24"/>
      <g p:name="icon" id="1f7d4323d0d04e60b987569756b683b8" transform="scale(1,1)" style="fill: rgb(102, 102, 102); fill-opacity: 1;">
        <path stroke-width="0.2" stroke-linejoin="round" d="M 16.9999,17.25L 16.9999,14L 9.99998,14L 9.99998,10L 16.9999,10L 16.9999,6.75L 22.2499,12L 16.9999,17.25 Z M 13,2.00002C 14.1046,2.00002 15,2.89545 15,4.00002L 15,8L 13,8L 13,4.00002L 4,4.00004L 4,20L 13,20L 13,16L 15,16L 15,20C 15,21.1046 14.1046,22 13,22L 4,22C 2.89543,22 2,21.1046 2,20L 2,4.00004C 2,2.89547 2.89543,2.00006 4,2.00006L 13,2.00002 Z "/>
      </g>
    </g><g p:type="Shape" p:def="nz.nwatson.MaterialIcons:brightness-5" id="0cda32d6672340b894a42106d5ab4a72" transform="matrix(1,0,0,1,26,321)"><p:metadata><p:property name="box">20,20</p:property><p:property name="fillColor">#666666FF</p:property></p:metadata>
      <rect style="fill: #000000; fill-opacity: 0; stroke: none;" x="0" y="0" p:name="bgRect" id="8060231edb1f41059111b6c62ba91388" width="20" height="20"/>
      <g p:name="icon" id="f9d4146325b64472a10bb9da649846e5" transform="scale(0.8333333333333334,0.8333333333333334)" style="fill: rgb(102, 102, 102); fill-opacity: 1;">
        <path stroke-linejoin="round" d="M 12,18C 8.69,18 6,15.31 6,12C 6,8.69 8.69,6 12,6C 15.31,6 18,8.69 18,12C 18,15.31 15.31,18 12,18 Z M 20,15.31L 23.31,12L 20,8.69L 20,4L 15.31,4L 12,0.690002L 8.69,4L 4,4L 4,8.69L 0.69,12L 4,15.31L 4,20L 8.69,20L 12,23.31L 15.31,20L 20,20L 20,15.31 Z "/>
      </g>
    </g></g></g></svg>