<svg xmlns="http://www.w3.org/2000/svg" xmlns:p="http://www.evolus.vn/Namespace/Pencil" xmlns:pencil="http://www.evolus.vn/Namespace/Pencil" xmlns:html="http://www.w3.org/1999/xhtml" xmlns:xhtml="http://www.w3.org/1999/xhtml" xmlns:office="urn:oasis:names:tc:opendocument:xmlns:office:1.0" xmlns:style="urn:oasis:names:tc:opendocument:xmlns:style:1.0" xmlns:text="urn:oasis:names:tc:opendocument:xmlns:text:1.0" xmlns:table="urn:oasis:names:tc:opendocument:xmlns:table:1.0" xmlns:draw="urn:oasis:names:tc:opendocument:xmlns:drawing:1.0" xmlns:fo="urn:oasis:names:tc:opendocument:xmlns:xsl-fo-compatible:1.0" xmlns:xlink="http://www.w3.org/1999/xlink" xmlns:dc="http://purl.org/dc/elements/1.1/" xmlns:meta="urn:oasis:names:tc:opendocument:xmlns:meta:1.0" xmlns:number="urn:oasis:names:tc:opendocument:xmlns:datastyle:1.0" xmlns:svg="urn:oasis:names:tc:opendocument:xmlns:svg-compatible:1.0" xmlns:chart="urn:oasis:names:tc:opendocument:xmlns:chart:1.0" xmlns:dr3d="urn:oasis:names:tc:opendocument:xmlns:dr3d:1.0" xmlns:math="http://www.w3.org/1998/Math/MathML" xmlns:form="urn:oasis:names:tc:opendocument:xmlns:form:1.0" xmlns:script="urn:oasis:names:tc:opendocument:xmlns:script:1.0" xmlns:ooo="http://openoffice.org/2004/office" xmlns:ooow="http://openoffice.org/2004/writer" xmlns:oooc="http://openoffice.org/2004/calc" xmlns:dom="http://www.w3.org/2001/xml-events" xmlns:xforms="http://www.w3.org/2002/xforms" xmlns:xsd="http://www.w3.org/2001/XMLSchema" xmlns:xsi="http://www.w3.org/2001/XMLSchema-instance" xmlns:rpt="http://openoffice.org/2005/report" xmlns:of="urn:oasis:names:tc:opendocument:xmlns:of:1.2" xmlns:rdfa="http://docs.oasis-open.org/opendocument/meta/rdfa#" xmlns:field="urn:openoffice:names:experimental:ooo-ms-interop:xmlns:field:1.0" xmlns:regexp="http://exslt.org/regular-expressions" xmlns:em="http://exslt.org/math" xmlns:sodipodi="http://sodipodi.sourceforge.net/DTD/sodipodi-0.dtd" xmlns:inkscape="http://www.inkscape.org/namespaces/inkscape" width="396" height="804" id="exportedSVG" version="1.1" pencil:version="1.2.2" sodipodi:docname="SignUp_Verifification"><g inkscape:label="Untitled Page" inkscape:groupmode="layer" id="layer_untitled_page"><g><rect x="0" y="0" width="396" height="804" fill="none"/><g p:type="Group" transform="matrix(1,0,0,1,0,0)" id="ecf6299857794f79a5b9b6e0910fcca5" p:sizing-gow="396" p:sizing-goh="804"><g p:type="Shape" p:def="nz.nwatson.AndroidLollipop:Phone" id="f6eb2672eb704e8fa711a29d7f3c3c0c" transform="matrix(1,0,0,1,0,3)" p:sizing-ox="0" p:sizing-oy="0" p:sizing-ow="396" p:sizing-oh="798"><p:metadata><p:property name="box">396,798</p:property><p:property name="fillColor">#000000FF</p:property></p:metadata>

			<path p:name="phone" id="ede4f875bc934957a24a9da2dad09b98" d="M 30 12 C 16 14 0 26 0 43 L 0 755 C 0 772 16 784 30 786 C 142 801 254 801 366 786 C 380 784 396 772 396 755 L 396 43 C 396 26 380 14 366 12 C 254 -3 142 -3 30 12 z M 18 68 L 378 68 L 378 708 L 18 708 z" style="fill: rgb(0, 0, 0); fill-opacity: 1;"/>

		</g><g p:type="Shape" p:def="nz.nwatson.AndroidLollipop:NotificationBar" id="63f4ffa68c424cf4b7f2fa36c98d3cf9" transform="matrix(1,0,0,1,18,70)" p:sizing-ox="18" p:sizing-oy="70" p:sizing-ow="360" p:sizing-oh="24"><p:metadata><p:property name="box">360,24</p:property><p:property name="fillColor">#00000025</p:property></p:metadata>

			<defs>
				<linearGradient p:name="statusIconBg" id="8ae61076d12144e28de18cab3e83ad2c">
					<stop style="stop-color:#ffffff;stop-opacity:0.28627452;" offset="0"/>
				</linearGradient>
				<linearGradient p:name="statusIconFg" id="ad82939a227149fa829c76c5f784da02">
					<stop style="stop-color:#ffffff;stop-opacity:0.90196079;" offset="0"/>
				</linearGradient>
			</defs>

			<rect height="24" p:lockH="true" p:name="bg" id="f53eaa864a6f43a48c39977b75deda63" style="fill: rgb(0, 0, 0); fill-opacity: 0.145098;" width="360"/>

			<g p:name="icons" id="c9a58cd8f1eb4ebfa248f261e7eb1fd9" transform="translate(240,5)">

				<g style="fill: url(#8ae61076d12144e28de18cab3e83ad2c)">
					<path d="m0 2.532c4.821-3.376 11.239-3.376 16.06 0l-8.03 11.468z"/>
					<path d="m28.662 14l14-14v14z"/>
					<path d="m60.662 0v1h-1c-.554 0-1 .446-1 1v11c0 .554.446 1 1 1h7c.554 0 1-.446 1-1v-11c0-.554-.446-1-1-1h-1v-1h-5"/>
				</g>

				<g style="fill: url(#ad82939a227149fa829c76c5f784da02)">
					<path d="m2.026 5.426c3.605-2.524 8.403-2.524 12.01 0l-6 8.575z"/>
					<path d="m28.662 14l7-7v7z"/>
					<path d="m58.662 7v6c0 .554.446 1 1 1h7c.554 0 1-.446 1-1v-6z"/>

					<path d="m82.71 13h-.879v-9.609l-2.9 1.077v-.82l3.633-1.348h.146v10.701"/>
					<path d="m93.63 13h-6.68v-.674l3.494-3.962c.327-.371.603-.706.828-1 .229-.298.413-.574.549-.828.142-.259.242-.5.3-.725.063-.229.095-.457.095-.681 0-.322-.049-.615-.146-.879-.093-.269-.234-.5-.425-.696-.186-.195-.417-.347-.696-.454-.278-.107-.598-.161-.959-.161-.371 0-.706.063-1 .19-.293.122-.544.293-.754.513-.205.22-.364.481-.476.784-.112.303-.168.632-.168.989h-.872c0-.439.073-.854.22-1.245.151-.391.369-.732.652-1.025.283-.293.625-.525 1.025-.696.405-.171.864-.256 1.377-.256.479 0 .911.066 1.296.198.386.127.713.315.981.564.269.244.474.544.615.901.146.352.22.752.22 1.201 0 .322-.059.647-.176.974-.117.327-.273.652-.469.974-.195.322-.42.642-.674.959-.254.317-.515.63-.784.938l-2.974 3.362h5.603v.74"/>
					<path d="m95.2 12.473c0-.171.054-.315.161-.432.112-.122.266-.183.461-.183.195 0 .349.061.461.183.112.117.168.261.168.432 0 .171-.056.313-.168.425-.112.107-.266.161-.461.161-.195 0-.349-.054-.461-.161-.107-.112-.161-.254-.161-.425m.015-6.76c0-.171.054-.315.161-.432.112-.122.266-.183.461-.183.195 0 .349.061.461.183.112.117.168.261.168.432 0 .171-.056.313-.168.425-.112.107-.266.161-.461.161-.195 0-.349-.054-.461-.161-.107-.112-.161-.254-.161-.425"/>
					<path d="m100.38 7.192h.894c.41 0 .769-.054 1.077-.161.312-.112.574-.261.784-.447.21-.19.366-.41.469-.659.107-.254.161-.522.161-.806 0-.322-.046-.615-.139-.879-.088-.269-.225-.498-.41-.688-.181-.195-.413-.347-.696-.454-.278-.107-.61-.161-.996-.161-.337 0-.647.051-.93.154-.283.103-.53.249-.74.439-.21.19-.374.422-.491.696-.117.269-.176.571-.176.908h-.879c0-.43.081-.825.242-1.187.166-.361.391-.671.674-.93.288-.264.627-.466 1.018-.608.396-.146.823-.22 1.282-.22.469 0 .896.066 1.282.198.386.132.713.325.981.579.273.249.483.557.63.923.151.366.227.786.227 1.26 0 .239-.039.479-.117.718-.078.234-.193.457-.344.667-.151.21-.342.403-.571.579-.229.171-.493.313-.791.425.352.098.654.232.908.403.254.166.461.361.623.586.166.225.288.471.366.74.083.269.124.549.125.842 0 .483-.083.913-.249 1.289-.166.376-.396.696-.688.959-.293.259-.64.457-1.04.593-.4.132-.835.198-1.304.198-.435 0-.857-.063-1.267-.19-.405-.127-.769-.315-1.091-.564-.317-.254-.574-.571-.769-.952-.19-.381-.286-.825-.286-1.333h.879c0 .337.061.647.183.93.127.283.303.527.527.732.225.2.491.356.798.469.313.112.654.168 1.025.168.757 0 1.345-.193 1.765-.579.425-.391.637-.955.637-1.692 0-.386-.066-.718-.198-.996-.127-.278-.31-.505-.549-.681-.234-.181-.518-.312-.85-.396-.327-.083-.691-.125-1.091-.125h-.894v-.747"/>
					<path d="m113.18 8.554c0 .781-.073 1.46-.22 2.036-.146.576-.359 1.055-.637 1.436-.278.376-.62.657-1.025.842-.405.186-.867.278-1.384.278-.513 0-.972-.093-1.377-.278-.405-.186-.75-.466-1.033-.842-.283-.381-.5-.859-.652-1.436-.151-.576-.227-1.255-.227-2.036v-1.802c0-.781.073-1.458.22-2.029.151-.576.366-1.05.645-1.421.283-.376.627-.654 1.033-.835.405-.186.864-.278 1.377-.278.513 0 .972.093 1.377.278.41.181.754.459 1.033.835.283.371.498.845.645 1.421.151.571.227 1.248.227 2.029v1.802m-.879-1.912c0-1.221-.2-2.144-.601-2.769-.396-.625-.996-.937-1.802-.938-.801 0-1.401.313-1.802.938-.4.625-.601 1.548-.601 2.769v2.01c0 .601.051 1.135.154 1.604.103.464.254.857.454 1.179.205.317.459.559.762.725.303.166.652.249 1.047.249.4 0 .749-.083 1.047-.249.303-.166.552-.408.747-.725.2-.322.349-.715.447-1.179.098-.469.146-1 .146-1.604v-2.01"/>
				</g>
			</g>
		</g><g p:type="Shape" p:def="nz.nwatson.AndroidLollipop:SoftKeys" id="68bf9b8b114046f29690cb54f84f79f6" transform="matrix(1,0,0,1,18,726)" p:sizing-ox="18" p:sizing-oy="726" p:sizing-ow="360" p:sizing-oh="48"><p:metadata><p:property name="box">360,48</p:property><p:property name="fillColor">#000000FF</p:property></p:metadata>

			<rect p:name="bg" id="cb0fd7be543f484997b64f74bfa994b4" style="fill: rgb(0, 0, 0); fill-opacity: 1;" height="48" width="360"/>
			<g style="stroke-width: 2px; stroke:#FFFFFF; stroke-opacity:0.9; fill: none;stroke-linejoin:round" p:name="icons" id="6eb3e557b441413fb3e37762dbd6b80d" transform="translate(72,15)">
				<path d="m202.17 2h12c.554 0 1 .446 1 1v12c0 .554-.446 1-1 1h-12c-.554 0-1-.446-1-1v-12c0-.554.446-1 1-1z"/>
				<path d="m15.168 9c0 10.196 1.286 9.454-7.544 4.356-8.83-5.098-8.83-3.613 0-8.711 8.83-5.098 7.544-5.841 7.544 4.356z"/>
				<path d="m116.17 9c0 4.418-3.582 8-8 8-4.418 0-8-3.582-8-8 0-4.418 3.582-8 8-8 4.418 0 8 3.582 8 8z"/>
			</g>
		</g><g p:type="Shape" p:def="nz.nwatson.AndroidLollipop:NotificationBar" id="50ff590d073a434ea5ac0cebf9ddaa60" transform="matrix(1,0,0,1,18,70)" p:sizing-ox="18" p:sizing-oy="70" p:sizing-ow="360" p:sizing-oh="24"><p:metadata><p:property name="box">360,24</p:property><p:property name="fillColor">#00000025</p:property></p:metadata>

			<defs>
				<linearGradient p:name="statusIconBg" id="14d1e5a0d6c84a6ab39bd9a1150c9544">
					<stop style="stop-color:#ffffff;stop-opacity:0.28627452;" offset="0"/>
				</linearGradient>
				<linearGradient p:name="statusIconFg" id="1079f971b1944ff2b154dd9ccc592e1c">
					<stop style="stop-color:#ffffff;stop-opacity:0.90196079;" offset="0"/>
				</linearGradient>
			</defs>

			<rect height="24" p:lockH="true" p:name="bg" id="d2d6fa64708a4140a816abf839f7ffb3" style="fill: rgb(0, 0, 0); fill-opacity: 0.145098;" width="360"/>

			<g p:name="icons" id="84cc1b48720041dd829dae63d65af828" transform="translate(240,5)">

				<g style="fill: url(#14d1e5a0d6c84a6ab39bd9a1150c9544)">
					<path d="m0 2.532c4.821-3.376 11.239-3.376 16.06 0l-8.03 11.468z"/>
					<path d="m28.662 14l14-14v14z"/>
					<path d="m60.662 0v1h-1c-.554 0-1 .446-1 1v11c0 .554.446 1 1 1h7c.554 0 1-.446 1-1v-11c0-.554-.446-1-1-1h-1v-1h-5"/>
				</g>

				<g style="fill: url(#1079f971b1944ff2b154dd9ccc592e1c)">
					<path d="m2.026 5.426c3.605-2.524 8.403-2.524 12.01 0l-6 8.575z"/>
					<path d="m28.662 14l7-7v7z"/>
					<path d="m58.662 7v6c0 .554.446 1 1 1h7c.554 0 1-.446 1-1v-6z"/>

					<path d="m82.71 13h-.879v-9.609l-2.9 1.077v-.82l3.633-1.348h.146v10.701"/>
					<path d="m93.63 13h-6.68v-.674l3.494-3.962c.327-.371.603-.706.828-1 .229-.298.413-.574.549-.828.142-.259.242-.5.3-.725.063-.229.095-.457.095-.681 0-.322-.049-.615-.146-.879-.093-.269-.234-.5-.425-.696-.186-.195-.417-.347-.696-.454-.278-.107-.598-.161-.959-.161-.371 0-.706.063-1 .19-.293.122-.544.293-.754.513-.205.22-.364.481-.476.784-.112.303-.168.632-.168.989h-.872c0-.439.073-.854.22-1.245.151-.391.369-.732.652-1.025.283-.293.625-.525 1.025-.696.405-.171.864-.256 1.377-.256.479 0 .911.066 1.296.198.386.127.713.315.981.564.269.244.474.544.615.901.146.352.22.752.22 1.201 0 .322-.059.647-.176.974-.117.327-.273.652-.469.974-.195.322-.42.642-.674.959-.254.317-.515.63-.784.938l-2.974 3.362h5.603v.74"/>
					<path d="m95.2 12.473c0-.171.054-.315.161-.432.112-.122.266-.183.461-.183.195 0 .349.061.461.183.112.117.168.261.168.432 0 .171-.056.313-.168.425-.112.107-.266.161-.461.161-.195 0-.349-.054-.461-.161-.107-.112-.161-.254-.161-.425m.015-6.76c0-.171.054-.315.161-.432.112-.122.266-.183.461-.183.195 0 .349.061.461.183.112.117.168.261.168.432 0 .171-.056.313-.168.425-.112.107-.266.161-.461.161-.195 0-.349-.054-.461-.161-.107-.112-.161-.254-.161-.425"/>
					<path d="m100.38 7.192h.894c.41 0 .769-.054 1.077-.161.312-.112.574-.261.784-.447.21-.19.366-.41.469-.659.107-.254.161-.522.161-.806 0-.322-.046-.615-.139-.879-.088-.269-.225-.498-.41-.688-.181-.195-.413-.347-.696-.454-.278-.107-.61-.161-.996-.161-.337 0-.647.051-.93.154-.283.103-.53.249-.74.439-.21.19-.374.422-.491.696-.117.269-.176.571-.176.908h-.879c0-.43.081-.825.242-1.187.166-.361.391-.671.674-.93.288-.264.627-.466 1.018-.608.396-.146.823-.22 1.282-.22.469 0 .896.066 1.282.198.386.132.713.325.981.579.273.249.483.557.63.923.151.366.227.786.227 1.26 0 .239-.039.479-.117.718-.078.234-.193.457-.344.667-.151.21-.342.403-.571.579-.229.171-.493.313-.791.425.352.098.654.232.908.403.254.166.461.361.623.586.166.225.288.471.366.74.083.269.124.549.125.842 0 .483-.083.913-.249 1.289-.166.376-.396.696-.688.959-.293.259-.64.457-1.04.593-.4.132-.835.198-1.304.198-.435 0-.857-.063-1.267-.19-.405-.127-.769-.315-1.091-.564-.317-.254-.574-.571-.769-.952-.19-.381-.286-.825-.286-1.333h.879c0 .337.061.647.183.93.127.283.303.527.527.732.225.2.491.356.798.469.313.112.654.168 1.025.168.757 0 1.345-.193 1.765-.579.425-.391.637-.955.637-1.692 0-.386-.066-.718-.198-.996-.127-.278-.31-.505-.549-.681-.234-.181-.518-.312-.85-.396-.327-.083-.691-.125-1.091-.125h-.894v-.747"/>
					<path d="m113.18 8.554c0 .781-.073 1.46-.22 2.036-.146.576-.359 1.055-.637 1.436-.278.376-.62.657-1.025.842-.405.186-.867.278-1.384.278-.513 0-.972-.093-1.377-.278-.405-.186-.75-.466-1.033-.842-.283-.381-.5-.859-.652-1.436-.151-.576-.227-1.255-.227-2.036v-1.802c0-.781.073-1.458.22-2.029.151-.576.366-1.05.645-1.421.283-.376.627-.654 1.033-.835.405-.186.864-.278 1.377-.278.513 0 .972.093 1.377.278.41.181.754.459 1.033.835.283.371.498.845.645 1.421.151.571.227 1.248.227 2.029v1.802m-.879-1.912c0-1.221-.2-2.144-.601-2.769-.396-.625-.996-.937-1.802-.938-.801 0-1.401.313-1.802.938-.4.625-.601 1.548-.601 2.769v2.01c0 .601.051 1.135.154 1.604.103.464.254.857.454 1.179.205.317.459.559.762.725.303.166.652.249 1.047.249.4 0 .749-.083 1.047-.249.303-.166.552-.408.747-.725.2-.322.349-.715.447-1.179.098-.469.146-1 .146-1.604v-2.01"/>
				</g>
			</g>
		</g><g p:type="Shape" p:def="nz.nwatson.AndroidLollipop:NotificationBar" id="8ff74bd9553e45949f283ca70b8684ce" transform="matrix(1,0,0,1,18,70)" p:sizing-ox="18" p:sizing-oy="70" p:sizing-ow="360" p:sizing-oh="24"><p:metadata><p:property name="box">360,24</p:property><p:property name="fillColor">#00000025</p:property></p:metadata>

			<defs>
				<linearGradient p:name="statusIconBg" id="21272f33c7ab4dcbb397b91aaada02d2">
					<stop style="stop-color:#ffffff;stop-opacity:0.28627452;" offset="0"/>
				</linearGradient>
				<linearGradient p:name="statusIconFg" id="8d070465a6434ddeb7f0331895fe615b">
					<stop style="stop-color:#ffffff;stop-opacity:0.90196079;" offset="0"/>
				</linearGradient>
			</defs>

			<rect height="24" p:lockH="true" p:name="bg" id="90fc0c17cf8b46d09d6cdf21149e5ce0" style="fill: rgb(0, 0, 0); fill-opacity: 0.145098;" width="360"/>

			<g p:name="icons" id="d2740d74d03e4a549c4cef5c2004c15f" transform="translate(240,5)">

				<g style="fill: url(#21272f33c7ab4dcbb397b91aaada02d2)">
					<path d="m0 2.532c4.821-3.376 11.239-3.376 16.06 0l-8.03 11.468z"/>
					<path d="m28.662 14l14-14v14z"/>
					<path d="m60.662 0v1h-1c-.554 0-1 .446-1 1v11c0 .554.446 1 1 1h7c.554 0 1-.446 1-1v-11c0-.554-.446-1-1-1h-1v-1h-5"/>
				</g>

				<g style="fill: url(#8d070465a6434ddeb7f0331895fe615b)">
					<path d="m2.026 5.426c3.605-2.524 8.403-2.524 12.01 0l-6 8.575z"/>
					<path d="m28.662 14l7-7v7z"/>
					<path d="m58.662 7v6c0 .554.446 1 1 1h7c.554 0 1-.446 1-1v-6z"/>

					<path d="m82.71 13h-.879v-9.609l-2.9 1.077v-.82l3.633-1.348h.146v10.701"/>
					<path d="m93.63 13h-6.68v-.674l3.494-3.962c.327-.371.603-.706.828-1 .229-.298.413-.574.549-.828.142-.259.242-.5.3-.725.063-.229.095-.457.095-.681 0-.322-.049-.615-.146-.879-.093-.269-.234-.5-.425-.696-.186-.195-.417-.347-.696-.454-.278-.107-.598-.161-.959-.161-.371 0-.706.063-1 .19-.293.122-.544.293-.754.513-.205.22-.364.481-.476.784-.112.303-.168.632-.168.989h-.872c0-.439.073-.854.22-1.245.151-.391.369-.732.652-1.025.283-.293.625-.525 1.025-.696.405-.171.864-.256 1.377-.256.479 0 .911.066 1.296.198.386.127.713.315.981.564.269.244.474.544.615.901.146.352.22.752.22 1.201 0 .322-.059.647-.176.974-.117.327-.273.652-.469.974-.195.322-.42.642-.674.959-.254.317-.515.63-.784.938l-2.974 3.362h5.603v.74"/>
					<path d="m95.2 12.473c0-.171.054-.315.161-.432.112-.122.266-.183.461-.183.195 0 .349.061.461.183.112.117.168.261.168.432 0 .171-.056.313-.168.425-.112.107-.266.161-.461.161-.195 0-.349-.054-.461-.161-.107-.112-.161-.254-.161-.425m.015-6.76c0-.171.054-.315.161-.432.112-.122.266-.183.461-.183.195 0 .349.061.461.183.112.117.168.261.168.432 0 .171-.056.313-.168.425-.112.107-.266.161-.461.161-.195 0-.349-.054-.461-.161-.107-.112-.161-.254-.161-.425"/>
					<path d="m100.38 7.192h.894c.41 0 .769-.054 1.077-.161.312-.112.574-.261.784-.447.21-.19.366-.41.469-.659.107-.254.161-.522.161-.806 0-.322-.046-.615-.139-.879-.088-.269-.225-.498-.41-.688-.181-.195-.413-.347-.696-.454-.278-.107-.61-.161-.996-.161-.337 0-.647.051-.93.154-.283.103-.53.249-.74.439-.21.19-.374.422-.491.696-.117.269-.176.571-.176.908h-.879c0-.43.081-.825.242-1.187.166-.361.391-.671.674-.93.288-.264.627-.466 1.018-.608.396-.146.823-.22 1.282-.22.469 0 .896.066 1.282.198.386.132.713.325.981.579.273.249.483.557.63.923.151.366.227.786.227 1.26 0 .239-.039.479-.117.718-.078.234-.193.457-.344.667-.151.21-.342.403-.571.579-.229.171-.493.313-.791.425.352.098.654.232.908.403.254.166.461.361.623.586.166.225.288.471.366.74.083.269.124.549.125.842 0 .483-.083.913-.249 1.289-.166.376-.396.696-.688.959-.293.259-.64.457-1.04.593-.4.132-.835.198-1.304.198-.435 0-.857-.063-1.267-.19-.405-.127-.769-.315-1.091-.564-.317-.254-.574-.571-.769-.952-.19-.381-.286-.825-.286-1.333h.879c0 .337.061.647.183.93.127.283.303.527.527.732.225.2.491.356.798.469.313.112.654.168 1.025.168.757 0 1.345-.193 1.765-.579.425-.391.637-.955.637-1.692 0-.386-.066-.718-.198-.996-.127-.278-.31-.505-.549-.681-.234-.181-.518-.312-.85-.396-.327-.083-.691-.125-1.091-.125h-.894v-.747"/>
					<path d="m113.18 8.554c0 .781-.073 1.46-.22 2.036-.146.576-.359 1.055-.637 1.436-.278.376-.62.657-1.025.842-.405.186-.867.278-1.384.278-.513 0-.972-.093-1.377-.278-.405-.186-.75-.466-1.033-.842-.283-.381-.5-.859-.652-1.436-.151-.576-.227-1.255-.227-2.036v-1.802c0-.781.073-1.458.22-2.029.151-.576.366-1.05.645-1.421.283-.376.627-.654 1.033-.835.405-.186.864-.278 1.377-.278.513 0 .972.093 1.377.278.41.181.754.459 1.033.835.283.371.498.845.645 1.421.151.571.227 1.248.227 2.029v1.802m-.879-1.912c0-1.221-.2-2.144-.601-2.769-.396-.625-.996-.937-1.802-.938-.801 0-1.401.313-1.802.938-.4.625-.601 1.548-.601 2.769v2.01c0 .601.051 1.135.154 1.604.103.464.254.857.454 1.179.205.317.459.559.762.725.303.166.652.249 1.047.249.4 0 .749-.083 1.047-.249.303-.166.552-.408.747-.725.2-.322.349-.715.447-1.179.098-.469.146-1 .146-1.604v-2.01"/>
				</g>
			</g>
		</g><g p:type="Shape" p:def="nz.nwatson.AndroidLollipop:NotificationBar" id="4964ebb7b3394626af15f92a7778ea85" transform="matrix(1,0,0,1,18,70)" p:sizing-ox="18" p:sizing-oy="70" p:sizing-ow="360" p:sizing-oh="24"><p:metadata><p:property name="box">360,24</p:property><p:property name="fillColor">#00000025</p:property></p:metadata>

			<defs>
				<linearGradient p:name="statusIconBg" id="0ca6541659a742349b73e2435ae5ce69">
					<stop style="stop-color:#ffffff;stop-opacity:0.28627452;" offset="0"/>
				</linearGradient>
				<linearGradient p:name="statusIconFg" id="d66ace11517d44418a52b043d2744e66">
					<stop style="stop-color:#ffffff;stop-opacity:0.90196079;" offset="0"/>
				</linearGradient>
			</defs>

			<rect height="24" p:lockH="true" p:name="bg" id="184199140a1f45899bf8a39394dc2ae6" style="fill: rgb(0, 0, 0); fill-opacity: 0.145098;" width="360"/>

			<g p:name="icons" id="c6cb9c0379f34680a8c3efccb23a506a" transform="translate(240,5)">

				<g style="fill: url(#0ca6541659a742349b73e2435ae5ce69)">
					<path d="m0 2.532c4.821-3.376 11.239-3.376 16.06 0l-8.03 11.468z"/>
					<path d="m28.662 14l14-14v14z"/>
					<path d="m60.662 0v1h-1c-.554 0-1 .446-1 1v11c0 .554.446 1 1 1h7c.554 0 1-.446 1-1v-11c0-.554-.446-1-1-1h-1v-1h-5"/>
				</g>

				<g style="fill: url(#d66ace11517d44418a52b043d2744e66)">
					<path d="m2.026 5.426c3.605-2.524 8.403-2.524 12.01 0l-6 8.575z"/>
					<path d="m28.662 14l7-7v7z"/>
					<path d="m58.662 7v6c0 .554.446 1 1 1h7c.554 0 1-.446 1-1v-6z"/>

					<path d="m82.71 13h-.879v-9.609l-2.9 1.077v-.82l3.633-1.348h.146v10.701"/>
					<path d="m93.63 13h-6.68v-.674l3.494-3.962c.327-.371.603-.706.828-1 .229-.298.413-.574.549-.828.142-.259.242-.5.3-.725.063-.229.095-.457.095-.681 0-.322-.049-.615-.146-.879-.093-.269-.234-.5-.425-.696-.186-.195-.417-.347-.696-.454-.278-.107-.598-.161-.959-.161-.371 0-.706.063-1 .19-.293.122-.544.293-.754.513-.205.22-.364.481-.476.784-.112.303-.168.632-.168.989h-.872c0-.439.073-.854.22-1.245.151-.391.369-.732.652-1.025.283-.293.625-.525 1.025-.696.405-.171.864-.256 1.377-.256.479 0 .911.066 1.296.198.386.127.713.315.981.564.269.244.474.544.615.901.146.352.22.752.22 1.201 0 .322-.059.647-.176.974-.117.327-.273.652-.469.974-.195.322-.42.642-.674.959-.254.317-.515.63-.784.938l-2.974 3.362h5.603v.74"/>
					<path d="m95.2 12.473c0-.171.054-.315.161-.432.112-.122.266-.183.461-.183.195 0 .349.061.461.183.112.117.168.261.168.432 0 .171-.056.313-.168.425-.112.107-.266.161-.461.161-.195 0-.349-.054-.461-.161-.107-.112-.161-.254-.161-.425m.015-6.76c0-.171.054-.315.161-.432.112-.122.266-.183.461-.183.195 0 .349.061.461.183.112.117.168.261.168.432 0 .171-.056.313-.168.425-.112.107-.266.161-.461.161-.195 0-.349-.054-.461-.161-.107-.112-.161-.254-.161-.425"/>
					<path d="m100.38 7.192h.894c.41 0 .769-.054 1.077-.161.312-.112.574-.261.784-.447.21-.19.366-.41.469-.659.107-.254.161-.522.161-.806 0-.322-.046-.615-.139-.879-.088-.269-.225-.498-.41-.688-.181-.195-.413-.347-.696-.454-.278-.107-.61-.161-.996-.161-.337 0-.647.051-.93.154-.283.103-.53.249-.74.439-.21.19-.374.422-.491.696-.117.269-.176.571-.176.908h-.879c0-.43.081-.825.242-1.187.166-.361.391-.671.674-.93.288-.264.627-.466 1.018-.608.396-.146.823-.22 1.282-.22.469 0 .896.066 1.282.198.386.132.713.325.981.579.273.249.483.557.63.923.151.366.227.786.227 1.26 0 .239-.039.479-.117.718-.078.234-.193.457-.344.667-.151.21-.342.403-.571.579-.229.171-.493.313-.791.425.352.098.654.232.908.403.254.166.461.361.623.586.166.225.288.471.366.74.083.269.124.549.125.842 0 .483-.083.913-.249 1.289-.166.376-.396.696-.688.959-.293.259-.64.457-1.04.593-.4.132-.835.198-1.304.198-.435 0-.857-.063-1.267-.19-.405-.127-.769-.315-1.091-.564-.317-.254-.574-.571-.769-.952-.19-.381-.286-.825-.286-1.333h.879c0 .337.061.647.183.93.127.283.303.527.527.732.225.2.491.356.798.469.313.112.654.168 1.025.168.757 0 1.345-.193 1.765-.579.425-.391.637-.955.637-1.692 0-.386-.066-.718-.198-.996-.127-.278-.31-.505-.549-.681-.234-.181-.518-.312-.85-.396-.327-.083-.691-.125-1.091-.125h-.894v-.747"/>
					<path d="m113.18 8.554c0 .781-.073 1.46-.22 2.036-.146.576-.359 1.055-.637 1.436-.278.376-.62.657-1.025.842-.405.186-.867.278-1.384.278-.513 0-.972-.093-1.377-.278-.405-.186-.75-.466-1.033-.842-.283-.381-.5-.859-.652-1.436-.151-.576-.227-1.255-.227-2.036v-1.802c0-.781.073-1.458.22-2.029.151-.576.366-1.05.645-1.421.283-.376.627-.654 1.033-.835.405-.186.864-.278 1.377-.278.513 0 .972.093 1.377.278.41.181.754.459 1.033.835.283.371.498.845.645 1.421.151.571.227 1.248.227 2.029v1.802m-.879-1.912c0-1.221-.2-2.144-.601-2.769-.396-.625-.996-.937-1.802-.938-.801 0-1.401.313-1.802.938-.4.625-.601 1.548-.601 2.769v2.01c0 .601.051 1.135.154 1.604.103.464.254.857.454 1.179.205.317.459.559.762.725.303.166.652.249 1.047.249.4 0 .749-.083 1.047-.249.303-.166.552-.408.747-.725.2-.322.349-.715.447-1.179.098-.469.146-1 .146-1.604v-2.01"/>
				</g>
			</g>
		</g></g><g p:type="Shape" p:def="nz.nwatson.AndroidLollipop:Card" id="a92011eb04cb44478ac0646b9148b711" transform="matrix(1,0,0,1,19,94)"><p:metadata><p:property name="box">360,620</p:property><p:property name="shadow">true</p:property><p:property name="fillColor">#EFEEF0FF</p:property></p:metadata>

			<defs>
				<filter p:name="dropShadow" id="60bfeeec43fe493587016f64fe2aed8c">
					<feFlood flood-opacity="0.35" flood-color="rgb(0,0,0)" result="flood" p:name="flood" id="0c8e5722694042089a8991bbf8caf613"/>
					<feComposite in="flood" in2="SourceGraphic" operator="in"/>
					<feGaussianBlur stdDeviation="2"/>
					<feOffset dx="0" dy="1"/>
				</filter>

				<rect rx="2px" ry="2px" p:name="card" id="36f5f0cc85d842329bebe1cd2ba1b2e2" style="fill: rgb(239, 238, 240); fill-opacity: 1;" height="620" width="360"/>
			</defs>

			<use xlink:href="#36f5f0cc85d842329bebe1cd2ba1b2e2" p:heavy="true" p:filter="url(#60bfeeec43fe493587016f64fe2aed8c)" p:name="shadow" id="c3d829bf541d4f02a580f96aa3805a03" filter="url(#60bfeeec43fe493587016f64fe2aed8c)" style="visibility: visible;"/>
			<use xlink:href="#36f5f0cc85d842329bebe1cd2ba1b2e2"/>

		</g><g p:type="Shape" p:def="dgthanhan.AndroidNougatWireframe:snackbar" p:sc="Snackbar - no action" id="bf99c11d4b8446298def0d043cf8a152" transform="matrix(1,0,0,1,18,93)"><p:metadata><p:property name="box">361,41</p:property><p:property name="fillColor">#1D8668FF</p:property><p:property name="radius">0,0</p:property><p:property name="shadowStyle">0|0|0|1</p:property><p:property name="textAlignment">0,1</p:property><p:property name="textColor">#FFFFFFFF</p:property><p:property name="textFont">Android Roboto|normal|normal|14px|none</p:property><p:property name="text0">Confirm your account</p:property><p:property name="textColor2">#FFFF00DE</p:property><p:property name="textFont2">Android Roboto|500|normal|14px|none</p:property><p:property name="textAction"/></p:metadata>
      <defs>
        <filter x="-50%" width="200%" y="-50%" height="200%" p:name="rectangle0_shadowFilter" id="4a115fb0453d49fea95240dd55894cb5"><feGaussianBlur in="SourceAlpha" stdDeviation="0"/><feOffset dx="0" dy="0"/><feComponentTransfer><feFuncA type="linear" slope="1"/></feComponentTransfer><feMerge><feMergeNode/><feMergeNode in="SourceGraphic"/></feMerge></filter>
      </defs>
      <g p:filter="url(#4a115fb0453d49fea95240dd55894cb5)" p:name="rectangle0_globalGroup" id="7160c2904a854d15934a33cc9b3efc28" filter="url(#4a115fb0453d49fea95240dd55894cb5)">
        <rect p:filter="url(#043614bf39134a0c9a693839a266d5fd)" rx="0" ry="0" style="fill: rgb(29, 134, 104); fill-opacity: 1; stroke: rgb(0, 0, 0); stroke-opacity: 1; stroke-width: 0;" width="361" height="41" p:name="rectangle0" id="fb9fc25a0a6b42b8a2cf08b87e650478" x="0" y="0"/>
      </g>
      <g p:filter="url(#e22d30b7a4054f35be5d5d70112a8835)" dominant-baseline="auto" p:name="text0text" id="7e4f376c26654a3e81ad03ffea11d2d1" style="fill: rgb(255, 255, 255); fill-opacity: 1; color: rgb(255, 255, 255); font-family: &quot;Android Roboto&quot;; font-size: 14px; font-weight: normal; font-style: normal; text-decoration: none;"><g transform="translate(0,-2)"><text><tspan x="24" y="27" style="font-family: &quot;Android Roboto&quot;; font-size: 14px; font-weight: normal; font-style: normal; text-decoration: none; text-transform: none; fill: rgb(255, 255, 255); background-color: rgba(0, 0, 0, 0);">Confirm your account</tspan></text></g></g>
      <g p:filter="url(#c4b1e4a3bb7c410480808f4a5bec5fac)" dominant-baseline="auto" p:name="textActiontext" id="49c7c39878d844c585710a6b4479675c" style="fill: rgb(255, 255, 0); fill-opacity: 0.870588; color: rgba(255, 255, 0, 0.870588); font-family: &quot;Android Roboto&quot;; font-size: 14px; font-weight: 500; font-style: normal; text-decoration: none;"/>
    </g><g p:type="Shape" p:def="dgthanhan.AndroidNougatWireframe:textview" p:sc="Long body text" id="d73cc8a1f4d4478d82343cb023aa860c" transform="matrix(1,0,0,1,34,158)"><p:metadata><p:property name="box">330,57</p:property><p:property name="textAlignment">0,1</p:property><p:property name="textColor">#666666DE</p:property><p:property name="textFont">Android Roboto|normal|normal|15px|none</p:property><p:property name="text0">A confirmation code was sent by to l*********@g****.com via EMAIL</p:property><p:property name="shadowStyle">0|0|0|0</p:property></p:metadata>
      <path p:filter="url(#64cd8fd897dd469ea0ef8b37f3b44c46)" d="M 0 0 L 330 0 L 330 57 L 0 57 L 0 0 z" style="fill: rgb(255, 255, 255); fill-opacity: 0; stroke: rgb(0, 0, 0); stroke-opacity: 1; stroke-width: 0;" p:name="pathRect0" id="f577b79cedba4c22a6ab586572128e4d" rx="0" ry="0" transform="translate(0,0)"/>
      <defs>
        <filter x="-50%" width="200%" y="-50%" height="200%" p:name="text0_shadowFilter" id="3b041adbbcbb40fd88a1b2deb1b8dbe0"><feGaussianBlur in="SourceAlpha" stdDeviation="0"/><feOffset dx="0" dy="0"/><feComponentTransfer><feFuncA type="linear" slope="0"/></feComponentTransfer><feMerge><feMergeNode/><feMergeNode in="SourceGraphic"/></feMerge></filter>
      </defs>
      <g p:filter="url(#3b041adbbcbb40fd88a1b2deb1b8dbe0)" p:name="text0_globalGroup" id="cc58abbac2624542ba480c6c4bead275">
        <g p:filter="url(#868a972c6dae418cb9e0c13f7016efc8)" dominant-baseline="auto" p:name="text0text" id="97a7a946ba8e4130ae8e4f2b21a9f0f8" style="fill: rgb(102, 102, 102); fill-opacity: 0.870588; color: rgba(102, 102, 102, 0.870588); font-family: &quot;Android Roboto&quot;; font-size: 15px; font-weight: normal; font-style: normal; text-decoration: none;"><g transform="translate(0,11)"><text><tspan x="0" y="14" style="font-family: &quot;Android Roboto&quot;; font-size: 15px; font-weight: normal; font-style: normal; text-decoration: none; text-transform: none; fill: rgba(102, 102, 102, 0.870588); background-color: rgba(0, 0, 0, 0);">A confirmation code was sent by to</tspan><tspan x="0" y="32" style="font-family: &quot;Android Roboto&quot;; font-size: 15px; font-weight: normal; font-style: normal; text-decoration: none; text-transform: none; fill: rgba(102, 102, 102, 0.870588); background-color: rgba(0, 0, 0, 0);">l*********@g****.com via EMAIL</tspan></text></g></g>
      </g>
    </g><g p:type="Shape" p:def="dgthanhan.AndroidNougatWireframe:textview" p:sc="Long body text" id="8e6bd1a5f0c94218b4fd9154697e635c" transform="matrix(1,0,0,1,34,204)"><p:metadata><p:property name="box">330,57</p:property><p:property name="textAlignment">0,1</p:property><p:property name="textColor">#666666DE</p:property><p:property name="textFont">Android Roboto|normal|normal|15px|none</p:property><p:property name="text0">Please enter the code below to confirm your account.</p:property><p:property name="shadowStyle">0|0|0|0</p:property></p:metadata>
      <path p:filter="url(#64cd8fd897dd469ea0ef8b37f3b44c46)" d="M 0 0 L 330 0 L 330 57 L 0 57 L 0 0 z" style="fill: rgb(255, 255, 255); fill-opacity: 0; stroke: rgb(0, 0, 0); stroke-opacity: 1; stroke-width: 0;" p:name="pathRect0" id="2ccae6c8bb424000bddfb2ba95a31ca5" rx="0" ry="0" transform="translate(0,0)"/>
      <defs>
        <filter x="-50%" width="200%" y="-50%" height="200%" p:name="text0_shadowFilter" id="9976903927c84cd9848ab12c19ebe328"><feGaussianBlur in="SourceAlpha" stdDeviation="0"/><feOffset dx="0" dy="0"/><feComponentTransfer><feFuncA type="linear" slope="0"/></feComponentTransfer><feMerge><feMergeNode/><feMergeNode in="SourceGraphic"/></feMerge></filter>
      </defs>
      <g p:filter="url(#9976903927c84cd9848ab12c19ebe328)" p:name="text0_globalGroup" id="45ddef468af549cb946adca7d82c120b">
        <g p:filter="url(#868a972c6dae418cb9e0c13f7016efc8)" dominant-baseline="auto" p:name="text0text" id="a42115620ad64086a61977e34f07a35e" style="fill: rgb(102, 102, 102); fill-opacity: 0.870588; color: rgba(102, 102, 102, 0.870588); font-family: &quot;Android Roboto&quot;; font-size: 15px; font-weight: normal; font-style: normal; text-decoration: none;"><g transform="translate(0,11)"><text><tspan x="0" y="14" style="font-family: &quot;Android Roboto&quot;; font-size: 15px; font-weight: normal; font-style: normal; text-decoration: none; text-transform: none; fill: rgba(102, 102, 102, 0.870588); background-color: rgba(0, 0, 0, 0);">Please enter the code below to confirm your</tspan><tspan x="0" y="32" style="font-family: &quot;Android Roboto&quot;; font-size: 15px; font-weight: normal; font-style: normal; text-decoration: none; text-transform: none; fill: rgba(102, 102, 102, 0.870588); background-color: rgba(0, 0, 0, 0);">account.</tspan></text></g></g>
      </g>
    </g><g p:type="Shape" p:def="dgthanhan.AndroidNougatWireframe:inputtext-single" p:sc="Input (filled, idle)" id="37d6eef3d6b8408690cd36984da8e983" transform="matrix(1,0,0,1,34,283)"><p:metadata><p:property name="box">330,48</p:property><p:property name="fillColor">#FFFFFF00</p:property><p:property name="strokeColor">#0000006B</p:property><p:property name="strokeStyle">1|</p:property><p:property name="textAlignment">0,1</p:property><p:property name="textColor">#000000DE</p:property><p:property name="textFont">Android Roboto|normal|normal|16px|none</p:property><p:property name="text1">&lt;span xmlns="http://www.w3.org/1999/xhtml" style="font-size: 15px;"&gt;locadocapp@gmail.com&lt;/span&gt;</p:property><p:property name="textFont2">Android Roboto|normal|normal|12px|none</p:property><p:property name="text0"/><p:property name="vectorImage0ImageData">0,0,data:</p:property><p:property name="iconColor">#000000DE</p:property><p:property name="handle0">0,0</p:property><p:property name="withCaret">false</p:property><p:property name="text2"/></p:metadata>
      <rect p:filter="url(#e0dccf3d615d4998851f568b6dfccdfc)" rx="0" ry="0" style="fill: rgb(255, 255, 255); fill-opacity: 0; stroke: rgb(0, 0, 0); stroke-opacity: 1; stroke-width: 0;" width="330" height="48" p:name="rectangle0" id="1e57beb594094489a9536acb95676323" x="0" y="0"/>
      <path p:filter="url(#86497b6d5b04484094a775fd02b75625)" d="M 0 0 M 330 0 M 330 47.5 L 0 47.5 M 0 0" style="fill: rgb(255, 255, 255); fill-opacity: 0; stroke: rgb(0, 0, 0); stroke-opacity: 0.419608; stroke-width: 1;" p:name="pathRect0" id="ceea31bda46642f0b06cb7e237eead0a" rx="0" ry="0" transform="translate(0,0)"/>
      <g p:filter="url(#87f9b99f3f3d4d35837450fc97771f0e)" dominant-baseline="auto" p:name="text1text" id="58b18a0a96424275a99afcb867b1ef7e" style="fill: rgb(0, 0, 0); fill-opacity: 0.870588; color: rgba(0, 0, 0, 0.870588); font-family: &quot;Android Roboto&quot;; font-size: 16px; font-weight: normal; font-style: normal; text-decoration: none;"><g transform="translate(0,1)"><text><tspan x="0" y="34" style="font-family: &quot;Android Roboto&quot;; font-size: 15px; font-weight: normal; font-style: normal; text-decoration: none; text-transform: none; fill: rgba(0, 0, 0, 0.870588); background-color: rgba(0, 0, 0, 0);">locadocapp@gmail.com</tspan></text></g></g>
      <g p:filter="url(#f9a6ee1ae9ed40a48cc3b658399a34f6)" dominant-baseline="auto" p:name="text0text" id="5f0c90b035c94dfd991f2cddb625b193" style="fill: rgb(0, 0, 0); fill-opacity: 0.419608; color: rgba(0, 0, 0, 0.419608); font-family: &quot;Android Roboto&quot;; font-size: 12px; font-weight: normal; font-style: normal; text-decoration: none;"/>
      <g p:name="vectorImage0" id="d385d92c350e47589d5f727535c7e0e0" transform="translate(306,16) scale(24,24)">
        <g x="0" y="0" p:name="vectorImage0Image" id="15cf7c92e50e445a93476b3c0978a276"/>
      </g>
      <rect p:filter="url(#fa3673619023477ea67d906943009364)" rx="0" ry="0" style="fill: rgb(0, 0, 0); fill-opacity: 0.419608; stroke: rgb(0, 0, 0); stroke-opacity: 1; stroke-width: 0; visibility: hidden; display: none;" width="1" height="24" p:name="rectangle1" id="7179551f02cc4e4d9eb6e5b7f09ca2a5" x="0" y="18"/>
      <g p:filter="url(#de6d15fb821045af82a3e79330489ca5)" dominant-baseline="auto" p:name="text2text" id="208ae0c38f744c368ce977591300fa39" style="fill: rgb(0, 0, 0); fill-opacity: 0.419608; color: rgba(0, 0, 0, 0.419608); font-family: &quot;Android Roboto&quot;; font-size: 12px; font-weight: normal; font-style: normal; text-decoration: none;"/>
    </g><g p:type="Shape" p:def="dgthanhan.AndroidNougatWireframe:inputtext-single" p:sc="Input (empty, idle)" id="a9af58d2837a4acaa07830241a12d1ae" transform="matrix(1,0,0,1,34,383)"><p:metadata><p:property name="box">330,48</p:property><p:property name="fillColor">#FFFFFF00</p:property><p:property name="strokeColor">#0000006B</p:property><p:property name="strokeStyle">1|</p:property><p:property name="textAlignment">0,1</p:property><p:property name="textColor">#0000008A</p:property><p:property name="textFont">Android Roboto|normal|normal|16px|none</p:property><p:property name="text1">Confirmation Code</p:property><p:property name="textFont2">Android Roboto|normal|normal|12px|none</p:property><p:property name="text0"/><p:property name="vectorImage0ImageData">0,0,data:</p:property><p:property name="iconColor">#000000DE</p:property><p:property name="handle0">0,0</p:property><p:property name="withCaret">false</p:property><p:property name="text2"/></p:metadata>
      <rect p:filter="url(#e0dccf3d615d4998851f568b6dfccdfc)" rx="0" ry="0" style="fill: rgb(255, 255, 255); fill-opacity: 0; stroke: rgb(0, 0, 0); stroke-opacity: 1; stroke-width: 0;" width="330" height="48" p:name="rectangle0" id="74e4804ed15c447cb774f961703ebf51" x="0" y="0"/>
      <path p:filter="url(#86497b6d5b04484094a775fd02b75625)" d="M 0 0 M 330 0 M 330 47.5 L 0 47.5 M 0 0" style="fill: rgb(255, 255, 255); fill-opacity: 0; stroke: rgb(0, 0, 0); stroke-opacity: 0.419608; stroke-width: 1;" p:name="pathRect0" id="b4a3abd5eccf44bf90c0753538215a07" rx="0" ry="0" transform="translate(0,0)"/>
      <g p:filter="url(#87f9b99f3f3d4d35837450fc97771f0e)" dominant-baseline="auto" p:name="text1text" id="6e21d2e6826241ac96a5ab7b609f99d8" style="fill: rgb(0, 0, 0); fill-opacity: 0.541176; color: rgba(0, 0, 0, 0.541176); font-family: &quot;Android Roboto&quot;; font-size: 16px; font-weight: normal; font-style: normal; text-decoration: none;"><g transform="translate(0,1)"><text><tspan x="0" y="35" style="font-family: &quot;Android Roboto&quot;; font-size: 16px; font-weight: normal; font-style: normal; text-decoration: none; text-transform: none; fill: rgba(0, 0, 0, 0.541176); background-color: rgba(0, 0, 0, 0);">Confirmation Code</tspan></text></g></g>
      <g p:filter="url(#f9a6ee1ae9ed40a48cc3b658399a34f6)" dominant-baseline="auto" p:name="text0text" id="2b0176ddc4dd4a479abbb456f759c5eb" style="fill: rgb(0, 0, 0); fill-opacity: 0.419608; color: rgba(0, 0, 0, 0.419608); font-family: &quot;Android Roboto&quot;; font-size: 12px; font-weight: normal; font-style: normal; text-decoration: none;"/>
      <g p:name="vectorImage0" id="4e45a7fff4bf49f2b22cf112f4bc1cd7" transform="translate(306,16) scale(24,24)">
        <g x="0" y="0" p:name="vectorImage0Image" id="19c4b980c4a54ab2ad48ad63481c90be"/>
      </g>
      <rect p:filter="url(#fa3673619023477ea67d906943009364)" rx="0" ry="0" style="fill: rgb(0, 0, 0); fill-opacity: 0.419608; stroke: rgb(0, 0, 0); stroke-opacity: 1; stroke-width: 0; visibility: hidden; display: none;" width="1" height="24" p:name="rectangle1" id="b7f8ff7b71fb4ba3b4c0c04f9ba1fc8e" x="0" y="18"/>
      <g p:filter="url(#de6d15fb821045af82a3e79330489ca5)" dominant-baseline="auto" p:name="text2text" id="a5dbe6b251e346b38322fd2e247f25f2" style="fill: rgb(0, 0, 0); fill-opacity: 0.419608; color: rgba(0, 0, 0, 0.419608); font-family: &quot;Android Roboto&quot;; font-size: 12px; font-weight: normal; font-style: normal; text-decoration: none;"/>
    </g><g p:type="Shape" p:def="dgthanhan.AndroidNougatWireframe:button" p:sc="Raised Button (color)" id="d61df86bc47e46139de6b73ff36b40aa" transform="matrix(1,0,0,1,33,503)"><p:metadata><p:property name="box">330,36</p:property><p:property name="fillColor">#1D8668FF</p:property><p:property name="shadowStyle">0|2|1|0.2</p:property><p:property name="textAlignment">1,1</p:property><p:property name="textColor">#FFFFFFFF</p:property><p:property name="textFont">Android Roboto|500|normal|14px|none</p:property><p:property name="text0">Confrim</p:property></p:metadata>
      <defs>
        <filter x="-50%" width="200%" y="-50%" height="200%" p:name="rectangle0_shadowFilter" id="94fae5a989c84699ac4b5f558ac2ba66"><feGaussianBlur in="SourceAlpha" stdDeviation="1"/><feOffset dx="0" dy="2"/><feComponentTransfer><feFuncA type="linear" slope="0.2"/></feComponentTransfer><feMerge><feMergeNode/><feMergeNode in="SourceGraphic"/></feMerge></filter>
      </defs>
      <g p:filter="url(#94fae5a989c84699ac4b5f558ac2ba66)" p:name="rectangle0_globalGroup" id="b9405b714c4b4147a9fc58075f8829e5" filter="url(#94fae5a989c84699ac4b5f558ac2ba66)">
        <rect p:filter="url(#693639ed38f54eabb6408ec2f6013902)" rx="2" ry="2" style="fill: rgb(29, 134, 104); fill-opacity: 1; stroke: rgb(96, 96, 96); stroke-opacity: 1; stroke-width: 0;" width="330" height="36" p:name="rectangle0" id="48a6e686f6584d8a9890734e9171fa12" x="0" y="0"/>
      </g>
      <g p:filter="url(#9b78d6452edd4ddb95a6408fc9807334)" dominant-baseline="auto" p:name="text0text" id="6ca816a997d043afaca293ed8b4e34ed" style="fill: rgb(255, 255, 255); fill-opacity: 1; color: rgb(255, 255, 255); font-family: &quot;Android Roboto&quot;; font-size: 14px; font-weight: 500; font-style: normal; text-decoration: none;"><g transform="translate(0,10)"><text><tspan x="140" y="13" style="font-family: &quot;Android Roboto&quot;; font-size: 14px; font-weight: 500; font-style: normal; text-decoration: none; text-transform: none; fill: rgb(255, 255, 255); background-color: rgba(0, 0, 0, 0);">Confrim</tspan></text></g></g>
    </g><g p:type="Shape" p:def="dgthanhan.AndroidNougatWireframe:textview" p:sc="Subsection" id="5f7ce0d031414cf0a16fc6c23a2a3851" transform="matrix(1,0,0,1,34,573)"><p:metadata><p:property name="box">164,24</p:property><p:property name="textAlignment">0,1</p:property><p:property name="textColor">#00BCD4FF</p:property><p:property name="textFont">Android Roboto|normal|normal|16px|none</p:property><p:property name="text0">Resend code</p:property><p:property name="shadowStyle">0|0|0|0</p:property></p:metadata>
      <path p:filter="url(#64cd8fd897dd469ea0ef8b37f3b44c46)" d="M 0 0 L 164 0 L 164 24 L 0 24 L 0 0 z" style="fill: rgb(255, 255, 255); fill-opacity: 0; stroke: rgb(0, 0, 0); stroke-opacity: 1; stroke-width: 0;" p:name="pathRect0" id="2d75a87a7e614580985fe713647c498f" rx="0" ry="0" transform="translate(0,0)"/>
      <defs>
        <filter x="-50%" width="200%" y="-50%" height="200%" p:name="text0_shadowFilter" id="f6f4171824c841298d56f7c455d3689a"><feGaussianBlur in="SourceAlpha" stdDeviation="0"/><feOffset dx="0" dy="0"/><feComponentTransfer><feFuncA type="linear" slope="0"/></feComponentTransfer><feMerge><feMergeNode/><feMergeNode in="SourceGraphic"/></feMerge></filter>
      </defs>
      <g p:filter="url(#f6f4171824c841298d56f7c455d3689a)" p:name="text0_globalGroup" id="dac27db0e12543adb9b3cd9f27ce584e">
        <g p:filter="url(#868a972c6dae418cb9e0c13f7016efc8)" dominant-baseline="auto" p:name="text0text" id="037a25a142a24fac85d04eb7491265bb" style="fill: rgb(0, 188, 212); fill-opacity: 1; color: rgb(0, 188, 212); font-family: &quot;Android Roboto&quot;; font-size: 16px; font-weight: normal; font-style: normal; text-decoration: none;"><g transform="translate(0,3)"><text><tspan x="0" y="15" style="font-family: &quot;Android Roboto&quot;; font-size: 16px; font-weight: normal; font-style: normal; text-decoration: none; text-transform: none; fill: rgb(0, 188, 212); background-color: rgba(0, 0, 0, 0);">Resend code</tspan></text></g></g>
      </g>
    </g></g></g></svg>