
		<svg width="3113.7863714338214" height="3395.0227213459607" xmlns="http://www.w3.org/2000/svg" xmlns:xlink="http://www.w3.org/1999/xlink" version="1.1">
			<g transform="scale(19.751136067298035) translate(10, 10)">
				<g xmlns="http://www.w3.org/2000/svg" id="SvgjsG1008" transform="translate(-3.15 109.428)" name="main_text" xmlns:name="mainText_mainfill" rel="mainfill" fill="#000000"><path fill="#000000" d="M 3.15 42 l 0 -29.904 l 3.78 0 l 0 26.25 l 16.38 0 l 0 3.654 l -20.16 0 Z M 39.2238 25.242 c 1.932 1.932 2.982 4.452 2.982 7.14 s -1.05 5.208 -2.982 7.14 c -1.89 1.89 -4.41 2.94 -7.098 2.94 s -5.208 -1.05 -7.14 -2.94 c -1.89 -1.932 -2.94 -4.452 -2.94 -7.14 s 1.05 -5.208 2.94 -7.14 c 1.932 -1.89 4.452 -2.898 7.14 -2.898 s 5.208 1.008 7.098 2.898 Z M 32.1258 38.85 c 3.57 0 6.468 -2.898 6.468 -6.468 s -2.898 -6.426 -6.468 -6.426 s -6.468 2.856 -6.468 6.426 s 2.898 6.468 6.468 6.468 Z M 56.5656 36.162 l 2.94 2.142 c -0.336 0.42 -0.672 0.84 -1.05 1.218 c -1.89 1.89 -4.41 2.898 -7.098 2.898 s -5.25 -1.008 -7.14 -2.898 c -1.89 -1.932 -2.94 -4.452 -2.94 -7.14 s 1.05 -5.208 2.94 -7.14 c 1.89 -1.89 4.452 -2.898 7.14 -2.898 s 5.208 1.008 7.098 2.898 c 0.378 0.378 0.714 0.756 1.008 1.176 l -2.898 2.142 c -1.176 -1.596 -3.066 -2.688 -5.208 -2.688 c -3.57 0 -6.468 2.94 -6.468 6.51 s 2.898 6.51 6.468 6.51 c 2.142 0 4.032 -1.092 5.208 -2.73 Z M 80.8374 42 l -3.318 -8.694 l -12.222 0 l -3.318 8.694 l -4.032 0 l 11.508 -29.904 l 3.906 0 l 11.55 29.904 l -4.074 0 Z M 76.0494 29.61 l -4.62 -12.096 l -4.662 12.096 l 9.282 0 Z M 99.9012 24.99 l 0 -13.818 l 3.612 0 l 0 30.828 l -3.612 0 l 0 -2.226 c -1.806 1.512 -4.074 2.646 -6.468 2.646 c -2.688 0 -5.208 -1.008 -7.14 -2.898 c -1.89 -1.932 -2.94 -4.452 -2.94 -7.14 s 1.05 -5.208 2.94 -7.14 c 1.932 -1.89 4.452 -2.898 7.14 -2.898 c 2.394 0 4.662 1.134 6.468 2.646 Z M 93.4332 38.892 c 3.57 0 6.468 -2.94 6.468 -6.51 s -2.898 -6.51 -6.468 -6.51 s -6.468 2.94 -6.468 6.51 s 2.898 6.51 6.468 6.51 Z M 120.519 25.242 c 1.932 1.932 2.982 4.452 2.982 7.14 s -1.05 5.208 -2.982 7.14 c -1.89 1.89 -4.41 2.94 -7.098 2.94 s -5.208 -1.05 -7.14 -2.94 c -1.89 -1.932 -2.94 -4.452 -2.94 -7.14 s 1.05 -5.208 2.94 -7.14 c 1.932 -1.89 4.452 -2.898 7.14 -2.898 s 5.208 1.008 7.098 2.898 Z M 113.421 38.85 c 3.57 0 6.468 -2.898 6.468 -6.468 s -2.898 -6.426 -6.468 -6.426 s -6.468 2.856 -6.468 6.426 s 2.898 6.468 6.468 6.468 Z M 137.861 36.162 l 2.94 2.142 c -0.336 0.42 -0.672 0.84 -1.05 1.218 c -1.89 1.89 -4.41 2.898 -7.098 2.898 s -5.25 -1.008 -7.14 -2.898 c -1.89 -1.932 -2.94 -4.452 -2.94 -7.14 s 1.05 -5.208 2.94 -7.14 c 1.89 -1.89 4.452 -2.898 7.14 -2.898 s 5.208 1.008 7.098 2.898 c 0.378 0.378 0.714 0.756 1.008 1.176 l -2.898 2.142 c -1.176 -1.596 -3.066 -2.688 -5.208 -2.688 c -3.57 0 -6.468 2.94 -6.468 6.51 s 2.898 6.51 6.468 6.51 c 2.142 0 4.032 -1.092 5.208 -2.73 Z" style="fill: #000000;"/></g><defs xmlns="http://www.w3.org/2000/svg" id="SvgjsDefs1002"><g xmlns="http://www.w3.org/2000/svg" id="SvgjsG1009" fill="#000000" transform="translate(6.24772 -9.77778) scale(1.95556)" name="symbol" xmlns:name="symbol_mainfill" rel="mainfill"><metadata><sfw xmlns="http://ns.adobe.com/SaveForWeb/1.0/"><slices/><slicesourcebounds y="-8160" x="-8165" width="16389" height="16384" bottomleftorigin="true"/></sfw></metadata><g><g><path d="M 35 26 v -3 H 25 v 18 h 14 V 27 h -3 C 35.447 27 35 26.552 35 26 Z M 28 25 h 4 c 0.552 0 1 0.448 1 1 s -0.448 1 -1 1 h -4 c -0.552 0 -1 -0.448 -1 -1 S 27.448 25 28 25 Z M 35.875 39 H 28 c -0.552 0 -1 -0.447 -1 -1 s 0.448 -1 1 -1 h 7.875 c 0.553 0 1 0.447 1 1 S 36.428 39 35.875 39 Z M 36 35 h -8 c -0.552 0 -1 -0.447 -1 -1 s 0.448 -1 1 -1 h 8 c 0.553 0 1 0.447 1 1 S 36.553 35 36 35 Z M 37 30 c 0 0.552 -0.447 1 -1 1 h -8 c -0.552 0 -1 -0.448 -1 -1 s 0.448 -1 1 -1 h 8 C 36.553 29 37 29.448 37 30 Z" fill="#000000" style="fill: #000000;"/><polygon points="37,24.414 37,25 37.586,25"/><path d="M 54 15 c -8.748 0 -13 -2.944 -13 -9 c 0 -0.552 -0.447 -1 -1 -1 H 24 c -0.552 0 -1 0.448 -1 1 c 0 6.056 -4.252 9 -13 9 c -0.552 0 -1 0.448 -1 1 v 18 c 0 10.37 21.544 24.257 22.461 24.843 C 31.625 58.947 31.813 59 32 59 s 0.375 -0.053 0.539 -0.157 C 33.456 58.257 55 44.37 55 34 V 16 C 55 15.448 54.553 15 54 15 Z M 41 42 c 0 0.553 -0.447 1 -1 1 H 24 c -0.552 0 -1 -0.447 -1 -1 V 22 c 0 -0.552 0.448 -1 1 -1 h 12 c 0.266 0 0.52 0.105 0.707 0.293 l 4 4 C 40.895 25.48 41 25.735 41 26 V 42 Z" fill="#000000" style="fill: #000000;"/></g></g></g>
			</defs></g>
		</svg>
	